<?xml version="1.0" encoding="UTF-8"?>
<svg width="260px" height="238px" viewBox="0 0 260 238" version="1.1" xmlns="http://www.w3.org/2000/svg" xmlns:xlink="http://www.w3.org/1999/xlink">
    <!-- Generator: Sketch 44.1 (41455) - http://www.bohemiancoding.com/sketch -->
    <title>cara-muerto</title>
    <desc>Created with Sketch.</desc>
    <defs></defs>
    <g id="7--Error-pages" stroke="none" stroke-width="1" fill="none" fill-rule="evenodd">
        <g id="Error---400" transform="translate(-240.000000, -150.000000)" fill-rule="nonzero" fill="#1467AB">
            <g id="cara-muerto" transform="translate(240.000000, 150.000000)">
                <g id="Group" transform="translate(52.000000, 73.862069)">
                    <polygon id="Shape" points="49.4684211 39.9402299 34.6210526 25.0994253 49.4684211 10.2586207 39.5473684 0.341954023 24.7 15.1827586 9.85263158 0.341954023 0 10.2586207 14.8473684 25.0994253 0 39.9402299 9.85263158 49.8568966 24.7 35.016092 39.5473684 49.8568966"></polygon>
                    <polygon id="Shape" points="155.931579 39.9402299 141.084211 25.0994253 155.931579 10.2586207 146.078947 0.341954023 131.231579 15.1827586 116.384211 0.341954023 106.463158 10.2586207 121.310526 25.0994253 106.463158 39.9402299 116.384211 49.8568966 131.231579 35.016092 146.078947 49.8568966"></polygon>
                    <path d="M84.7052632,121.872414 C81.0789474,117.495402 79.2315789,111.203448 79.2315789,103.133333 L79.2315789,87.5402299 L29.6263158,87.5402299 L29.6263158,72.0155172 L127.194737,72.0155172 L127.194737,104.159195 C127.194737,111.545402 125.278947,117.495402 121.378947,121.872414 C117.547368,126.249425 111.526316,128.506322 103.452632,128.506322 C94.6263158,128.506322 88.4,126.249425 84.7052632,121.872414 Z M111.731579,109.972414 C113.373684,107.98908 114.194737,105.185057 114.194737,101.628736 L114.194737,87.5402299 L92.1631579,87.5402299 L92.1631579,101.628736 C92.1631579,105.185057 93.0526316,107.98908 94.8315789,109.972414 C96.6105263,111.955747 99.4842105,112.913218 103.384211,112.913218 C107.284211,112.913218 110.021053,111.955747 111.731579,109.972414 Z" id="Shape"></path>
                </g>
                <path d="M247.342105,0.136781609 L12.5894737,0.136781609 C5.95263158,0.136781609 0.547368421,5.33448276 0.547368421,11.9 L0.547368421,226.031609 C0.547368421,232.665517 5.95263158,237.863218 12.5894737,237.863218 L247.342105,237.863218 C253.978947,237.863218 259.452632,232.597126 259.452632,226.031609 L259.452632,11.9 C259.452632,5.26609195 253.978947,0.136781609 247.342105,0.136781609 Z M54.5315789,23.7316092 C57.8157895,23.7316092 60.4157895,26.3988506 60.4157895,29.6132184 C60.4157895,32.895977 57.7473684,35.4948276 54.5315789,35.4948276 C51.2473684,35.4948276 48.6473684,32.8275862 48.6473684,29.6132184 C48.6473684,26.3304598 51.3157895,23.7316092 54.5315789,23.7316092 Z M30.3105263,23.7316092 C33.5947368,23.7316092 36.1947368,26.3988506 36.1947368,29.6132184 C36.1947368,32.895977 33.5263158,35.4948276 30.3105263,35.4948276 C27.0263158,35.4948276 24.4263158,32.8275862 24.4263158,29.6132184 C24.4263158,26.3304598 27.0263158,23.7316092 30.3105263,23.7316092 Z M235.231579,213.994828 L24.4947368,213.994828 L24.4947368,59.6367816 L235.231579,59.6367816 L235.231579,213.994828 Z M235.231579,35.7683908 L72.5947368,35.7683908 L72.5947368,24.0051724 L235.231579,24.0051724 L235.231579,35.7683908 L235.231579,35.7683908 Z" id="Shape"></path>
            </g>
        </g>
    </g>
</svg>