<?xml version="1.0" encoding="UTF-8"?>
<svg width="260px" height="238px" viewBox="0 0 260 238" version="1.1" xmlns="http://www.w3.org/2000/svg" xmlns:xlink="http://www.w3.org/1999/xlink">
    <!-- Generator: Sketch 44.1 (41455) - http://www.bohemiancoding.com/sketch -->
    <title>noun_390364_cc</title>
    <desc>Created with Sketch.</desc>
    <defs></defs>
    <g id="7--Error-pages" stroke="none" stroke-width="1" fill="none" fill-rule="evenodd">
        <g id="Error---500" transform="translate(-300.000000, -139.000000)" fill-rule="nonzero" fill="#1467AB">
            <g id="noun_390364_cc" transform="translate(300.000000, 139.000000)">
                <path d="M247.342105,0.136781609 L12.5894737,0.136781609 C5.95263158,0.136781609 0.547368421,5.33448276 0.547368421,11.9 L0.547368421,226.031609 C0.547368421,232.665517 5.95263158,237.863218 12.5894737,237.863218 L247.342105,237.863218 C253.978947,237.863218 259.452632,232.597126 259.452632,226.031609 L259.452632,11.9 C259.452632,5.26609195 253.978947,0.136781609 247.342105,0.136781609 Z M54.5315789,23.7316092 C57.8157895,23.7316092 60.4157895,26.3988506 60.4157895,29.6132184 C60.4157895,32.895977 57.7473684,35.4948276 54.5315789,35.4948276 C51.2473684,35.4948276 48.6473684,32.8275862 48.6473684,29.6132184 C48.6473684,26.3304598 51.3157895,23.7316092 54.5315789,23.7316092 Z M30.3105263,23.7316092 C33.5947368,23.7316092 36.1947368,26.3988506 36.1947368,29.6132184 C36.1947368,32.895977 33.5263158,35.4948276 30.3105263,35.4948276 C27.0263158,35.4948276 24.4263158,32.8275862 24.4263158,29.6132184 C24.4263158,26.3304598 27.0263158,23.7316092 30.3105263,23.7316092 Z M235.231579,213.994828 L24.4947368,213.994828 L24.4947368,59.6367816 L235.231579,59.6367816 L235.231579,213.994828 Z M235.231579,35.7683908 L72.5947368,35.7683908 L72.5947368,24.0051724 L235.231579,24.0051724 L235.231579,35.7683908 L235.231579,35.7683908 Z" id="Shape"></path>
                <path d="M96.9159892,186.902439 C92.0596206,192.365854 82.9539295,192.365854 78.097561,186.902439 C72.6341463,181.439024 72.6341463,172.940379 78.097561,167.476965 L109.663957,135.303523 L78.097561,103.737127 C72.6341463,98.2737127 72.6341463,89.7750678 78.097561,84.3116531 C82.9539295,78.8482385 92.0596206,78.8482385 96.9159892,84.3116531 L129.089431,116.485095 L162.476965,83.097561 C167.940379,77.6341463 176.439024,77.6341463 181.902439,83.097561 C187.365854,87.9539295 187.365854,97.0596206 181.902439,101.915989 L148.514905,135.303523 L181.902439,168.691057 C187.365854,174.154472 187.365854,182.653117 181.902439,188.116531 C176.439024,193.579946 167.940379,193.579946 162.476965,188.116531 L129.089431,154.728997 L96.9159892,186.902439 Z" id="Shape"></path>
            </g>
        </g>
    </g>
</svg>