<svg id="b9891bf6-887f-41a0-b7e8-4e95a191ead8" data-name="Isologo Pluma" xmlns="http://www.w3.org/2000/svg" xmlns:xlink="http://www.w3.org/1999/xlink" viewBox="0 0 367.93 332"><defs><clipPath id="4d379aca-aa4f-477d-88e5-d8d170669b49"><path d="M96.33,80.06v4.59a5.64,5.64,0,0,0,0-4.59" style="fill:none;clip-rule:evenodd"/></clipPath><clipPath id="854a4faa-4cdc-42c3-916b-927e6f39b8a2"><rect x="30.92" y="1.71" width="302.17" height="332.39" transform="matrix(0.01, -1, 1, 0.01, 12.99, 348.88)" style="fill:none"/></clipPath><clipPath id="617c3d08-265a-418d-9e2d-a9e13d96789d"><path d="M105.36,55.18c.12,0-.06-.64.54-.68a1.56,1.56,0,0,1,1.44,1c.12.58-.36,2,1.5,2.2,0,0,0,.29,0,.59h0a2.76,2.76,0,0,1-.27,1h.35c2.49.12,3.89-.07,4.6-.82a4.58,4.58,0,0,0,1-4.34h0a1,1,0,0,0-.06-.19,1.88,1.88,0,0,0-.16-.34,7.24,7.24,0,0,0-3.81-2.85,1.36,1.36,0,0,0-.36-.05s0,0,0,0l.07,0h0a3.47,3.47,0,0,1,.39,0c1.34.16,3.6,1.49,4,2.84a2.44,2.44,0,0,0,.89-1.67h0a4.28,4.28,0,0,1,.29-1.65.42.42,0,0,0-.18-.56.42.42,0,0,0-.54.21c-.33.69-1.12.31-.79-.38a.43.43,0,0,0-.18-.56.42.42,0,0,0-.54.2c-.32.67-1.08.3-.77-.37a.41.41,0,0,0-.17-.55.43.43,0,0,0-.55.2c-.32.69-1.11.31-.78-.38a.43.43,0,0,0-.18-.56.41.41,0,0,0-.54.21,4.11,4.11,0,0,1-.66,1A8.18,8.18,0,0,1,114,50.78s.41.46.46.55v0h0c0,.08.05.13,0,.15s0,0,0,0a2.55,2.55,0,0,0-.47-.46,8.65,8.65,0,0,0-4.32-2.14c-.8.09-.57,1-.49,1.58a2,2,0,0,0-2.46,1.64,2.63,2.63,0,0,0,.25,1.1,0,0,0,0,1,0,.07c-.06,0-.25-.13-.36-.41a2.64,2.64,0,0,1-.17-.69c-1.1.06-2.11.64-2,1.65a1.87,1.87,0,0,0,1,1.36m3.88-1.54c.28-.34.38,1.13,1.52.71-.83,1-1.92,0-1.52-.71m-.09-.73c.44-.26.83-1.14,1.5-.71a11.52,11.52,0,0,1,1,.75,2.82,2.82,0,0,1,.9.79c.2.4-.33,1.35-.93.5-.39-.63-1-1.77-1.83-1.32-.72.36-1.21.88-1.4.39-.06-.25.52-.24.79-.39M106,53.1c-.19.41-.78.41-.86.94-.49-.45.43-1.46.86-.94" style="fill:none;clip-rule:evenodd"/></clipPath><clipPath id="fbddf7a3-0be2-4cae-b488-53966c32c695"><path d="M85.92,107.13a1,1,0,0,0,.47-.64,1.8,1.8,0,0,0-.76-1.65l-1.47,0h0l-1.47,0a1.81,1.81,0,0,0-.76,1.65,1,1,0,0,0,.47.64s-1,.44-1.05,1.16c0,0-.12.53.79,1.27a5,5,0,0,1,.86,1.32s.06.8,1.16.8,1.16-.8,1.16-.8a5.13,5.13,0,0,1,.87-1.31c.91-.74.81-1.27.81-1.27,0-.72-1.06-1.16-1.06-1.16" style="fill:none;clip-rule:evenodd"/></clipPath><clipPath id="ced6c5b3-cd1d-454a-b27d-e31ee66da889"><polygon points="93.61 102.58 94.15 102.52 93.8 101.89 93.61 102.58" style="fill:none;clip-rule:evenodd"/></clipPath><clipPath id="e3957708-107d-4f0d-b8fd-5cb60718d613"><polygon points="75.43 102.59 75.97 102.64 75.76 101.95 75.43 102.59" style="fill:none;clip-rule:evenodd"/></clipPath><clipPath id="473801af-671e-4041-8d82-9d90a73629f7"><path d="M73.32,101.09l-.09,0-.11.83a1.47,1.47,0,0,0,.38,0,.31.31,0,0,0,.17-.11.47.47,0,0,0,.08-.25.39.39,0,0,0-.06-.34.55.55,0,0,0-.37-.13" style="fill:none;clip-rule:evenodd"/></clipPath><clipPath id="a27ac64c-24d6-4846-9e59-f0d8f333f70c"><path d="M81.13,101.74a.46.46,0,0,0-.42.21,1.27,1.27,0,0,0-.16.69,1.44,1.44,0,0,0,.11.74.43.43,0,0,0,.39.24.48.48,0,0,0,.44-.18,1.93,1.93,0,0,0,.06-1.43.47.47,0,0,0-.42-.26" style="fill:none;clip-rule:evenodd"/></clipPath><clipPath id="fb231b1c-5235-44d4-aafe-a703e7158c91"><path d="M87.95,101.75a.47.47,0,0,0-.41.23,1.32,1.32,0,0,0-.1.69,1.34,1.34,0,0,0,.17.73.45.45,0,0,0,.41.22.55.55,0,0,0,.43-.23,1.37,1.37,0,0,0,.11-.73,1.39,1.39,0,0,0-.17-.71.45.45,0,0,0-.43-.21" style="fill:none;clip-rule:evenodd"/></clipPath><clipPath id="805d9a24-e97f-4a23-a457-0a52c7e95fc6"><polygon points="69.34 101.69 69.87 101.79 69.72 101.09 69.34 101.69" style="fill:none;clip-rule:evenodd"/></clipPath><clipPath id="9ad3e39f-654b-4f06-97b7-3f6e959c9fbb"><path d="M59,97.57l-.3.81.1,0a.41.41,0,0,0,.36,0,.49.49,0,0,0,.19-.26.56.56,0,0,0,0-.28.34.34,0,0,0-.11-.18,1.31,1.31,0,0,0-.29-.14" style="fill:none;clip-rule:evenodd"/></clipPath><clipPath id="9acc9c88-ec57-4d0e-b3b7-eaf5286ca8fa"><path d="M61.1,98.55a1.33,1.33,0,0,0-.34.62,1.52,1.52,0,0,0-.09.75.51.51,0,0,0,.79.27,1.28,1.28,0,0,0,.36-.64,1.41,1.41,0,0,0,.08-.71.51.51,0,0,0-.8-.27" style="fill:none;clip-rule:evenodd"/></clipPath><clipPath id="f52a5822-9dd3-4972-8923-cf9feebc3054"><path d="M64.09,99.23l-.09,0-.22.81a1.11,1.11,0,0,0,.37.06.33.33,0,0,0,.18-.08.53.53,0,0,0,.12-.24.38.38,0,0,0,0-.34.65.65,0,0,0-.35-.19" style="fill:none;clip-rule:evenodd"/></clipPath><clipPath id="774b5109-5975-485c-8174-397b54bdd75a"><path d="M104.81,99.3a.67.67,0,0,0-.39,0l-.08,0,.22.8a1.07,1.07,0,0,0,.35-.13.27.27,0,0,0,.11-.16.52.52,0,0,0,0-.27.42.42,0,0,0-.2-.29" style="fill:none;clip-rule:evenodd"/></clipPath><clipPath id="d77691ac-526e-42eb-a8e5-9636a85a954b"><polygon points="109.34 99.06 109.85 98.86 109.36 98.34 109.34 99.06" style="fill:none;clip-rule:evenodd"/></clipPath><clipPath id="b0f23b8c-050f-4f20-964e-87b1020a3587"><path d="M110.65,96a1.57,1.57,0,0,0-.51.09c-1,.27-10.42,4.4-26,4.4s-25-4.18-26-4.45a1.52,1.52,0,0,0-.51-.09,1.27,1.27,0,0,0-.76.23l-3.19,2.5h0a5.59,5.59,0,0,1,2,.5c8.29,3.64,17.8,5.15,28.42,5.26,10.63-.09,20.13-1.57,28.43-5.19a5.69,5.69,0,0,1,2-.5h0l-3.18-2.51A1.27,1.27,0,0,0,110.65,96ZM81.1,100.87l.67,0-.79.49h-.14ZM59.9,98.38a.54.54,0,0,1-.25.3.61.61,0,0,1-.39.07,2.38,2.38,0,0,1-.51-.14l-.16,0-.18.49a.33.33,0,0,0,0,.22.3.3,0,0,0,.18.13l0,0-.06.16-1.13-.41.06-.17h0a.29.29,0,0,0,.23,0,.39.39,0,0,0,.12-.19l.45-1.23a.3.3,0,0,0,0-.21.31.31,0,0,0-.18-.13l0,0,.06-.17.85.29.48.2a.77.77,0,0,1,.28.21.58.58,0,0,1,.11.59Zm2.57,1.36a1.11,1.11,0,0,1-.56.67,1.23,1.23,0,0,1-1,0,1.41,1.41,0,0,1-.61-.36,1,1,0,0,1-.27-.55,1.21,1.21,0,0,1,0-.57,1,1,0,0,1,.33-.51A1,1,0,0,1,61,98.2a1.36,1.36,0,0,1,.62.06,1.23,1.23,0,0,1,.78.6A1.16,1.16,0,0,1,62.47,99.74Zm2.24,1.1a1.87,1.87,0,0,0,.17.43.27.27,0,0,0,.16.1l0,.18-.67-.18a4,4,0,0,1-.19-.64,1.88,1.88,0,0,0-.1-.34.25.25,0,0,0-.08-.11.61.61,0,0,0-.23-.07l-.14.5a.33.33,0,0,0,0,.23s.08.08.19.11h0l0,.18-1.16-.32,0-.17h0c.11,0,.18,0,.22,0a.32.32,0,0,0,.11-.19l.34-1.26a.36.36,0,0,0,0-.23.34.34,0,0,0-.19-.11l0,0,0-.17.86.23.19,0c.19.05.33.09.41.12a1,1,0,0,1,.24.16.52.52,0,0,1,.15.25.58.58,0,0,1,0,.29.55.55,0,0,1-.58.41A1.94,1.94,0,0,1,64.71,100.85Zm3.64,1.46-2-.43,0-.17h0a.27.27,0,0,0,.23,0,.34.34,0,0,0,.08-.19l.28-1.28a.4.4,0,0,0,0-.23.35.35,0,0,0-.2-.11h0l0-.17L68,100l0,.17h0c-.11,0-.18,0-.23,0a.35.35,0,0,0-.09.19l-.26,1.24a.81.81,0,0,0,0,.2.17.17,0,0,0,.07.08.57.57,0,0,0,.23.09.57.57,0,0,0,.46-.05.69.69,0,0,0,.28-.35l.17,0Zm2.43.44-1.09-.2,0-.18a.42.42,0,0,0,.18,0,.09.09,0,0,0,0-.07.28.28,0,0,0,0-.11v0l0-.17-.67-.13-.06.11a.38.38,0,0,0-.07.15.12.12,0,0,0,0,.12.36.36,0,0,0,.17.06l0,.18-.72-.13,0-.17c.13,0,.27-.07.41-.3l1-1.57.19,0,.38,1.82a.63.63,0,0,0,.13.34.28.28,0,0,0,.15.08Zm3.74.53-.69-.09a4.18,4.18,0,0,1-.27-.62,2.74,2.74,0,0,0-.14-.32.25.25,0,0,0-.1-.09.68.68,0,0,0-.23-.06l-.07.52a.32.32,0,0,0,0,.21c0,.06.1.08.2.1h0l0,.18L72.08,103l0-.19h0a.29.29,0,0,0,.22,0,.34.34,0,0,0,.08-.2l.17-1.3a.38.38,0,0,0,0-.22s-.09-.07-.2-.08h0l0-.18.88.12.2,0a2.18,2.18,0,0,1,.42.09.68.68,0,0,1,.25.12.62.62,0,0,1,.19.23.59.59,0,0,1,0,.29.55.55,0,0,1-.52.47,1.88,1.88,0,0,1,.31.51,1.65,1.65,0,0,0,.23.41.28.28,0,0,0,.17.08Zm2.44.24-1.1-.1,0-.18a.4.4,0,0,0,.18,0,.09.09,0,0,0,0-.07.18.18,0,0,0,0-.11v0l0-.17-.68-.07-.06.1a.67.67,0,0,0-.06.16.14.14,0,0,0,0,.11.36.36,0,0,0,.18,0l0,.18-.73-.07,0-.18c.14,0,.27-.09.39-.32l.85-1.64.19,0,.52,1.79a.73.73,0,0,0,.16.32.29.29,0,0,0,.16.07Zm2.39-1.9-1.39,1.78.51,0a1.07,1.07,0,0,0,.32,0,.48.48,0,0,0,.19-.13.74.74,0,0,0,.15-.28l.19,0-.09.66-2-.15v-.14l1.38-1.78-.36,0a.92.92,0,0,0-.46,0,.62.62,0,0,0-.22.31l-.17,0,.08-.58,1.86.14Zm2.64,1.9a1.25,1.25,0,0,1-.92.29,1.39,1.39,0,0,1-.69-.19,1,1,0,0,1-.4-.47,1.2,1.2,0,0,1-.1-.55,1.11,1.11,0,0,1,.19-.58.9.9,0,0,1,.47-.4,1.31,1.31,0,0,1,.61-.12,1.24,1.24,0,0,1,.91.38,1.16,1.16,0,0,1,.31.85A1.14,1.14,0,0,1,82,103.54Zm3.25-1.71a.51.51,0,0,0-.16,0A.27.27,0,0,0,85,102a.58.58,0,0,0,0,.21v1.7h-.21l-1.43-1.63v1a.4.4,0,0,0,.08.32.36.36,0,0,0,.23.07v.18h-.83v-.18a.38.38,0,0,0,.18,0,.23.23,0,0,0,.1-.12,1.44,1.44,0,0,0,0-.22v-1.13c0-.23-.1-.34-.32-.34v-.19h.75L84.74,103v-.81c0-.24-.1-.37-.31-.36v-.18h.8Zm3.69,1.63a1.24,1.24,0,0,1-.88.38,1.47,1.47,0,0,1-.7-.14,1,1,0,0,1-.44-.42,1.36,1.36,0,0,1-.16-.56,1.18,1.18,0,0,1,.15-.59,1,1,0,0,1,.43-.44,1.27,1.27,0,0,1,.61-.17,1.23,1.23,0,0,1,.93.3,1.13,1.13,0,0,1,.37.82A1.07,1.07,0,0,1,88.93,103.46Zm1.88.18,0-.18h0a.3.3,0,0,0,.22-.07.39.39,0,0,0,0-.23l-.11-1.3a.35.35,0,0,0-.07-.21.3.3,0,0,0-.22,0h0v-.18l1.19-.11,0,.18h0a.28.28,0,0,0-.21.08.36.36,0,0,0,0,.22l.11,1.25a.53.53,0,0,0,0,.19.14.14,0,0,0,.09.07.51.51,0,0,0,.24,0,.58.58,0,0,0,.42-.18.79.79,0,0,0,.16-.41l.18,0,.05.74Zm3.39-.33,0-.17c.1,0,.16,0,.18-.06a.08.08,0,0,0,0-.07.18.18,0,0,0,0-.09l0-.05-.08-.16-.68.08,0,.11a.5.5,0,0,0,0,.17.12.12,0,0,0,.07.1.4.4,0,0,0,.17,0l0,.17-.73.09,0-.18c.14,0,.24-.15.3-.4l.49-1.79.19,0,.89,1.63a.83.83,0,0,0,.22.29.43.43,0,0,0,.17,0l0,.17ZM98,101.13a.9.9,0,0,0-.14-.23.28.28,0,0,0-.15-.09.46.46,0,0,0-.21,0l-.35,0,.12.76.17,0c.08,0,.14,0,.16-.08a.31.31,0,0,0,0-.22l.18,0,.12.75-.17,0c0-.12-.06-.19-.1-.22a.2.2,0,0,0-.18,0l-.17,0,.09.59a.37.37,0,0,0,.08.2.28.28,0,0,0,.23,0h0l0,.17-1.19.19,0-.18h0a.27.27,0,0,0,.21-.09.39.39,0,0,0,0-.22l-.2-1.3a.32.32,0,0,0-.08-.19.28.28,0,0,0-.23,0h0l0-.17,1.84-.3.11.58Zm2.57-.55.14.73a1.62,1.62,0,0,1,0,.39.65.65,0,0,1-.09.31.64.64,0,0,1-.26.27,1,1,0,0,1-.42.18,1.12,1.12,0,0,1-.47,0,.69.69,0,0,1-.35-.15.81.81,0,0,1-.2-.25,1.57,1.57,0,0,1-.11-.33l-.16-.87a.31.31,0,0,0-.1-.2s-.12,0-.24,0l0-.18,1.15-.23,0,.18h0c-.11,0-.17.05-.2.1a.27.27,0,0,0,0,.22l.16.86a1.46,1.46,0,0,0,.12.36.4.4,0,0,0,.21.19.46.46,0,0,0,.33,0,.52.52,0,0,0,.32-.16.47.47,0,0,0,.13-.28,1.62,1.62,0,0,0,0-.42l-.14-.73a.3.3,0,0,0-.39-.27l0-.18.81-.15,0,.17a.26.26,0,0,0-.14.07.17.17,0,0,0-.08.13A.49.49,0,0,0,100.6,100.58Zm1,1.51,0-.17h0c.1,0,.17-.06.19-.11a.31.31,0,0,0,0-.22l-.3-1.28a.3.3,0,0,0-.1-.19.32.32,0,0,0-.23,0h0l0-.18,1.84-.43.16.55-.17,0a1.83,1.83,0,0,0-.16-.21.35.35,0,0,0-.15-.08.7.7,0,0,0-.21,0l-.41.09.18.74.2,0a.33.33,0,0,0,.18-.1.41.41,0,0,0,0-.23l.18,0,.17.73-.18,0v0a.3.3,0,0,0-.08-.15s-.11-.06-.22,0l-.21,0,.12.54a.54.54,0,0,0,.07.19.11.11,0,0,0,.11.06.7.7,0,0,0,.24,0,1,1,0,0,0,.3-.12.6.6,0,0,0,.13-.23,1.06,1.06,0,0,0,0-.31l.18,0,.15.72Zm4.12-1a5.51,5.51,0,0,1-.49-.46l-.26-.24a.34.34,0,0,0-.12,0,.85.85,0,0,0-.24,0l.15.5a.27.27,0,0,0,.1.19.28.28,0,0,0,.22,0h0l.05.18-1.15.31,0-.17h0c.11,0,.17-.06.2-.12a.42.42,0,0,0,0-.22l-.36-1.26c0-.11-.06-.17-.11-.2a.27.27,0,0,0-.22,0h0l0-.18.85-.23.19-.05a4,4,0,0,1,.42-.1.8.8,0,0,1,.28,0,.51.51,0,0,1,.26.14.53.53,0,0,1,.14.24.54.54,0,0,1-.28.64,2.07,2.07,0,0,1,.48.36,1.56,1.56,0,0,0,.37.28.27.27,0,0,0,.19,0l0,.18Zm1-.31,0-.14.6-2.17-.34.11a1.14,1.14,0,0,0-.41.21.55.55,0,0,0-.08.37l-.17.06-.15-.58L108,98l0,.14-.61,2.18.48-.17a.91.91,0,0,0,.29-.13.54.54,0,0,0,.13-.19.91.91,0,0,0,0-.31l.17-.05.17.64Zm3.33-1.14-.07-.17a.42.42,0,0,0,.17-.09.1.1,0,0,0,0-.09.29.29,0,0,0-.07-.08l0,0L110,99l-.63.24v.12a.76.76,0,0,0,0,.17.12.12,0,0,0,.09.09.55.55,0,0,0,.18,0l.06.17L109,100l-.06-.17c.13-.05.19-.21.2-.46l0-1.85.18-.07,1.26,1.36a.63.63,0,0,0,.28.23.47.47,0,0,0,.17,0l.06.17Z" style="fill:none;clip-rule:evenodd"/></clipPath><clipPath id="e5451df5-2098-4c1f-a2f7-1d3cd70de6e5"><path d="M73,64.57l-1.16.74h2.4A11.56,11.56,0,0,1,73,64.57" style="fill:none;clip-rule:evenodd"/></clipPath><clipPath id="703e3f03-bb60-46d1-b78b-845c121d4200"><path d="M88.67,65.27c-.36-.19-.79-.37-1-.46l-.12-.06a11.81,11.81,0,0,0-1.31-.44h-4.9a10.86,10.86,0,0,0-1.31.44l-.12.06c-.21.1-.65.27-1,.46l-.14.06h10l-.13-.06" style="fill:none;clip-rule:evenodd"/></clipPath><clipPath id="930ef451-8ace-400b-897c-b96486c085c3"><path d="M95,64.64l0,0,0,0a8.67,8.67,0,0,1-1,.71H96c-.37-.26-.74-.51-1-.7" style="fill:none;clip-rule:evenodd"/></clipPath><clipPath id="dcd4c1e2-2acf-44c4-a375-911343e69078"><path d="M71.7,84.6V79.41a6.4,6.4,0,0,0,0,5.19" style="fill:none;clip-rule:evenodd"/></clipPath><clipPath id="0c1b18a6-5b6e-438e-91f4-0f9075071222"><path d="M83.75,66,71,66a0,0,0,0,1,0,0,.47.47,0,0,0,.15.33c.07.08.26.31.51.67H83.43Z" style="fill:none;clip-rule:evenodd"/></clipPath><clipPath id="542f5c58-3515-4365-97c5-1a8443995cce"><path d="M83.23,67.71H72.05a11.29,11.29,0,0,1,.55,1H82.92Z" style="fill:none;clip-rule:evenodd"/></clipPath><clipPath id="5af8ed9c-4c7a-4a2f-aee9-824759ea7ee3"><path d="M82.39,70.45l.32-1H72.89a8.71,8.71,0,0,1,.35,1Z" style="fill:none;clip-rule:evenodd"/></clipPath><clipPath id="5e0890cf-01b3-4391-b5d7-af7bd2580881"><path d="M82.19,71.13H73.41a8.39,8.39,0,0,1,.15,1h8.31Z" style="fill:none;clip-rule:evenodd"/></clipPath><clipPath id="bedba671-9d75-4e05-947b-f5977dce0bdd"><path d="M73.34,75.56H78l-1.44-1h-3c-.05.31-.12.65-.21,1" style="fill:none;clip-rule:evenodd"/></clipPath><clipPath id="891dd5c3-c27d-4e98-9dcb-461a9156147e"><path d="M73.6,72.82v.09a4.52,4.52,0,0,1,0,.94h2l-1.44-1Z" style="fill:none;clip-rule:evenodd"/></clipPath><clipPath id="a5d7ba1c-dfa2-4527-9715-44cf28c2634e"><path d="M83.78,75.91,89.49,84v4c.4,0,.69,0,.8,0h.23V77.29h.69V87.91a8.75,8.75,0,0,0,1-.15V77.29h.68V87.57a6.6,6.6,0,0,0,1-.41V77.29h.68v9.48a5.86,5.86,0,0,0,1-.78l.07-.11v-7a13.69,13.69,0,0,1-.79-1.57h0c-.15-.36-.29-.71-.39-1H88.6l-1.31.94-2.56-.94-.94-.34,9.61-3.07h-7.5l-.2-.65h8.45a8.74,8.74,0,0,1,.19-1H85.38l-.21-.69h9.35c.11-.36.24-.71.38-1h-10l-.2-.68H95.22c.18-.38.38-.72.57-1H84.35L84.14,67H96.22a10.29,10.29,0,0,1,.69-.9A.43.43,0,0,0,97,66H83.83l0-.15v10h0Zm5,1.38h.68v6.44l-.68-2Z" style="fill:none;clip-rule:evenodd"/></clipPath><clipPath id="9dfbe5a4-2c1a-4422-aea5-ca5b6875319f"><path d="M86.07,89.09a5.79,5.79,0,0,1,1-.54V82.17l-1-.78Z" style="fill:none;clip-rule:evenodd"/></clipPath><clipPath id="2bebf430-6ff7-442d-bc13-86cb5892b6c3"><path d="M84.33,91.2l.39-.63,0-.08a3.88,3.88,0,0,1,.6-.81V80.85l-1-.78Z" style="fill:none;clip-rule:evenodd"/></clipPath><clipPath id="c8ac0569-5423-4cbe-a9a1-fe5647e4f4df"><path d="M82.62,89.46a3.79,3.79,0,0,1,.83,1l0,.08.15.24V79.73l-1,.78Z" style="fill:none;clip-rule:evenodd"/></clipPath><clipPath id="a43675c4-27f8-4211-be72-df67b0f05190"><path d="M80.91,88.47a5.45,5.45,0,0,1,1,.49V81l-1,.78Z" style="fill:none;clip-rule:evenodd"/></clipPath><clipPath id="f25a2314-634f-4c85-906d-0d9d88f10594"><path d="M87.78,88.32a8.67,8.67,0,0,1,1-.23V83.47l-1-.78Z" style="fill:none;clip-rule:evenodd"/></clipPath><clipPath id="4f6a0dea-d1d6-403e-b8c4-ef6f475230bd"><path d="M79.21,88a9.59,9.59,0,0,1,1,.21V82.32l-1,.78Z" style="fill:none;clip-rule:evenodd"/></clipPath><clipPath id="fb7224d9-fff4-4fb6-b4c7-ecff749d1500"><path d="M73.4,86.6V77.27h.68V87a7.24,7.24,0,0,0,1,.45V77.27h.68V87.69a8.6,8.6,0,0,0,1,.18V77.27h.68V87.92l.43,0,.59,0V83.61l-.6.45,5.84-8.16h0l-2.1-3.09h-7.5l9.59,3.1-3.5,1.28L79,76.25H73.14a10.12,10.12,0,0,1-.39,1c-.11.26-.24.52-.37.79v7.6A5.25,5.25,0,0,0,73.4,86.6Zm5.14-9.33h.68v3l-.68,2Z" style="fill:none;clip-rule:evenodd"/></clipPath><clipPath id="a528b718-908b-4abc-b125-c2b078064612"><path d="M89.54,75.58h4.73a8,8,0,0,1-.19-1H91Z" style="fill:none;clip-rule:evenodd"/></clipPath><clipPath id="6c2760f3-daf1-46cf-a236-1b1de63bbbf1"><path d="M94.09,72.85h-.72l-1.44,1H94a5.26,5.26,0,0,1,0-.72c0-.1,0-.21,0-.32" style="fill:none;clip-rule:evenodd"/></clipPath><clipPath id="97e05bd0-5468-4bb9-a548-b36ea17086e4"><path d="M67.39,53.38a8.78,8.78,0,0,0,5.11.77,4,4,0,0,0,1.45-.6l.19-.14.08-.07a3.57,3.57,0,0,0,1.15-3,.07.07,0,0,1,.06-.07c.08,0,.19.35.19.79a4.75,4.75,0,0,1-.33,1.62c0,.08,0,.16,0,.25a1.05,1.05,0,0,0,.21.52,1.92,1.92,0,0,0,1.94.25s.08,0,.08,0a1.47,1.47,0,0,1-1.32.58,2.11,2.11,0,0,1-.52-.05,3.59,3.59,0,0,0,3.18,1.28s.08,0,.08.05-.34.2-.79.2a4.55,4.55,0,0,1-2-.45,5.58,5.58,0,0,0,3.71,1.78c.05.22-1.46,0-1.88-.1.89,3.48,2.75,3.08,2.78,3.33a1.08,1.08,0,0,0-.55,1.6,10.32,10.32,0,0,1,7.89.05.92.92,0,0,0,.12-.91c-.3-.87-3-1.55-5.49-.82a1.71,1.71,0,0,0-.33.18h0s0,0,0-.07h0a2.36,2.36,0,0,1,.33-.21A6.14,6.14,0,0,1,87.4,60h0a1.29,1.29,0,0,0,1.69-1.52,1.27,1.27,0,0,0,1.44-1.23,3.13,3.13,0,0,1-.41.2h0a.89.89,0,0,1-.59.12.09.09,0,0,1,0,0h0l.34-.17c1.47-.85,2.18-2.5,2-3a1.2,1.2,0,0,1-1,.55c-.23,0-.37,0-.38-.07s0,0,0,0a1.05,1.05,0,0,0,.49-.21A3.94,3.94,0,0,0,92.31,53a8,8,0,0,1-1.76-3.25,1.58,1.58,0,0,0-1.25-1.08H89l-.23,0a0,0,0,0,1,0,0c.7-.58,1.47.05,1.92.31.08-1.29.54-1.62.58-1.6s0,.06,0,.06a5.35,5.35,0,0,0,2.25,6,7.05,7.05,0,0,0,7.42-.74h0a4.67,4.67,0,0,1-1.2.19c-.44,0-.79-.1-.79-.18s.05-.07.08-.06a5.23,5.23,0,0,0,.83,0c3.2-.83,3.33-4.77,2.8-5,0,0,0,0-.05,0a5,5,0,0,1-.27.69c-.2.41-.45.66-.52.63a.08.08,0,0,1,0-.1,3.85,3.85,0,0,0,.32-3.38,3.63,3.63,0,0,0-1.24-1.72,6.29,6.29,0,0,0-6.6,0A6,6,0,0,0,92,42.27a6.13,6.13,0,0,1-2.27,3,3.1,3.1,0,0,1-1,.49s-.22,0,0-.22a4.65,4.65,0,0,0,2.58-4v0a5.63,5.63,0,0,0-1.24-3.41c-1.56-1.7-5.76-1.94-7.68-.34a4,4,0,0,0-1,2,2.29,2.29,0,0,1,1.55-1.46c.85-.26,2.48-.08,2.72.91-1.44-1.48-4.06-.39-4.43,2.12v0c0,.16-.13.17-.13.17h0c-.07,0-.17,0-.13-1.13a7,7,0,0,1,.57-2.3c-3.23-.59-7.1,1-7,5.79a3.29,3.29,0,0,0,.9,2c.12.14,0,.19,0,.19s-.49-.22-.73-.55A4.7,4.7,0,0,1,74,43.91a9.43,9.43,0,0,0-4.42-.64,5.82,5.82,0,0,0-3.3,1.88,8,8,0,0,0-.73,1.17,5.15,5.15,0,0,0-.58,2.86,5.26,5.26,0,0,0,2.46,4.21m32-9.8a3,3,0,0,1,1.73,1.76,2.52,2.52,0,0,1,0,2.1s0,0,0,0,0,0,0,0a3.73,3.73,0,0,0-.33-1.91,1.85,1.85,0,0,0-1-1.08,6.55,6.55,0,0,1,.66,1.12,2.13,2.13,0,0,1,.2.88,3.59,3.59,0,0,1-.87,2.39h-.05a0,0,0,0,1,0,0,3.65,3.65,0,0,0,.13-3,2.61,2.61,0,0,0-.14-.28,2.2,2.2,0,0,0-1.87-1.34,3.07,3.07,0,0,1,1.05,1.32c.52,1.19.42,2.55-.23,3.09h0a.07.07,0,0,1,0,0,4.65,4.65,0,0,1,0-.49,3.73,3.73,0,0,0-.06-1.24C98,44.67,96.27,43.93,95,45.17a3.64,3.64,0,0,1,4.37-1.59M86.71,58.42c-.28-.13-.29-.69-.25-.95.1-.69.91-1,1.27-1.37.09,0,0,1.09-1,2.32m-.25-1.93c-.4-.71.66-1.59.9-2.28,1.3-.2-.34,2.09-.9,2.28M89.87,40c.07,1.08-.53,1.4-.64,1.34s-.05-.09,0-.12a2.68,2.68,0,0,0-.37-2.51,4.39,4.39,0,0,0-1.18-.81A2.83,2.83,0,0,1,89.87,40M87,50.47c.94.39-.47,2.27-.58,2.62.22-.1,1-.91,1.28-.66.48.4-1,2.33-1.38,2.46-2.08-2.71.59-3.52.69-4.42m-1.38,4.61c.16,1.28.4,3-.22,4.13-.34-.1-.15-.69-.15-.95a14.89,14.89,0,0,0-.4-4.1,24.26,24.26,0,0,0-2-5,15.14,15.14,0,0,1,2.72,5.92M76.9,48.51a12,12,0,0,0,6.59,4.42c1.07.3,1.58,3.72.72,5.41-1,0-1.1-.68-1.28-1.41.44.35,1,.81,1,0-.37-.32-2.57-.89-2-1.86.36-.52,1.54,1.59,1.88.88.2-1.42-4.23-1.87-4.09-3.09,0-.66,3.49,1.69,4,1.64,0-.75-5.16-2.84-6.71-5.63-.11-.2-.17-.38-.13-.4s0,0,0,0M69,52.42c1.19-.29,2.22-.92,1.92-2a.85.85,0,0,0-.81-.61,1.62,1.62,0,0,0-1.44.92,1.54,1.54,0,0,1,1.78-1.59,1.76,1.76,0,0,1,1.41,1.17c.33,1.64-1.17,2.32-2.86,2.16m.14-7.77a3.67,3.67,0,0,1,3.71.79c2.38,2.35,1.07,5.64.35,5.81.5-1.37.76-3.43-1.4-4-1.68-.42-3.19.83-4,1.53a3.59,3.59,0,0,1,4.41-2.2c-.46-1.29-2.12-1.83-4-.77a6,6,0,0,0-1.13.83,3.42,3.42,0,0,1,2.07-2" style="fill:none;clip-rule:evenodd"/></clipPath><clipPath id="a3604cc6-71da-4595-b757-e48a5d7de098"><path d="M260.63,291.8a6.28,6.28,0,0,1-.26-1.92v-3.16h2.77l0,14.7h-2.26l-.32-1.16a3.37,3.37,0,0,1-2.77,1.37c-2.37,0-4.27-1.71-4.26-5.44,0-3.45,2-5.43,4.51-5.43A3.38,3.38,0,0,1,260.63,291.8Zm-.26,1.58a3.73,3.73,0,0,0-1.9-.51c-1.32,0-2.15.89-2.16,3.32s.79,3.43,2.11,3.43a2.73,2.73,0,0,0,1.94-.89Z" style="fill:none;clip-rule:evenodd"/></clipPath><clipPath id="9c9b6114-3e53-4e07-8a18-28e49dd53c37"><path d="M268.07,297a2.37,2.37,0,0,0,2.68,2.58,7.1,7.1,0,0,0,3.05-.89l.53,2a8.43,8.43,0,0,1-3.92,1c-3.26,0-5.15-2-5.15-5.46,0-3.22,1.54-5.41,4.88-5.41,3.15,0,4.41,2.35,4.41,5V297Zm1.94-4.13c-1.39,0-1.94,1.26-1.94,2.49h3.82C271.88,294,271.46,292.84,270,292.84Z" style="fill:none;clip-rule:evenodd"/></clipPath><clipPath id="c4717bc5-8fb8-4ef3-8187-223adec2dc4b"><path d="M287.22,301.68c-4,0-6.2-2.73-6.19-7.53,0-4.42,2.14-7.4,6.21-7.39a9,9,0,0,1,4.9,1.22l-1.07,2.21a6.21,6.21,0,0,0-3.53-1c-2.39,0-3.58,1.77-3.59,4.92,0,3.33,1.19,5.1,3.53,5.1a6.67,6.67,0,0,0,3.79-1.32l.89,2.24a8.52,8.52,0,0,1-4.94,1.53" style="fill:none;clip-rule:evenodd"/></clipPath><clipPath id="4d351086-51e6-402c-a93b-0d767cd02359"><path d="M294.09,301.47l0-14.7h2.79v3.86a6.29,6.29,0,0,1-.28,1.62,3.6,3.6,0,0,1,3-1.42c3,0,3.86,1.56,3.85,4.21v6.45h-2.83v-6.2a1.1,1.1,0,0,0-.15-.64,1.57,1.57,0,0,0-1.72-1.68,3.4,3.4,0,0,0-1.84.64v7.88Z" style="fill:none;clip-rule:evenodd"/></clipPath><clipPath id="3eb9a556-f3a2-4e01-9dbc-69d808e02c5f"><path d="M306.53,301.48v-8.39l-1.19-.25V291h4v10.44Zm-.07-14.7h2.81v2.53h-2.81Z" style="fill:none;clip-rule:evenodd"/></clipPath><clipPath id="d1e1b881-9f66-43c9-8efd-42233ede55c2"><path d="M311.85,298.72V286.79h2.75v11.78c0,.88.53,1,1.68,1v2a8.78,8.78,0,0,1-1.54.17c-2.13,0-2.89-1.14-2.89-3" style="fill:none;clip-rule:evenodd"/></clipPath><clipPath id="d103f411-6736-4f8a-9386-4a1260e78cf7"><path d="M320.5,297a2.37,2.37,0,0,0,2.68,2.58,7.1,7.1,0,0,0,3-.89l.53,2a8.42,8.42,0,0,1-3.92,1c-3.26,0-5.16-2-5.15-5.46,0-3.22,1.54-5.41,4.89-5.41,3.16,0,4.41,2.35,4.41,5V297Zm1.94-4.13c-1.38,0-1.94,1.26-1.94,2.49h3.81C324.32,294,323.89,292.9,322.44,292.89Z" style="fill:none;clip-rule:evenodd"/></clipPath><clipPath id="62596c16-2b14-4e20-82b5-fbbffaa5b8c4"><path d="M135.44,101.9c-.77-.93-2.79-.47-2.79-.47a3,3,0,0,0-1.9-4.1,2.6,2.6,0,0,0-2.23.23l0,0,0,0a1.32,1.32,0,0,0-.21.18,1.55,1.55,0,0,0,1.11,2.63,1.53,1.53,0,0,0,.89-.28,1.59,1.59,0,0,0,.62-.92,1.56,1.56,0,0,1,.57.73c.87,2.76-2.24,3.74-2.24,3.74-6.84,2-11-1.49-11-1.49l1.19-.65a2.68,2.68,0,0,1,1.09-.23c0,.06,0,.13,0,.2a1.35,1.35,0,0,0,2.71,0,1.39,1.39,0,0,0-.18-.67h0l-.1-.15c-.81-1.21-3.56-.41-3.56-.41a5,5,0,0,0,.1-3.9c-.51-.84-.42-1.15-.42-1.15,0-.81-.19-.88-.19-.88a1,1,0,0,0-1.16-.27c-1.11.24-1.36-.22-1.36-.22-.91-.64-1.32-.25-1.32-.25-.4.27.15,1,.15,1-1,0-1.28,1.25-1.28,1.25-.41,2.08,1.31,2.25,1.31,2.25,1.23.07,1.25-.94,1.25-.94.16-1-1.22-1-1.22-1,.24-.57.65-.56.65-.56,1.44-.35,2.09,1.27,2.09,1.27a3.1,3.1,0,0,1-.33,3.53.37.37,0,0,1-.47.1,12.87,12.87,0,0,1-2-1.21l-.11-.07h-.48a4.59,4.59,0,0,0-1.49.32c.55.59,2.36,2.11,2.36,2.11-1.36,1.05-2.13.33-2.13.33a2.85,2.85,0,0,1-.4-2.36l-.14.06c-.62.28-1.26.53-1.9.78.65,1.11,1.66,2.79,1.66,2.79-1.57.57-1.9-1.53-2-2.67l-.92.35a2,2,0,0,1,.08.45,6.34,6.34,0,0,0,1.15,2.55,2,2,0,0,0-1.81.48,2,2,0,0,0-.65,1.74.79.79,0,1,0,.83-.84c.35-.86,1.18-.17,1.18-.17,1.2,1.09-.69,2.31-.69,2.31-1.35.9-2.64-.83-2.64-.83a10.1,10.1,0,0,0,1.64-5.38l-1.48.48a3.42,3.42,0,0,1-.91,3.58c-.46-.32-.52-1.54-.52-1.54-.14-.53-.3-1-.47-1.49l-1.29.34a19.44,19.44,0,0,1,.68,3.52,2,2,0,0,1-1,.38c-1.11.1-.53-.52-.53-.52.55-.47.44-.81.44-.81-.33-.76-1.55-.05-1.55-.05-1.63.9-1.14,1.86-1.14,1.86.2.59,1.84,1.16,1.84,1.16a4.12,4.12,0,0,1-2.8.35,1.13,1.13,0,0,0-.84-1l-.1,0a1,1,0,0,0-1.06.43,1.35,1.35,0,0,0-.2.35l-1-.21c-.7-.11-1.09-2.1-1.3-3.86l-.84.1c.26,1.87.61,3.53.61,3.53a8.49,8.49,0,0,1-1.81-1,4.13,4.13,0,0,0-3.14-.74,2,2,0,1,0,2.31,2,14.7,14.7,0,0,1,1.33.73A7.51,7.51,0,0,0,97.84,110a1.42,1.42,0,0,0,1.4,1.15,1.39,1.39,0,0,0,1.24-.75c3.77-.12,5.15-1.78,5.15-1.78.4-.52.49-.22.49-.22,1.38,2,4,.79,4,.79.52-.25.63.08.63.08a1,1,0,0,0,1.37.41c1.06-.55.43-1.21.43-1.21-.35-.37.08-.35.08-.35,1.25.19,1.5-.54,1.5-.54.26-.57-.64-1.07-.64-1.07-.25-.32.24-.57.24-.57.75-.43.63-.86.63-.86.94,0,.87-.41.87-.41,0-.38-1.16-.36-1.16-.36-.92-.1-.73-.57-.73-.57a18.3,18.3,0,0,0,3.45-.65,17.27,17.27,0,0,0,7.54,3.07,3,3,0,0,1-.09,1.15h-.08a.71.71,0,0,0-.72.71.72.72,0,0,0,.71.71,1.22,1.22,0,0,0,.21,0c1.45-.38,1.56-2.51,1.56-2.51a8.92,8.92,0,0,0,6.91-2.7c.41-.34.61-.24.69-.13h0a1.16,1.16,0,0,0,.91.43,1.18,1.18,0,0,0,1-.5,1.63,1.63,0,0,0,.21-.66v0h0a1.15,1.15,0,0,0-.23-.77" style="fill:none;clip-rule:evenodd"/></clipPath><clipPath id="64548be9-91ae-4beb-b725-ee627fc9d222"><path d="M78,106a4.11,4.11,0,0,0-3.13.74,8.51,8.51,0,0,1-1.83,1s.35-1.66.62-3.52l-.83-.1c-.22,1.75-.62,3.75-1.32,3.85l-1,.21a1.23,1.23,0,0,0-.19-.35,1,1,0,0,0-1.06-.43l-.11,0a1.14,1.14,0,0,0-.84,1,4.13,4.13,0,0,1-2.8-.36s1.65-.57,1.84-1.16c0,0,.49-1-1.13-1.86,0,0-1.21-.71-1.55.05,0,0-.12.34.43.81,0,0,.59.63-.53.52a2,2,0,0,1-1-.38,18.94,18.94,0,0,1,.69-3.52l-1.29-.34c-.17.46-.33,1-.47,1.49,0,0-.06,1.22-.52,1.53a3.4,3.4,0,0,1-.91-3.58c-.5-.15-1-.32-1.48-.48a10.15,10.15,0,0,0,1.64,5.38s-1.3,1.73-2.64.82c0,0-1.9-1.22-.68-2.31,0,0,.82-.69,1.18.17a.8.8,0,1,0,.82.84,2,2,0,0,0-.65-1.74,2,2,0,0,0-1.8-.49,6.28,6.28,0,0,0,1.15-2.55,2.06,2.06,0,0,1,.08-.45l-.91-.35c-.07,1.14-.42,3.24-2,2.66l1.66-2.79c-.63-.25-1.25-.5-1.87-.77l-.17-.07a2.86,2.86,0,0,1-.4,2.36s-.79.73-2.14-.33c0,0,1.8-1.51,2.35-2.1a4.51,4.51,0,0,0-1.48-.33h-.5l-.1.07a13.2,13.2,0,0,1-2,1.2.36.36,0,0,1-.47-.1,3.1,3.1,0,0,1-.33-3.53s.67-1.61,2.1-1.26c0,0,.41,0,.65.56,0,0-1.37.05-1.22,1,0,0,0,1,1.26.95,0,0,1.72-.17,1.32-2.25,0,0-.29-1.25-1.27-1.25,0,0,.55-.69.15-1,0,0-.41-.39-1.33.25,0,0-.24.45-1.36.21a1,1,0,0,0-1.15.26s-.19.08-.19.88c0,0,.08.31-.42,1.15a4.08,4.08,0,0,0-.33,1.47,2.61,2.61,0,0,0-1.14-.53c-.56-.59-.6-3.33-1.19-4.67-.13-.31.26-1.71.28-3.19a8,8,0,0,0,6.14-5.45c.65-2.28-.21-4.61-.31-5.24,0-.07.07-.07.1,0a7.56,7.56,0,0,1,.46,1.08,9.86,9.86,0,0,0,4.33-.52l.15-.05.2-.09.49-.23.17-.09a12.17,12.17,0,0,0,5-5.25,3.9,3.9,0,0,1-2.06-1.12c1.07.09,1.87.54,2.93.54,1.57,0,2.62-.86,4.35-.65,0,.09.23.82,1.35,1.28a7.75,7.75,0,0,0,.39,2.61,1.51,1.51,0,0,0,.15.32s-1.3,1-1,1.85c.09.23.18.46.26.65a.38.38,0,0,1-.18,0c-.19-.09-.43.25-.72.7-.15.24-.83,1.65-.32,1.78l.32,0a6.75,6.75,0,0,0,.95,5.16v0c.08.13,1.95,3.19,7,3.2h.07c.5,0,4.93.09,6.5,3,.09.17.44.67.82.66s.74-.49.83-.66c1.58-2.95,6-3,6.51-3h.07c5,0,6.92-3.06,7-3.18v0a6.16,6.16,0,0,0,1-2.73c1-.54.94-2.77.95-3.17a3.64,3.64,0,0,0,2.09,1.8c-.2,1.05-.13,2.78,1,3,.34,0,.64-.47.55-.86,1,2.78.16,4.5.89,4.7.94,0,1-1.65,1.07-1.69a3,3,0,0,1,.4,1.4c0,.86-.12,1.72.27,1.87,1.3.22.68-3.59,1.69-3.2-.25,1.69,0,2.63.69,2.91,0,.76-.11,1.51-.43,1.52-1.87.42-3.57-1.06-5.2-.62l-.17-.11A6.52,6.52,0,0,0,98.29,91c-.85-.78-1.17.39-1.41.25-1.57-.89-2.43.62-2.85.69s-1-.79-1.76,1c-.33.78-2.07,1.12-2.22,1.15a.73.73,0,0,1-.86-.4,3.51,3.51,0,0,0-.21-.51,1.25,1.25,0,0,0-.25-.35.85.85,0,0,0-.71-.23,1,1,0,0,0-.73,1.58c.05,0,.21-.17.44-.16a.71.71,0,0,1,.7.7h0c0,.8-1.17,1.59-1.17,1.59-.71.63-1.59-.25-1.59-.25a2,2,0,0,0-.83-.44,1,1,0,0,0-.75.57,1,1,0,0,0-.75-.57,2,2,0,0,0-.84.44s-.88.87-1.59.24c0,0-1.22-.8-1.16-1.6h0a.72.72,0,0,1,.7-.7c.23,0,.39.21.44.17a1,1,0,0,0,.21-.6,1,1,0,0,0-.93-1,.85.85,0,0,0-.7.23,1.13,1.13,0,0,0-.26.35,3.49,3.49,0,0,0-.21.51s-.16.49-.86.4c-.15,0-1.89-.38-2.21-1.16-.73-1.77-1.4-.93-1.76-1s-1.27-1.58-2.84-.69c-.25.13-.57-1-1.42-.25a6.77,6.77,0,0,0-4,.08c-.14-.28-.9-.43-1.11-.51a6.26,6.26,0,0,1-1.23-.68A8.46,8.46,0,0,0,61,89.61a3.11,3.11,0,0,1-1-.36A9.51,9.51,0,0,1,57.27,87c-.11-.14-.35-.49-.4-.54a4,4,0,0,1-.69-1.31c-.34-1.22.19-2.53.37-3.77.08-.59.1-.83.13-1.18A7.25,7.25,0,0,1,52.92,80a9.37,9.37,0,0,1,.31,3.78,2.71,2.71,0,0,1,1,1.54c.07.63-.22,1.28.15,1.78a10.29,10.29,0,0,0,2.46,1.93c.25.16,3.62,2.77,4.06,2.87s.78-.26,1.2-.19a1,1,0,0,1,.36.23,3.77,3.77,0,0,0,.71.58c-1,.63-2.31,1.41-3.25,1.87,0,0-1.52.83-.8.85,0,0,1.06,0,1.16.19,0,0-.45.18-1.14.47q2.39.86,4.88,1.54a11.85,11.85,0,0,1,3.74-2.65s1.9.08,2.53-1.31c.19-.43,1,.8,2.67-.12.15-.09.4.36.88.49.15,0-.69.16-.52.9,0,.09-1.37,0-1.82.78-.14.22-3.09.16-5.7,2.37.49.12,1,.24,1.48.34a4.72,4.72,0,0,1,3.13-1,2.79,2.79,0,0,1,2.28,2q1.51.21,3,.37h0c.28-.12,1.69-.81,1.06-1.65,0,0-.34-.42-.92.13,0,0-.37.34-.53-.19a1.5,1.5,0,0,0-.2-.55s-.28-.41.28-.22a2.65,2.65,0,0,0,1,.09,1,1,0,0,0,.89-.95,1,1,0,0,0-.9-1s-.11,0-.11.08a.35.35,0,0,1,.13.27c0,.19-.16.39-.35.35-.58-.16-.41-1.28.38-1.32a2,2,0,0,1,1.28.74s1.34,2,2.57,2.43c.09,0-.22.72.56,1,.09,0,0,.63.78.57A3.3,3.3,0,0,1,82,100l2.12,0,2.12,0a3.29,3.29,0,0,1,.37-.69c.8.06.69-.54.78-.57.79-.23.48-.93.57-1,1.23-.42,2.57-2.43,2.57-2.43a2,2,0,0,1,1.28-.74c.79,0,1,1.16.38,1.32-.19,0-.35-.15-.35-.35a.36.36,0,0,1,.13-.27s-.1-.07-.12-.07a1,1,0,0,0-.9,1,1,1,0,0,0,.89,1,2.69,2.69,0,0,0,1-.09c.55-.19.27.22.27.22a1.52,1.52,0,0,0-.19.55c-.15.53-.53.19-.53.19-.59-.56-.92-.14-.92-.14-.63.83.77,1.53,1.05,1.65h0q1.54-.16,3-.37a2.78,2.78,0,0,1,2.28-2,4.7,4.7,0,0,1,3.13,1l1.49-.34c-2.62-2.22-5.57-2.16-5.7-2.39-.45-.77-1.84-.69-1.82-.78.17-.74-.66-.86-.51-.9.47-.13.73-.58.89-.49,1.67.92,2.47-.3,2.66.12.62,1.39,2.52,1.31,2.52,1.31a11.85,11.85,0,0,1,3.73,2.66c1.52-.41,3-.88,4.47-1.39a.12.12,0,0,0,0-.05,1.91,1.91,0,0,0-.09-.25l0-.08h0a3.31,3.31,0,0,0-.21-.39h0a11,11,0,0,0-1.12-1.49h0s-.06-.06-.05-.07,1.09-1.67,1.78-.53c.06.14-.06.54-.75.54a9.16,9.16,0,0,1,1,2.12h0c.34-.13.57-.2.7-.25l.19,0c-.43-.85-1.07-1.32-.89-1.61.16-.07.77.23,1.11-.27a6.36,6.36,0,0,0,.25-1.39,2.68,2.68,0,0,0,1.09.26c1.13,0,1.56-1.73,1.25-2.3.17-.1.83-.65.89-.5.35.8,2.19,1.67,2-.14.29.88.51,1.89,1.53,1.81.74-.18.27-1.45.53-1.45.21.37.53,1.82,1.63,1.47a.86.86,0,0,0,.61-.86c.06-1.39-3.94-8.72-4.29-11.89l-.19-.07c-.39-.2-.43-.83-.36-1.29a.46.46,0,0,1,0-.09c-.48-.09-1.24-.51-1.36-1.85s.53-1.8.64-1.8.06.08,0,.12c-.3.94-.52,2.07.16,2.7a1.32,1.32,0,0,0,.7.27,1.17,1.17,0,0,1,.55-.6s0,.07,0,.1a1.88,1.88,0,0,0,0,1.95,1.15,1.15,0,0,0,.73.32c1.11-.4,1.68-2.53,1.93-3.19.74.16-1.2,4.45.29,5.37.62-.06,1-.77,1.19-1.39.48,1.26-1.58,3.93-.1,4.53.91.23,1.24-2.1,1.26-1.81.26,3.56-1.61,5.28-.42,5.83,1,.47,1.36-2.43,1.35-2.06,0,3.79-1.94,4.85-1.13,5.51.93.38,1.61-1.91,1.6-1.37-.09,3.4-1.79,4.3-1,5.37.87,1.23,2.51-2.21,2.59-1.57s-1.85,4.73-.74,5c1,.23,1.27-1.11,1.36-1.4a72.22,72.22,0,0,0,2.86-22.49,61,61,0,0,0-1.89-13.59c-.73-2.53-2.16-7.7-5.5-8.42a2.39,2.39,0,0,0-2.74,2.44c0,1.13.81,1.68.47,2.8a9.53,9.53,0,0,0-1,2.34c-.2.81.52,1.14.29,2-1-.15-1.55.69-3,.38a4.8,4.8,0,0,1-2.76.27s0,0,.07,0c1.5,0,2.86-.53,3.14-1.19a3.1,3.1,0,0,0-.63-3.06,7.8,7.8,0,0,1-4.27.73c-2.46-.15-3.07.31-3.42,1.8a1,1,0,0,1-.12-.71c.1-.82.91-1.32,1.91-1.42a1.8,1.8,0,0,0,.24-1,4.2,4.2,0,0,0-1.23,0c-1.17.18-2.79.84-3.2,2a2.44,2.44,0,0,0-.08.61,3,3,0,0,0,.08.52,2.61,2.61,0,0,1,.13.37c.38.8,1.29,1.27,3.27,1.36,0,0,.08,0,.07.07s-.4.16-.9.1a4,4,0,0,1-2.65-1l-.15.17a3.74,3.74,0,0,1-2.22,1,3,3,0,0,1-2.23-1c-1.19-1.59.35-4.35.33-5.38-.06-2.74-3.8-1.52-5.17-.8a13.39,13.39,0,0,0-4,3.59,12,12,0,0,0-1.58,2.38,8.52,8.52,0,0,0,3,.87h.06l.38,0a3.86,3.86,0,0,0,2.42-.75,1.35,1.35,0,0,1,.86-.32,1.37,1.37,0,0,1,.94.39c.19.16,2.54,2,3.32,2.57a.9.9,0,0,1,.37.6,1,1,0,0,1-.29.82A13.42,13.42,0,0,0,97.8,70c-.11.28-.22.56-.3.86-.29,1-.49,2.6.91,3.1,0,0,1.54.4,1.42-2.16,0,0,.25,1.64,1.45,1.59.51,0,1-.52.89-1.63h0a13.9,13.9,0,0,1,.12-3.6c0-.05,0-.09,0-.14a2.28,2.28,0,0,1,.12.66c.07.67-.4,6.6,4.46,10.63a9.13,9.13,0,0,1-3.47-3.53A3.13,3.13,0,0,0,102,79.57a3.42,3.42,0,0,0,1.2,1.7.19.19,0,0,1,.05.1c0,.1-.26.3-.7-.15h0l-.2-.24a4.17,4.17,0,0,1-.39-.74c-.56-.48-1.07-1-1.58-1.54h0c-.39-.8-.17-3.17-2.49-3.18h-.22a2.07,2.07,0,0,0-.39.05h-.09a8.75,8.75,0,0,1-.41-3.6,12.87,12.87,0,0,1,2.85-5.77.52.52,0,0,0,.17-.39.32.32,0,0,0-.12-.21h0c-.8-.53-3.1-2.38-3.36-2.59l0,0a.82.82,0,0,0-.56-.25.84.84,0,0,0-.5.19,4.42,4.42,0,0,1-2.78.89,2.56,2.56,0,0,1-.44,0h0a9.45,9.45,0,0,1-3.35-1,12,12,0,0,0-4.4-1,12.06,12.06,0,0,0-4.4,1,9.6,9.6,0,0,1-3.35,1h0a3.48,3.48,0,0,1-.46,0,4.41,4.41,0,0,1-2.76-.89v0a.87.87,0,0,0-.51-.18.81.81,0,0,0-.56.25l0,0c-.26.21-2.58,2.06-3.37,2.59h0a.35.35,0,0,0-.13.21.58.58,0,0,0,.16.39,12.89,12.89,0,0,1,2.84,5.77,6.47,6.47,0,0,1,0,1.3c-.2-.63-.38-1.19-.53-1.59a2.54,2.54,0,0,0-.34-.87h0A3.57,3.57,0,0,0,69.4,69.6,12,12,0,0,1,68.13,69a4.52,4.52,0,0,1-1.66-1.67,5.27,5.27,0,0,0-.82-2.69c.22-.11,1.16.57,1.23,2.23a9.64,9.64,0,0,0,2.06-4.69c.83-1.14,3.17-.69,4.06-.54a2.06,2.06,0,0,1,.79.25c.25.18.31.57.66.72a2.66,2.66,0,0,0,1.24,0,3,3,0,0,1,.33.6l.3,0h.06a9.19,9.19,0,0,0,3.15-.93l0,0,.18-.08a3,3,0,0,0-2-.91c-.87-.14-1.35-.88-2.17-1.06a3.34,3.34,0,0,0-1.19-.07c-1.85.23-3.14-.46-4.86-.59s-1.69,1-2.28,1.92a6.27,6.27,0,0,1-.76,1c-.45.44-1,.45-1.52.87l-.08,0a6.12,6.12,0,0,0-.76-2.11l0,0L64,61A5.89,5.89,0,0,0,60.12,58a2.27,2.27,0,0,1-.69-.37.34.34,0,0,1,0-.58c.57-.32,1.54-.21,2.18-.5,1.57-.73,1-2.06.4-2.18a13.35,13.35,0,0,1-2.51-.69c-.38-.24-.62-.9-1.24-1.12A2.74,2.74,0,0,0,57,52.5c-.38,0-.63.33-.91.29A2.32,2.32,0,0,1,57.84,52c-.69-.19-.45-1.31-1.09-1.56a2,2,0,0,0-1.12.3c0-.35-.24-1.54-.9-1.93s-.72.17-.69.48.81.61.94,1.82l-.41.28a2.42,2.42,0,0,0-.85-1.58c-.52-.31-.71.16-.68.47s.71.56.91,1.6c-.18.14-.35.3-.52.45-1.06-.29-1.3-1-1.56-1.09s-.79.09-.54.64a2.47,2.47,0,0,0,1.53,1c-.12.12-.23.25-.33.37C51.28,53,51,52.15,50.76,52.1s-.8.09-.55.64,1.55,1,1.86,1.1a1.32,1.32,0,0,0-.26.87c-1-.11-2.65.4-2.33,1.52.32.23,1.45-.69,2.48-.17a3.73,3.73,0,0,0,2,1.3c.38.3.44.85.61,1.35a11.14,11.14,0,0,0,1.48,2.46c.58.9,1.19,1.84,1.81,2.61a1.51,1.51,0,0,1,.11.76c-.7,1.12-2.8,2.42-3.66,3.23s-9.09,7.06-10.13,9.78a5.81,5.81,0,0,0-.33,2.21,1.66,1.66,0,0,1-1.63-.18c-.54-.64.57-1.25.29-2.11a.71.71,0,0,0-.9-.33c-.61.22-.73,1.44-.44,2.18.09.21.41.48.17.64s-.5-.19-.5-.62a.7.7,0,0,0-.25.71c.16.6.89.61,1.12.77,0,.26-.43.39-.71.14-.45.67.06.92.16.94.5.09,1-.36,1.34-.4.14.34-.09.45-.61.59.82,1,1.56-.71,2.47-.51.29.06,2.86,2.48,2.42,4.32a1.8,1.8,0,0,1-.18.43c-.58.71-1.52,1.25-2.18,1.92-1.35.86,1.28,6.27,1.07,9-.17,1.08.93.88,1.55,2.65a1.93,1.93,0,0,0-1.65.67l-.1.15h0a1.31,1.31,0,0,0-.18.67,1.35,1.35,0,0,0,2.71,0,1.68,1.68,0,0,0,0-.2,2.72,2.72,0,0,1,1.09.24l1.19.65s-4.2,3.52-11,1.46c0,0-3.11-1-2.23-3.75a1.59,1.59,0,0,1,.57-.73,1.55,1.55,0,0,0,.62.92,1.52,1.52,0,0,0,.89.28,1.55,1.55,0,0,0,1.12-2.63,2.17,2.17,0,0,0-.21-.18s0,0,0,0h0a2.61,2.61,0,0,0-2.24-.24,3,3,0,0,0-1.9,4.1s-2-.46-2.78.46a1.12,1.12,0,0,0-.24.77h0v0a1.67,1.67,0,0,0,.21.65,1.18,1.18,0,0,0,1.88.07h0c.08-.11.28-.22.69.13a9,9,0,0,0,6.91,2.71s.11,2.12,1.55,2.51l.21,0a.72.72,0,0,0,0-1.43H44a3.16,3.16,0,0,1-.09-1.15,17.27,17.27,0,0,0,7.55-3.05,18.5,18.5,0,0,0,3.45.66s.19.47-.73.57c0,0-1.18,0-1.16.36,0,0-.08.42.86.41,0,0-.12.43.63.86,0,0,.48.25.23.57,0,0-.9.49-.64,1.07,0,0,.25.72,1.5.54,0,0,.43,0,.08.35,0,0-.63.66.43,1.21a1,1,0,0,0,1.37-.4s.12-.33.63-.08c0,0,2.68,1.22,4.06-.78,0,0,.09-.3.49.22,0,0,1.38,1.67,5.14,1.8a1.42,1.42,0,0,0,2.65-.4,7.56,7.56,0,0,0,3.88-1.31,14.58,14.58,0,0,1,1.33-.72A2,2,0,1,0,78,106M65.43,91.21a.22.22,0,0,1,0,.11s0,0,0,0l-.06,0a1.05,1.05,0,0,1-.39.07,4,4,0,0,1-.73-.08.38.38,0,0,0,.21.39h0l.19.11.31.15c0,.25-.42.4-.62.4-.43,0-.73-.48-.87-.77l-.12-.09-.1-.07a3.7,3.7,0,0,0-1.5-.31c.1-1,2.83-.31,2.9-.29a3.15,3.15,0,0,1,.87.22s0,0,0,.06m41.3,2.42h0a.57.57,0,0,0,0,.15,4.87,4.87,0,0,1-1.63-.78,1.35,1.35,0,0,0-1-.23h0c-.44.19-.64.65-.89.87a1.19,1.19,0,0,1-.07-.25v0a1.25,1.25,0,0,1,0-.21v-.08a1.28,1.28,0,0,1,0-.17l0-.08a.64.64,0,0,1,.1-.2l.07-.1.07-.07a.52.52,0,0,1,.14-.09l.06,0a1.58,1.58,0,0,1,.84-.15h0a2,2,0,0,1,1.15.45,2.88,2.88,0,0,0,1.57.45,2.89,2.89,0,0,0-.32.58M118,59.94c.2-.82,1.34-1.82,1.34-2.27s-.55-1.08-.61-1.75A1.6,1.6,0,0,1,120.44,54,3,3,0,0,1,122,55.27c.17.19.4.36.54.53a19.15,19.15,0,0,1,2.76,6.32c1.73,6.33,2.53,16.27.45,27.26a20.16,20.16,0,0,1-.73,3.15c2-18.14.93-22.64.59-22.57S125,72.2,124,71.55s2.27-4.63,1-6.84c-.29-.35-.57.5-1.08.34-1.34-.44.73-3.89.34-4.26s-1.29-.47-1.32-1.75c0-.58.38-1.05-.08-1.54s-.31.34-.7.16c-.62-.66-.05-1.42-.36-1.91-.18-.13-.61.41-.94.14s.2-.88-.25-1.1a1.53,1.53,0,0,0-1.29,1.69c.09.5.68.84.64,1.4s-.63,1.07-.74,1.32c-.87,2,.59,2.36.39,3.05-.1.33-.72.52-1.11.36s-.64-2-.47-2.69m-2.62,3.87a7,7,0,0,0,.9-.17c.28-.1.49-.37.78-.37.11.12-.12.25-.22.33a4.56,4.56,0,0,1-1.51.74,2.1,2.1,0,0,1-2.23-.68c.7-.22,1.31.26,2.26.14M98.72,57a.16.16,0,0,1-.17,0,4,4,0,0,0-3.27.18,8.37,8.37,0,0,0-1.5,1.23,5,5,0,0,1,3.54-2.26c1.36,0,1.51.71,1.41.82m4.92,6.33a2.58,2.58,0,0,1-1.48,1.38,3,3,0,0,1-2.63-.91,8.36,8.36,0,0,0,2.15.45,3.6,3.6,0,0,0,1.92-1c0-.07.1,0,0,.07m2,20.38a3.72,3.72,0,0,0,3.3-.4.15.15,0,0,1,.17,0c.11.11,0,.9-1.38,1.18a4.28,4.28,0,0,1-3.67-1.88,7.23,7.23,0,0,0,1.57,1.1M99.78,79.5l0,.06a.29.29,0,0,0,0,.06s0,.06,0,.09a.41.41,0,0,1,0,.09s0,.09,0,.15V80c0,.21,0,.47,0,.76,0,0,0,.09,0,.14h0a4.65,4.65,0,0,0,0,.56,2.25,2.25,0,0,1-.28,1.37.9.9,0,0,1-.11.15l-.12.11v0l-.12.06h0l-.12,0h-.22l-.12,0-.07,0-.13-.07-.08,0-.16-.12-.06-.05s-.29-.5.15-.55a1.25,1.25,0,0,0,.18.17l0,0,.11.06h0a.2.2,0,0,0,.11,0h0a.14.14,0,0,0,.07-.06l0,0a.41.41,0,0,0,0-.09.2.2,0,0,1,0,0,.75.75,0,0,0,0-.16.26.26,0,0,0,0-.07l0-.14a.54.54,0,0,1,0-.11.84.84,0,0,1,0-.13,7.38,7.38,0,0,1,.24-2.19.24.24,0,0,1,.07-.08l0,0a.16.16,0,0,1,.08,0h0a.22.22,0,0,1,.12,0l0,0m-2.66-3.15h0a2,2,0,0,1,.68-.28,1.89,1.89,0,0,1,.38,0h0a1.43,1.43,0,0,1,.4.05,2,2,0,0,1,.47,1,3.22,3.22,0,0,0,.5,1.12c.25.25.15.74-.47.66h0A1.75,1.75,0,0,1,98,76.71a1.45,1.45,0,0,0-.47,0h0a1,1,0,0,0-.23.06l-.07,0-.12.07-.1.06c-.15.13-.22.37-.44.38a1.2,1.2,0,0,1,.57-.94M71.59,78.6c1.8-3.1,1.62-5.24,1.57-5.63a10.38,10.38,0,0,0-2.39-6.32.86.86,0,0,1-.25-.69.71.71,0,0,1,.36-.53c.49-.33,1.53-1,2-1.26l.2-.13a.39.39,0,0,1,.16-.05c.14,0,.25.09.44.24a4,4,0,0,0,2.61,1,5.27,5.27,0,0,0,.75-.06A8.52,8.52,0,0,0,79,64.4c.37-.2.82-.39,1-.49l.1,0a9.86,9.86,0,0,1,8.08,0l.11,0c.2.08.67.29,1,.49a8.42,8.42,0,0,0,1.92.72,4.79,4.79,0,0,0,.76.06,3.93,3.93,0,0,0,2.6-.95c.2-.15.31-.24.45-.24a.34.34,0,0,1,.19.08l.21.13c.47.29,1.46.93,2,1.27a.68.68,0,0,1,.31.49.85.85,0,0,1-.25.69,10.42,10.42,0,0,0-2.4,6.27c-.05.44-.24,2.58,1.56,5.68.09.16,2,3.75-.13,6.89-.17.29-1.86,2.89-6.25,2.88-.4,0-3.93.07-5.12,2.31l-.07.1c-.15.25-.59,1-.79,1.35a.25.25,0,0,1-.2.12.22.22,0,0,1-.2-.12c-.19-.39-.64-1.11-.78-1.35l-.07-.1c-1.2-2.24-4.72-2.32-5.12-2.32-4.39,0-6.07-2.61-6.24-2.9-2.18-3.21-.13-6.84-.1-6.88m-1.11-3.89a2.59,2.59,0,0,1,.48,1.5c0,.06,0,.12,0,.18s0,.15,0,.24,0,.13,0,.19A1.13,1.13,0,0,1,71,77v.16c0,.09,0,.19,0,.3s0,.11,0,.18,0,.13,0,.2,0,.1,0,.15,0,.2,0,.3a1.76,1.76,0,0,1,0,.19,1.87,1.87,0,0,1,0,.19,1,1,0,0,1,0,.15,1.38,1.38,0,0,1,0,.18,2.53,2.53,0,0,1-.08.28l0,.16-.06.16-.06.15c0,.09-.07.17-.11.25l-.06.11-.09.16a.6.6,0,0,1-.07.1l-.15.2-.06,0-.15.14-.07.06a1.14,1.14,0,0,1-.22.13h0a.87.87,0,0,1-.23.07h-.06a1.13,1.13,0,0,1-.28,0,.36.36,0,0,1,0-.19c0-.28.29-.53.42-.85s.1-.5.26-.71c.3,0,.54.07.62-.2a1.09,1.09,0,0,1,.09-1.64c.81-.81,0-2.55.16-2.76M70.22,72c-.35.08-.42-1.48-2.3-1.11a2.76,2.76,0,0,1-2.41-.09c2.67-1.51,4.91,0,4.71,1.21M54.64,56.63c-.42-1,1.11-2.27,1.49-2.38.87-.32,1.52.22,2.46.36.56.09,1.15,0,1.6,0,1,.09.75.83.58.94-.85.24-1.34-.41-2.06-.52-.53-.06-1.1.23-1.63.19s-.81-.34-1.24,0c0,0-.64.48-.51,1.05a.42.42,0,0,1-.69.32m1-.19c1.15.43,1.25-1,1.52-.7.4.68-.69,1.69-1.52.7m2.16,3.24c1.8.14,3.57.17,4.71.8l.14.09A4.44,4.44,0,0,1,64.35,63,13.31,13.31,0,0,0,61,61.32c-1.24-.44-2.67-.64-3.19-1.64M48.72,99.36l-.06,0A4.66,4.66,0,0,1,48,99c-.21.31.18.63.38.89a.29.29,0,0,1-.26.17h0a.86.86,0,0,1-.43-.05h0c-.39-.18-.45-.75-.46-1.06a1.31,1.31,0,0,0-.66-1c.77-.49,1.93.74,2,.84h0c.17.13.39.25.55.4a1.43,1.43,0,0,1,.14.16c-.1.21-.31.2-.58.08" style="fill:none;clip-rule:evenodd"/></clipPath><clipPath id="b3671fa6-be62-4dff-b4d0-9fd7a2d32205"><path d="M176,300.23a12,12,0,0,1-5.37,1.32c-4.3,0-6.32-3-6.32-7.59,0-4.37,2.18-7.33,6.68-7.32a8.1,8.1,0,0,1,4.73,1.29l-1.2,2.11a6.43,6.43,0,0,0-3.52-.92c-2.58,0-3.75,2-3.75,4.81,0,3.39,1.23,5.25,3.66,5.25a6.11,6.11,0,0,0,2.51-.51V296h-2l-.15-2.07H176Z" style="fill:none;clip-rule:evenodd"/></clipPath><clipPath id="7d26c38c-951a-4311-a2ae-75eb37b613dd"><path d="M187.6,296.11c0,3.55-1.8,5.45-4.91,5.45s-4.9-1.88-4.89-5.46c0-3.07,1.71-5.41,4.91-5.41s4.9,2.35,4.9,5.42m-2.86,0c0-2.51-.74-3.39-2-3.4s-2,.9-2,3.39.65,3.4,2,3.41,2.05-.91,2.05-3.4" style="fill:none;clip-rule:evenodd"/></clipPath><clipPath id="c8564e49-de90-4f8e-95c0-319bd24e62a5"><path d="M192.27,292A3.7,3.7,0,0,1,195,290.7c2.45,0,4.22,1.76,4.21,5.42s-2.14,5.45-4.57,5.45a3.43,3.43,0,0,1-3-1.48l-.51,1.26h-1.49l0-14.7h2.79v3.64Zm.18,6.49a2.53,2.53,0,0,0,1.9,1.06c1.21,0,2.11-.89,2.11-3.4s-.78-3.37-2.06-3.37a3,3,0,0,0-1.94.83Z" style="fill:none;clip-rule:evenodd"/></clipPath><clipPath id="087fd4c1-7bb7-41cd-ba60-6aad452d64ed"><path d="M202.22,301.37V293l-1.19-.25v-1.79h4v10.44Zm-.07-14.7H205v2.53h-2.81Z" style="fill:none;clip-rule:evenodd"/></clipPath><clipPath id="51c59b31-62e9-4482-9b03-13d05cbcc4e0"><path d="M209.92,296.9a2.37,2.37,0,0,0,2.68,2.58,7.11,7.11,0,0,0,3-.89l.53,2a8.45,8.45,0,0,1-3.92,1c-3.26,0-5.16-2-5.15-5.46,0-3.22,1.54-5.41,4.89-5.41,3.15,0,4.41,2.35,4.41,5v1.21Zm1.94-4.13c-1.38,0-1.94,1.26-1.94,2.49h3.81C213.73,293.92,213.31,292.77,211.86,292.77Z" style="fill:none;clip-rule:evenodd"/></clipPath><clipPath id="d9198d61-e633-49fa-9e6e-f1159a12fce3"><path d="M224.44,293.27a4.71,4.71,0,0,0-1.3-.17,3,3,0,0,0-1.88.7v7.58h-2.77V290.95h1.94c.11.49.21.94.3,1.41h.09a2.79,2.79,0,0,1,2.5-1.6,4.34,4.34,0,0,1,1.19.15c0,.79,0,1.58-.07,2.36" style="fill:none;clip-rule:evenodd"/></clipPath><clipPath id="36af458d-5b18-4551-b0eb-bc92c1694690"><path d="M232.59,301.4v-6.2c0-1.58-.59-2.32-1.87-2.32a3.39,3.39,0,0,0-1.83.63v7.88h-2.79V291H228l.42,1.2a4.32,4.32,0,0,1,3.3-1.4c2.64,0,3.69,1.56,3.68,4.2v6.45Z" style="fill:none;clip-rule:evenodd"/></clipPath><clipPath id="21347ca9-e17b-4ee1-8e1b-54f6a4c56d6a"><path d="M247.09,296.18c0,3.55-1.8,5.45-4.91,5.45s-4.9-1.88-4.9-5.46c0-3.07,1.71-5.41,4.91-5.41s4.9,2.35,4.9,5.42m-2.86,0c0-2.51-.74-3.39-2-3.4s-2,.9-2,3.39.66,3.4,2,3.41,2-.91,2-3.4" style="fill:none;clip-rule:evenodd"/></clipPath><clipPath id="7295ee0d-3e00-488a-a2d2-ac5ba6928c38"><path d="M176.06,42.22a8.44,8.44,0,0,0-3.87-.88c-1.52,0-2.15.57-2.15,1.32,0,2.57,7.62,1.51,7.62,7.28,0,2.75-2.38,5.35-6.38,5.34a9.43,9.43,0,0,1-5.67-1.86l1.48-3A7.14,7.14,0,0,0,171.31,52c1.38,0,2.22-.75,2.23-1.74,0-3.13-7.57-1.38-7.57-7.51,0-2.65,2.11-4.79,6.28-4.79A11.26,11.26,0,0,1,177.39,39Z" style="fill:none;clip-rule:evenodd"/></clipPath><clipPath id="367cc93c-d3ad-4b8b-a65d-e12ea9bb7b5e"><polygon points="180.12 55.05 180.14 38.17 191.04 38.19 191.04 41.51 184.09 41.51 184.08 44.83 189.28 44.84 189.03 48.31 184.08 48.3 184.08 51.75 191.03 51.76 191.02 55.06 180.12 55.05" style="fill:none;clip-rule:evenodd"/></clipPath><clipPath id="cc512f5e-a28a-4c83-85d6-546955dd46dc"><path d="M198.73,48.92h-1.3v6.15H193.5l0-16.87h5.87c3.37,0,6,1.58,6,5.16a5.36,5.36,0,0,1-3.08,4.9l3.44,6.83h-4.6Zm0-7.67h-1.3v4.62h1.3c1.9,0,2.5-.89,2.5-2.52S200.43,41.25,198.74,41.25Z" style="fill:none;clip-rule:evenodd"/></clipPath><clipPath id="87f615bd-032d-4efc-afbb-36234c41aa56"><polygon points="213.87 51.66 214 51.66 217.28 38.22 221.61 38.22 216.67 55.09 210.87 55.08 205.94 38.21 210.59 38.21 213.87 51.66" style="fill:none;clip-rule:evenodd"/></clipPath><clipPath id="f9181b41-ed1f-4c97-910a-4dc93e911cae"><rect x="223.45" y="38.23" width="3.95" height="16.87" style="fill:none"/></clipPath><clipPath id="6adfaed2-bb20-4224-abb1-dc2528a8eff0"><path d="M237.46,55.36c-4.8,0-7.47-3-7.46-8.78,0-5.15,2.46-8.6,7.48-8.59a11.23,11.23,0,0,1,6,1.46L242,42.62a6.94,6.94,0,0,0-4-1.13c-2.5,0-3.78,1.57-3.78,5.07,0,3.67,1.25,5.27,3.72,5.28a8,8,0,0,0,4.35-1.52l1.25,3.22a10.39,10.39,0,0,1-6,1.82" style="fill:none;clip-rule:evenodd"/></clipPath><clipPath id="acbff869-30d0-4ba0-815d-b492b972fe3b"><rect x="245.97" y="38.25" width="3.95" height="16.87" style="fill:none"/></clipPath><clipPath id="26f6c750-3921-4eb0-b161-8272229ea8d5"><path d="M259.93,55.39c-5.93,0-7.42-4.31-7.41-8.83S254,38,260,38s7.49,4.11,7.49,8.56-1.58,8.82-7.51,8.81m0-14c-2.63,0-3.25,2.24-3.25,5.12,0,3.2.67,5.52,3.24,5.53s3.3-2.3,3.31-5.52c0-2.92-.67-5.13-3.29-5.13" style="fill:none;clip-rule:evenodd"/></clipPath><clipPath id="a52a5d1c-1a14-483c-b766-ca8c80c2d53e"><path d="M281.85,55.41c-4.8,0-7.47-3-7.46-8.78,0-5.15,2.46-8.6,7.48-8.59a11.23,11.23,0,0,1,6,1.46l-1.48,3.17a6.94,6.94,0,0,0-4-1.13c-2.5,0-3.78,1.57-3.78,5.07,0,3.67,1.25,5.27,3.72,5.28a7.94,7.94,0,0,0,4.35-1.52l1.25,3.23a10.39,10.39,0,0,1-6,1.82" style="fill:none;clip-rule:evenodd"/></clipPath><clipPath id="c87fa32d-846e-4fa5-986b-e9f916ddb56c"><rect x="290.36" y="38.3" width="3.95" height="16.87" style="fill:none"/></clipPath><clipPath id="4c53e2b7-21af-4208-89a4-1c17e2d16675"><polygon points="304.1 51.76 304.23 51.76 307.51 38.32 311.84 38.32 306.9 55.19 301.1 55.18 296.17 38.31 300.82 38.31 304.1 51.76" style="fill:none;clip-rule:evenodd"/></clipPath><clipPath id="1da2f933-6562-4ba8-9533-c86c95996dbf"><rect x="313.68" y="38.33" width="3.95" height="16.87" style="fill:none"/></clipPath><clipPath id="327d53c2-06f5-4f11-92e4-4c93620de616"><polygon points="320.97 55.21 320.99 38.33 324.94 38.34 324.92 51.89 331.87 51.89 331.87 55.22 320.97 55.21" style="fill:none;clip-rule:evenodd"/></clipPath><clipPath id="99b69ea5-413b-471f-bf8b-8efeb54de64d"><line x1="14.9" y1="316.26" x2="343.36" y2="318.27" style="fill:none"/></clipPath><clipPath id="7655f89c-6b52-4c56-bf0c-8c1d84858bb3"><line x1="14.89" y1="317.98" x2="347.27" y2="320" style="fill:none"/></clipPath><clipPath id="9ac3c7a5-3642-44bc-8604-92381fc4141b"><path d="M16.37,316.27l327,.37m-3-3-189.09-.21m-3,0-128.92-.15" style="fill:none;clip-rule:evenodd"/></clipPath></defs><title>Isologos_Gobierno</title><g style="opacity:0.5"><path d="M-75.54,315.87H-234.93V23.65H-75.54Zm-162.42,0H-368.15V23.65H-238Zm-133.22,3H-72.52V20.62H-371.17Zm711.29-3H152.73V23.65H340.12Zm-190.42,0H19.51V23.65H149.7Zm-133.22,3H343.14V20.62H16.49Z" style="fill:#141000"/></g><g style="opacity:0.5"><g style="clip-path:url(#4d379aca-aa4f-477d-88e5-d8d170669b49)"><g style="clip-path:url(#854a4faa-4cdc-42c3-916b-927e6f39b8a2)"><rect x="72.69" y="60.52" width="47.76" height="43.67" transform="translate(13.63 178.42) rotate(-89.65)" style="fill:#040707"/></g></g><g style="clip-path:url(#617c3d08-265a-418d-9e2d-a9e13d96789d)"><g style="clip-path:url(#854a4faa-4cdc-42c3-916b-927e6f39b8a2)"><rect x="82.52" y="25.99" width="55.11" height="54.62" transform="translate(56.11 163.05) rotate(-89.65)" style="fill:#040707"/></g></g><g style="clip-path:url(#fbddf7a3-0be2-4cae-b488-53966c32c695)"><g style="clip-path:url(#854a4faa-4cdc-42c3-916b-927e6f39b8a2)"><rect x="59.15" y="83.84" width="50.01" height="48.82" transform="translate(-24.61 191.75) rotate(-89.65)" style="fill:#040707"/></g></g><g style="clip-path:url(#ced6c5b3-cd1d-454a-b27d-e31ee66da889)"><g style="clip-path:url(#854a4faa-4cdc-42c3-916b-927e6f39b8a2)"><rect x="71.95" y="80.38" width="43.86" height="43.71" transform="matrix(0.01, -1, 1, 0.01, -8.93, 195.49)" style="fill:#040707"/></g></g><g style="clip-path:url(#e3957708-107d-4f0d-b8fd-5cb60718d613)"><g style="clip-path:url(#854a4faa-4cdc-42c3-916b-927e6f39b8a2)"><rect x="53.78" y="80.45" width="43.86" height="43.7" transform="translate(-27.06 177.38) rotate(-89.65)" style="fill:#040707"/></g></g><g style="clip-path:url(#473801af-671e-4041-8d82-9d90a73629f7)"><g style="clip-path:url(#854a4faa-4cdc-42c3-916b-927e6f39b8a2)"><rect x="51.43" y="79.6" width="44.02" height="43.81" transform="translate(-28.51 174.32) rotate(-89.65)" style="fill:#040707"/></g></g><g style="clip-path:url(#a27ac64c-24d6-4846-9e59-f0d8f333f70c)"><g style="clip-path:url(#854a4faa-4cdc-42c3-916b-927e6f39b8a2)"><rect x="58.58" y="80.54" width="45.04" height="44.29" transform="translate(-22.07 183.16) rotate(-89.65)" style="fill:#040707"/></g></g><g style="clip-path:url(#fb231b1c-5235-44d4-aafe-a703e7158c91)"><g style="clip-path:url(#854a4faa-4cdc-42c3-916b-927e6f39b8a2)"><rect x="65.47" y="80.54" width="45.04" height="44.29" transform="matrix(0.01, -1, 1, 0.01, -15.23, 190.05)" style="fill:#040707"/></g></g><g style="clip-path:url(#805d9a24-e97f-4a23-a457-0a52c7e95fc6)"><g style="clip-path:url(#854a4faa-4cdc-42c3-916b-927e6f39b8a2)"><rect x="47.67" y="79.59" width="43.87" height="43.7" transform="translate(-32.26 170.42) rotate(-89.65)" style="fill:#040707"/></g></g><g style="clip-path:url(#9ad3e39f-654b-4f06-97b7-3f6e959c9fbb)"><g style="clip-path:url(#854a4faa-4cdc-42c3-916b-927e6f39b8a2)"><rect x="36.98" y="76.09" width="44.07" height="43.86" transform="translate(-39.37 156.43) rotate(-89.65)" style="fill:#040707"/></g></g><g style="clip-path:url(#9acc9c88-ec57-4d0e-b3b7-eaf5286ca8fa)"><g style="clip-path:url(#854a4faa-4cdc-42c3-916b-927e6f39b8a2)"><rect x="38.78" y="77.14" width="45.02" height="44.43" transform="translate(-38.44 160.04) rotate(-89.65)" style="fill:#040707"/></g></g><g style="clip-path:url(#f52a5822-9dd3-4972-8923-cf9feebc3054)"><g style="clip-path:url(#854a4faa-4cdc-42c3-916b-927e6f39b8a2)"><rect x="42.11" y="77.71" width="44.04" height="43.86" transform="translate(-35.9 163.16) rotate(-89.65)" style="fill:#040707"/></g></g><g style="clip-path:url(#774b5109-5975-485c-8174-397b54bdd75a)"><g style="clip-path:url(#854a4faa-4cdc-42c3-916b-927e6f39b8a2)"><rect x="82.67" y="77.78" width="44.04" height="43.87" transform="translate(4.34 203.79) rotate(-89.65)" style="fill:#040707"/></g></g><g style="clip-path:url(#d77691ac-526e-42eb-a8e5-9636a85a954b)"><g style="clip-path:url(#854a4faa-4cdc-42c3-916b-927e6f39b8a2)"><rect x="87.65" y="76.87" width="43.88" height="43.67" transform="matrix(0.01, -1, 1, 0.01, 10.23, 207.69)" style="fill:#040707"/></g></g><g style="clip-path:url(#b0f23b8c-050f-4f20-964e-87b1020a3587)"><g style="clip-path:url(#854a4faa-4cdc-42c3-916b-927e6f39b8a2)"><rect x="58.27" y="48.13" width="51.76" height="104.04" transform="translate(-16.51 183.69) rotate(-89.65)" style="fill:#040707"/></g></g><g style="clip-path:url(#e5451df5-2098-4c1f-a2f7-1d3cd70de6e5)"><g style="clip-path:url(#854a4faa-4cdc-42c3-916b-927e6f39b8a2)"><rect x="51.13" y="42.16" width="43.92" height="45.57" transform="translate(7.7 137.63) rotate(-89.65)" style="fill:#040707"/></g></g><g style="clip-path:url(#703e3f03-bb60-46d1-b78b-845c121d4200)"><g style="clip-path:url(#854a4faa-4cdc-42c3-916b-927e6f39b8a2)"><rect x="61.69" y="38.22" width="44.23" height="53.19" transform="translate(18.47 148.22) rotate(-89.65)" style="fill:#040707"/></g></g><g style="clip-path:url(#930ef451-8ace-400b-897c-b96486c085c3)"><g style="clip-path:url(#854a4faa-4cdc-42c3-916b-927e6f39b8a2)"><rect x="73.03" y="42.34" width="43.9" height="45.27" transform="translate(29.43 159.55) rotate(-89.65)" style="fill:#040707"/></g></g><g style="clip-path:url(#dcd4c1e2-2acf-44c4-a375-911343e69078)"><g style="clip-path:url(#854a4faa-4cdc-42c3-916b-927e6f39b8a2)"><rect x="47.25" y="60.14" width="48.35" height="43.74" transform="translate(-11.01 152.93) rotate(-89.65)" style="fill:#040707"/></g></g><g style="clip-path:url(#0c1b18a6-5b6e-438e-91f4-0f9075071222)"><g style="clip-path:url(#854a4faa-4cdc-42c3-916b-927e6f39b8a2)"><rect x="55.22" y="38.53" width="44.25" height="55.96" transform="translate(10.37 143.45) rotate(-89.65)" style="fill:#040707"/></g></g><g style="clip-path:url(#542f5c58-3515-4365-97c5-1a8443995cce)"><g style="clip-path:url(#854a4faa-4cdc-42c3-916b-927e6f39b8a2)"><rect x="55.51" y="41.04" width="44.24" height="54.34" transform="translate(8.95 145.44) rotate(-89.65)" style="fill:#040707"/></g></g><g style="clip-path:url(#5af8ed9c-4c7a-4a2f-aee9-824759ea7ee3)"><g style="clip-path:url(#854a4faa-4cdc-42c3-916b-927e6f39b8a2)"><rect x="55.68" y="43.43" width="44.24" height="52.98" transform="translate(7.4 147.3) rotate(-89.65)" style="fill:#040707"/></g></g><g style="clip-path:url(#5e0890cf-01b3-4391-b5d7-af7bd2580881)"><g style="clip-path:url(#854a4faa-4cdc-42c3-916b-927e6f39b8a2)"><rect x="55.68" y="45.67" width="44.24" height="51.94" transform="translate(5.68 149) rotate(-89.65)" style="fill:#040707"/></g></g><g style="clip-path:url(#bedba671-9d75-4e05-947b-f5977dce0bdd)"><g style="clip-path:url(#854a4faa-4cdc-42c3-916b-927e6f39b8a2)"><rect x="53.57" y="51.14" width="44.21" height="47.84" transform="translate(0.17 150.28) rotate(-89.65)" style="fill:#040707"/></g></g><g style="clip-path:url(#891dd5c3-c27d-4e98-9dcb-461a9156147e)"><g style="clip-path:url(#854a4faa-4cdc-42c3-916b-927e6f39b8a2)"><rect x="52.51" y="50.74" width="44.21" height="45.21" transform="translate(0.82 147.51) rotate(-89.65)" style="fill:#040707"/></g></g><g style="clip-path:url(#a5d7ba1c-dfa2-4527-9715-44cf28c2634e)"><g style="clip-path:url(#854a4faa-4cdc-42c3-916b-927e6f39b8a2)"><rect x="57.68" y="48.77" width="65.27" height="56.36" transform="matrix(0.01, -1, 1, 0.01, 12.82, 166.79)" style="fill:#040707"/></g></g><g style="clip-path:url(#9dfbe5a4-2c1a-4422-aea5-ca5b6875319f)"><g style="clip-path:url(#854a4faa-4cdc-42c3-916b-927e6f39b8a2)"><rect x="61.15" y="63.13" width="50.86" height="44.23" transform="matrix(0.01, -1, 1, 0.01, 0.82, 171.31)" style="fill:#040707"/></g></g><g style="clip-path:url(#2bebf430-6ff7-442d-bc13-86cb5892b6c3)"><g style="clip-path:url(#854a4faa-4cdc-42c3-916b-927e6f39b8a2)"><rect x="57.7" y="63.52" width="54.3" height="44.24" transform="matrix(0.01, -1, 1, 0.01, -1.31, 169.96)" style="fill:#040707"/></g></g><g style="clip-path:url(#c8ac0569-5423-4cbe-a9a1-fe5647e4f4df)"><g style="clip-path:url(#854a4faa-4cdc-42c3-916b-927e6f39b8a2)"><rect x="56.02" y="63.14" width="54.24" height="44.25" transform="translate(-2.63 167.88) rotate(-89.65)" style="fill:#040707"/></g></g><g style="clip-path:url(#a43675c4-27f8-4211-be72-df67b0f05190)"><g style="clip-path:url(#854a4faa-4cdc-42c3-916b-927e6f39b8a2)"><rect x="55.88" y="62.87" width="51.1" height="44.23" transform="translate(-4.05 165.9) rotate(-89.65)" style="fill:#040707"/></g></g><g style="clip-path:url(#f25a2314-634f-4c85-906d-0d9d88f10594)"><g style="clip-path:url(#854a4faa-4cdc-42c3-916b-927e6f39b8a2)"><rect x="63.9" y="63.4" width="48.8" height="44.22" transform="translate(2.25 173.28) rotate(-89.65)" style="fill:#040707"/></g></g><g style="clip-path:url(#4f6a0dea-d1d6-403e-b8c4-ef6f475230bd)"><g style="clip-path:url(#854a4faa-4cdc-42c3-916b-927e6f39b8a2)"><rect x="55.17" y="63.17" width="49.11" height="44.22" transform="translate(-6.04 164.49) rotate(-89.65)" style="fill:#040707"/></g></g><g style="clip-path:url(#fb7224d9-fff4-4fb6-b4c7-ecff749d1500)"><g style="clip-path:url(#854a4faa-4cdc-42c3-916b-927e6f39b8a2)"><rect x="48.9" y="53.11" width="58.33" height="54.55" transform="matrix(0.01, -1, 1, 0.01, -2.79, 157.95)" style="fill:#040707"/></g></g><g style="clip-path:url(#a528b718-908b-4abc-b125-c2b078064612)"><g style="clip-path:url(#854a4faa-4cdc-42c3-916b-927e6f39b8a2)"><rect x="69.8" y="51.12" width="44.22" height="47.89" transform="translate(16.28 166.52) rotate(-89.65)" style="fill:#040707"/></g></g><g style="clip-path:url(#6c2760f3-daf1-46cf-a236-1b1de63bbbf1)"><g style="clip-path:url(#854a4faa-4cdc-42c3-916b-927e6f39b8a2)"><rect x="70.9" y="50.7" width="44.21" height="45.32" transform="translate(19.08 165.92) rotate(-89.65)" style="fill:#040707"/></g></g><g style="clip-path:url(#97e05bd0-5468-4bb9-a548-b36ea17086e4)"><g style="clip-path:url(#854a4faa-4cdc-42c3-916b-927e6f39b8a2)"><rect x="49.64" y="8.76" width="68.48" height="81.14" transform="translate(34.04 132.91) rotate(-89.65)" style="fill:#040707"/></g></g><g style="clip-path:url(#a3604cc6-71da-4595-b757-e48a5d7de098)"><g style="clip-path:url(#854a4faa-4cdc-42c3-916b-927e6f39b8a2)"><rect x="229.3" y="267.77" width="58.11" height="52.81" transform="translate(-37.39 550.74) rotate(-89.65)" style="fill:#040707"/></g></g><g style="clip-path:url(#9c9b6114-3e53-4e07-8a18-28e49dd53c37)"><g style="clip-path:url(#854a4faa-4cdc-42c3-916b-927e6f39b8a2)"><rect x="242.88" y="269.99" width="54.04" height="52.46" transform="translate(-27.96 564.31) rotate(-89.65)" style="fill:#040707"/></g></g><g style="clip-path:url(#c4717bc5-8fb8-4ef3-8187-223adec2dc4b)"><g style="clip-path:url(#854a4faa-4cdc-42c3-916b-927e6f39b8a2)"><rect x="257.57" y="267.04" width="58.09" height="54.34" transform="translate(-9.34 579.03) rotate(-89.65)" style="fill:#040707"/></g></g><g style="clip-path:url(#4d351086-51e6-402c-a93b-0d767cd02359)"><g style="clip-path:url(#854a4faa-4cdc-42c3-916b-927e6f39b8a2)"><rect x="269.82" y="267.86" width="57.88" height="52.57" transform="translate(2.8 591.1) rotate(-89.65)" style="fill:#040707"/></g></g><g style="clip-path:url(#3eb9a556-f3a2-4e01-9dbc-69d808e02c5f)"><g style="clip-path:url(#854a4faa-4cdc-42c3-916b-927e6f39b8a2)"><rect x="278.4" y="270.54" width="57.88" height="47.18" transform="translate(11.34 599.67) rotate(-89.65)" style="fill:#040707"/></g></g><g style="clip-path:url(#d1e1b881-9f66-43c9-8efd-42233ede55c2)"><g style="clip-path:url(#854a4faa-4cdc-42c3-916b-927e6f39b8a2)"><rect x="285.02" y="270.41" width="58.09" height="47.67" transform="matrix(0.01, -1, 1, 0.01, 17.91, 606.51)" style="fill:#040707"/></g></g><g style="clip-path:url(#d103f411-6736-4f8a-9386-4a1260e78cf7)"><g style="clip-path:url(#854a4faa-4cdc-42c3-916b-927e6f39b8a2)"><rect x="295.32" y="270.05" width="54.04" height="52.46" transform="matrix(0.01, -1, 1, 0.01, 24.09, 616.8)" style="fill:#040707"/></g></g><g style="clip-path:url(#62596c16-2b14-4e20-82b5-fbbffaa5b8c4)"><g style="clip-path:url(#854a4faa-4cdc-42c3-916b-927e6f39b8a2)"><rect x="81.73" y="57.32" width="60.97" height="90.11" transform="translate(9.16 213.96) rotate(-89.65)" style="fill:#040707"/></g></g><g style="clip-path:url(#64548be9-91ae-4beb-b725-ee627fc9d222)"><g style="clip-path:url(#854a4faa-4cdc-42c3-916b-927e6f39b8a2)"><rect x="27.51" y="10.93" width="105.57" height="138.2" transform="matrix(0.01, -1, 1, 0.01, -0.22, 159.84)" style="fill:#040707"/></g></g><g style="clip-path:url(#b3671fa6-be62-4dff-b4d0-9fd7a2d32205)"><g style="clip-path:url(#854a4faa-4cdc-42c3-916b-927e6f39b8a2)"><rect x="141.09" y="266.64" width="58.09" height="54.9" transform="translate(-124.99 462.42) rotate(-89.65)" style="fill:#040707"/></g></g><g style="clip-path:url(#7d26c38c-951a-4311-a2ae-75eb37b613dd)"><g style="clip-path:url(#854a4faa-4cdc-42c3-916b-927e6f39b8a2)"><rect x="155.68" y="269.64" width="54.04" height="52.97" transform="translate(-114.54 477.02) rotate(-89.65)" style="fill:#040707"/></g></g><g style="clip-path:url(#c8564e49-de90-4f8e-95c0-319bd24e62a5)"><g style="clip-path:url(#854a4faa-4cdc-42c3-916b-927e6f39b8a2)"><rect x="165.42" y="267.72" width="58.07" height="52.8" transform="translate(-100.85 486.78) rotate(-89.65)" style="fill:#040707"/></g></g><g style="clip-path:url(#087fd4c1-7bb7-41cd-ba60-6aad452d64ed)"><g style="clip-path:url(#854a4faa-4cdc-42c3-916b-927e6f39b8a2)"><rect x="174.08" y="270.42" width="57.88" height="47.18" transform="translate(-92.22 495.24) rotate(-89.65)" style="fill:#040707"/></g></g><g style="clip-path:url(#51c59b31-62e9-4482-9b03-13d05cbcc4e0)"><g style="clip-path:url(#854a4faa-4cdc-42c3-916b-927e6f39b8a2)"><rect x="184.73" y="269.93" width="54.04" height="52.46" transform="matrix(0.01, -1, 1, 0.01, -85.69, 506.1)" style="fill:#040707"/></g></g><g style="clip-path:url(#d9198d61-e633-49fa-9e6e-f1159a12fce3)"><g style="clip-path:url(#854a4faa-4cdc-42c3-916b-927e6f39b8a2)"><rect x="194.56" y="271.49" width="53.82" height="49.18" transform="translate(-75.96 515.73) rotate(-89.65)" style="fill:#040707"/></g></g><g style="clip-path:url(#36af458d-5b18-4551-b0eb-bc92c1694690)"><g style="clip-path:url(#854a4faa-4cdc-42c3-916b-927e6f39b8a2)"><rect x="203.84" y="269.8" width="53.85" height="52.56" transform="translate(-66.72 525.03) rotate(-89.65)" style="fill:#040707"/></g></g><g style="clip-path:url(#21347ca9-e17b-4ee1-8e1b-54f6a4c56d6a)"><g style="clip-path:url(#854a4faa-4cdc-42c3-916b-927e6f39b8a2)"><rect x="215.17" y="269.71" width="54.04" height="52.97" transform="translate(-55.48 536.57) rotate(-89.65)" style="fill:#040707"/></g></g><g style="clip-path:url(#7295ee0d-3e00-488a-a2d2-ac5ba6928c38)"><g style="clip-path:url(#854a4faa-4cdc-42c3-916b-927e6f39b8a2)"><rect x="141.39" y="19" width="60.54" height="55.2" transform="translate(124.01 217.98) rotate(-89.65)" style="fill:#1b1d1b"/></g></g><g style="clip-path:url(#367cc93c-d3ad-4b8b-a65d-e12ea9bb7b5e)"><g style="clip-path:url(#854a4faa-4cdc-42c3-916b-927e6f39b8a2)"><rect x="155.54" y="19.54" width="60.09" height="54.15" transform="translate(137.83 231.92) rotate(-89.65)" style="fill:#1b1d1b"/></g></g><g style="clip-path:url(#cc512f5e-a28a-4c83-85d6-546955dd46dc)"><g style="clip-path:url(#854a4faa-4cdc-42c3-916b-927e6f39b8a2)"><rect x="169.62" y="18.88" width="60.07" height="55.55" transform="translate(151.79 246.02) rotate(-89.65)" style="fill:#1b1d1b"/></g></g><g style="clip-path:url(#87f615bd-032d-4efc-afbb-36234c41aa56)"><g style="clip-path:url(#854a4faa-4cdc-42c3-916b-927e6f39b8a2)"><rect x="183.68" y="17.22" width="60.09" height="58.84" transform="matrix(0.01, -1, 1, 0.01, 165.78, 260.07)" style="fill:#1b1d1b"/></g></g><g style="clip-path:url(#f9181b41-ed1f-4c97-910a-4dc93e911cae)"><g style="clip-path:url(#854a4faa-4cdc-42c3-916b-927e6f39b8a2)"><rect x="195.39" y="23.06" width="60.06" height="47.2" transform="matrix(0.01, -1, 1, 0.01, 177.39, 271.8)" style="fill:#1b1d1b"/></g></g><g style="clip-path:url(#6adfaed2-bb20-4224-abb1-dc2528a8eff0)"><g style="clip-path:url(#854a4faa-4cdc-42c3-916b-927e6f39b8a2)"><rect x="206.49" y="18.32" width="60.54" height="56.7" transform="translate(188.65 283.15) rotate(-89.65)" style="fill:#1b1d1b"/></g></g><g style="clip-path:url(#acbff869-30d0-4ba0-815d-b492b972fe3b)"><g style="clip-path:url(#854a4faa-4cdc-42c3-916b-927e6f39b8a2)"><rect x="217.91" y="23.09" width="60.06" height="47.2" transform="matrix(0.01, -1, 1, 0.01, 199.74, 294.34)" style="fill:#1b1d1b"/></g></g><g style="clip-path:url(#26f6c750-3921-4eb0-b161-8272229ea8d5)"><g style="clip-path:url(#854a4faa-4cdc-42c3-916b-927e6f39b8a2)"><rect x="229.71" y="17.66" width="60.54" height="58.09" transform="translate(211.69 306.39) rotate(-89.65)" style="fill:#1b1d1b"/></g></g><g style="clip-path:url(#a52a5d1c-1a14-483c-b766-ca8c80c2d53e)"><g style="clip-path:url(#854a4faa-4cdc-42c3-916b-927e6f39b8a2)"><rect x="250.88" y="18.37" width="60.54" height="56.7" transform="translate(232.72 327.59) rotate(-89.65)" style="fill:#1b1d1b"/></g></g><g style="clip-path:url(#c87fa32d-846e-4fa5-986b-e9f916ddb56c)"><g style="clip-path:url(#854a4faa-4cdc-42c3-916b-927e6f39b8a2)"><rect x="262.3" y="23.14" width="60.06" height="47.2" transform="translate(243.81 338.78) rotate(-89.65)" style="fill:#1b1d1b"/></g></g><g style="clip-path:url(#4c53e2b7-21af-4208-89a4-1c17e2d16675)"><g style="clip-path:url(#854a4faa-4cdc-42c3-916b-927e6f39b8a2)"><rect x="273.91" y="17.32" width="60.09" height="58.84" transform="translate(255.36 350.4) rotate(-89.65)" style="fill:#1b1d1b"/></g></g><g style="clip-path:url(#1da2f933-6562-4ba8-9533-c86c95996dbf)"><g style="clip-path:url(#854a4faa-4cdc-42c3-916b-927e6f39b8a2)"><rect x="285.62" y="23.16" width="60.06" height="47.2" transform="matrix(0.01, -1, 1, 0.01, 266.96, 362.13)" style="fill:#1b1d1b"/></g></g><g style="clip-path:url(#327d53c2-06f5-4f11-92e4-4c93620de616)"><g style="clip-path:url(#854a4faa-4cdc-42c3-916b-927e6f39b8a2)"><rect x="296.4" y="19.72" width="60.06" height="54.15" transform="translate(277.64 372.93) rotate(-89.65)" style="fill:#1b1d1b"/></g></g><g style="clip-path:url(#99b69ea5-413b-471f-bf8b-8efeb54de64d)"><g style="clip-path:url(#7655f89c-6b52-4c56-bf0c-8c1d84858bb3)"><g style="isolation:isolate"><g style="clip-path:url(#7655f89c-6b52-4c56-bf0c-8c1d84858bb3)"><g style="clip-path:url(#9ac3c7a5-3642-44bc-8604-92381fc4141b)"><g style="clip-path:url(#7655f89c-6b52-4c56-bf0c-8c1d84858bb3)"><rect x="9.96" y="-17.04" width="340.15" height="371.63" transform="matrix(0.01, -1, 1, 0.01, 10.17, 347.78)" style="fill:#1c1c1a"/></g></g></g></g></g></g></g></svg>