<svg id="3b0fcc8e-a8bd-4f39-875b-48def9202998" data-name="Isologo Pluma" xmlns="http://www.w3.org/2000/svg" viewBox="0 0 331 332"><title>Isologos_Gobierno</title><g style="opacity:0.5"><path d="M250.43,75.1h4.48v4h-4.48Zm.14,23.41V85.07l-1.94-.41V81.89H255V98.51Z" style="fill:#141000"/><path d="M311.52,315.87H152.13V23.65H311.52Zm-162.42,0H18.91V23.65H149.11Zm-133.22,3H314.55V20.62H15.89Zm711.29-3H539.79V23.65H727.18Zm-190.42,0H406.58V23.65H536.77Zm-133.22,3H730.21V20.62H403.55Z" style="fill:#141000"/><path d="M185,66.58a18.72,18.72,0,0,1-8.83,2.29c-6.81,0-10.25-5.32-10.25-12,0-6.4,3.44-11.59,10.62-11.59a12.79,12.79,0,0,1,7.52,2.09c-.61,1.14-1.25,2.22-1.89,3.37a9.62,9.62,0,0,0-5.52-1.55c-4.15,0-6.07,3.1-6.07,7.61,0,5.09,2.13,8.36,6,8.36a9.33,9.33,0,0,0,4.31-1V60.11h-3.37V56.88H185Z" style="fill:#141000"/><path d="M198.87,60.24c0-4-1.18-5.36-3.24-5.36s-3.2,1.42-3.2,5.36,1,5.39,3.2,5.39,3.24-1.45,3.24-5.39m4.55,0c0,5.63-2.83,8.63-7.79,8.63s-7.72-3-7.72-8.63c0-4.85,2.7-8.56,7.72-8.56s7.79,3.7,7.79,8.56" style="fill:#141000"/><path d="M211.13,64a4,4,0,0,0,3,1.68c1.92,0,3.33-1.42,3.33-5.4s-1.25-5.32-3.27-5.32a4.65,4.65,0,0,0-3.07,1.31Zm-.3-10.25a5.81,5.81,0,0,1,4.38-2c3.88,0,6.67,2.76,6.67,8.56s-3.37,8.63-7.21,8.63a5.44,5.44,0,0,1-4.79-2.32l-.81,2h-2.36V45.28h4.41V51Z" style="fill:#141000"/><path d="M226.42,45.28h4.45v4h-4.45Zm.14,23.25V55.29l-1.88-.41V52h6.27V68.53Z" style="fill:#141000"/><path d="M241.88,54.92c-2.19,0-3.07,2-3.07,3.94h6c0-2.12-.67-3.94-3-3.94m-3.07,6.53c0,2.63,1.48,4.08,4.25,4.08a11.23,11.23,0,0,0,4.82-1.42l.85,3.1a13.29,13.29,0,0,1-6.2,1.65c-5.15,0-8.15-3.17-8.15-8.63,0-5.09,2.43-8.55,7.72-8.55,5,0,7,3.7,7,7.85v1.92Z" style="fill:#141000"/><path d="M262,55.69a7.35,7.35,0,0,0-2.06-.27,4.76,4.76,0,0,0-3,1.11v12h-4.38V52h3.07c.17.77.34,1.48.47,2.22h.14a4.41,4.41,0,0,1,3.94-2.53,7.16,7.16,0,0,1,1.88.24c0,1.25,0,2.49-.1,3.74" style="fill:#141000"/><path d="M274.88,68.53v-9.8c0-2.5-.94-3.67-3-3.67a5.3,5.3,0,0,0-2.9,1V68.53h-4.41V52h3l.74,1.88a6.86,6.86,0,0,1,5.22-2.22c4.18,0,5.83,2.46,5.83,6.64V68.53Z" style="fill:#141000"/><path d="M293.27,60.24c0-4-1.18-5.36-3.23-5.36s-3.2,1.42-3.2,5.36,1,5.39,3.2,5.39,3.23-1.45,3.23-5.39m4.55,0c0,5.63-2.83,8.63-7.78,8.63s-7.72-3-7.72-8.63c0-4.85,2.69-8.56,7.72-8.56s7.78,3.7,7.78,8.56" style="fill:#141000"/><path d="M176.75,85.93a4.76,4.76,0,0,0-3-1c-2.09,0-3.4,1.42-3.4,5.26s1.25,5.42,3.34,5.42a4.36,4.36,0,0,0,3.07-1.41Zm.44-2.69a15.94,15.94,0,0,1-.44-3v-5h4.38V98.47h-3.57L177,96.65a5.35,5.35,0,0,1-4.38,2.16c-3.74,0-6.74-2.7-6.74-8.59,0-5.46,3.1-8.6,7.11-8.6a5.34,5.34,0,0,1,4.14,1.62" style="fill:#141000"/><path d="M192,84.85c-2.19,0-3.07,2-3.07,3.94h6c0-2.12-.67-3.94-3-3.94m-3.07,6.54c0,2.63,1.48,4.08,4.25,4.08A11.23,11.23,0,0,0,198,94.05l.85,3.1a13.21,13.21,0,0,1-6.2,1.66c-5.15,0-8.15-3.17-8.15-8.63,0-5.09,2.43-8.56,7.72-8.56,5,0,7,3.71,7,7.85v1.92Z" style="fill:#141000"/><path d="M219.72,98.8c-6.4,0-10.07-4.31-10.07-11.89,0-7,3.88-11.69,10.18-11.69a13,13,0,0,1,7.48,2l-1.58,3.48a9.63,9.63,0,0,0-5.62-1.55c-3.88,0-5.8,2.76-5.8,7.75,0,5.26,2,8.12,5.73,8.12a10,10,0,0,0,6-2l1.42,3.37a12.94,12.94,0,0,1-7.75,2.39" style="fill:#141000"/><path d="M230.43,98.47V75.22h4.41v6.1a10,10,0,0,1-.44,2.56,5.72,5.72,0,0,1,4.68-2.26c4.76,0,6.1,2.46,6.1,6.64V98.47H240.7V88.66a1.7,1.7,0,0,0-.24-1c-.14-1.85-1.07-2.66-2.73-2.66a5.3,5.3,0,0,0-2.89,1V98.47Z" style="fill:#141000"/><path d="M258.58,94.08V75.22h4.34V91.76a6,6,0,0,0,.57,2.77c.2.8.85.84,2.06.94v3.07a12.47,12.47,0,0,1-2.36.27c-3.34,0-4.61-1.78-4.61-4.72" style="fill:#141000"/><path d="M275.49,84.85c-2.19,0-3.07,2-3.07,3.94h6c0-2.12-.67-3.94-3-3.94m-3.07,6.54c0,2.63,1.48,4.08,4.24,4.08a11.28,11.28,0,0,0,4.82-1.41l.84,3.1a13.18,13.18,0,0,1-6.2,1.66c-5.16,0-8.15-3.17-8.15-8.63,0-5.09,2.42-8.56,7.72-8.56,5,0,7,3.71,7,7.85v1.92Z" style="fill:#141000"/><path d="M95.52,78.73v4.65a5.68,5.68,0,0,0,0-4.65" style="fill:#141000"/><path d="M105.3,51.37c-.18.42-.79.42-.88.95-.5-.45.44-1.48.88-.95m3.19-.19c.45-.27.85-1.16,1.53-.72a11.3,11.3,0,0,1,1,.76,2.85,2.85,0,0,1,.92.8c.2.41-.34,1.37-.94.51-.41-.64-1-1.8-1.86-1.34-.73.37-1.23.89-1.43.4,0-.25.52-.24.81-.4m.09.74c.28-.35.38,1.15,1.55.72-.84,1-2,0-1.55-.72m-3.94,1.56c.13,0-.06-.65.54-.69a1.6,1.6,0,0,1,1.47,1c.12.59-.37,2,1.52,2.24,0,0,0,.3,0,.6a2.94,2.94,0,0,1-.27,1h.34c2.53.12,4-.08,4.68-.84a4.32,4.32,0,0,0,.65-.92,4.48,4.48,0,0,0,.39-3.48h0l-.06-.19a3,3,0,0,0-.16-.34,7.42,7.42,0,0,0-3.87-2.89,1.56,1.56,0,0,0-.38,0l0,0,.08,0h.4c1.35.16,3.64,1.51,4.11,2.88a2.46,2.46,0,0,0,.9-1.69,4.49,4.49,0,0,1,.3-1.68.43.43,0,0,0-.18-.57.42.42,0,0,0-.55.21c-.33.7-1.13.32-.8-.39a.41.41,0,1,0-.73-.36c-.32.68-1.09.3-.78-.37a.42.42,0,0,0-.18-.56.43.43,0,0,0-.56.2c-.33.7-1.13.31-.79-.39a.43.43,0,0,0-.19-.57.42.42,0,0,0-.55.21,3.87,3.87,0,0,1-.67,1.06A8.25,8.25,0,0,1,113.37,49l.47.55v0h0l0,.15h0a2.75,2.75,0,0,0-.48-.47A8.77,8.77,0,0,0,109,47.07c-.82.1-.59,1-.5,1.6A2,2,0,0,0,106,50.34a2.61,2.61,0,0,0,.26,1.12l0,.07s-.25-.13-.36-.41a3.53,3.53,0,0,1-.17-.7c-1.12.07-2.14.66-2.06,1.68a1.92,1.92,0,0,0,1,1.38" style="fill:#141000"/><path d="M135.23,100.85c-.78-.94-2.83-.47-2.83-.47a3,3,0,0,0-1.93-4.16,2.63,2.63,0,0,0-2.26.24l0,0,0,0-.22.18a1.57,1.57,0,1,0,2.67,1.44,1.57,1.57,0,0,1,.59.74c.88,2.8-2.27,3.8-2.27,3.8-6.94,2.08-11.19-1.5-11.19-1.5l1.21-.66a2.73,2.73,0,0,1,1.1-.24l0,.2a1.37,1.37,0,0,0,2.74,0,1.36,1.36,0,0,0-.18-.68h0l-.1-.15c-.82-1.23-3.62-.42-3.62-.42a5.06,5.06,0,0,0,.1-4c-.51-.85-.42-1.16-.42-1.16,0-.82-.2-.89-.2-.89a1,1,0,0,0-1.18-.27c-1.13.24-1.37-.22-1.37-.22-.93-.66-1.35-.26-1.35-.26-.4.27.15,1,.15,1-1,0-1.29,1.27-1.29,1.27-.42,2.11,1.33,2.28,1.33,2.28,1.25.07,1.27-1,1.27-1,.15-1-1.23-1-1.23-1,.24-.58.65-.57.65-.57,1.45-.36,2.13,1.28,2.13,1.28a3.15,3.15,0,0,1-.34,3.58.37.37,0,0,1-.48.1,13.35,13.35,0,0,1-2-1.22l-.11-.07h-.49a4.55,4.55,0,0,0-1.52.33c.57.6,2.39,2.13,2.39,2.13-1.38,1.07-2.17.33-2.17.33a2.89,2.89,0,0,1-.4-2.4l-.15.07c-.63.28-1.28.54-1.93.79l1.68,2.83c-1.59.59-1.93-1.54-2-2.7l-.94.35a1.82,1.82,0,0,1,.09.45,6.41,6.41,0,0,0,1.17,2.58,2,2,0,0,0-1.83.49,2,2,0,0,0-.66,1.77.8.8,0,1,0,.84-.85c.36-.87,1.2-.17,1.2-.17,1.22,1.1-.7,2.34-.7,2.34-1.37.91-2.68-.84-2.68-.84a10.31,10.31,0,0,0,1.66-5.46l-1.5.5a3.46,3.46,0,0,1-.92,3.63c-.46-.32-.52-1.56-.52-1.56a15.51,15.51,0,0,0-.48-1.51l-1.3.35a19.5,19.5,0,0,1,.69,3.57c-.25.3-1,.38-1,.38-1.13.1-.54-.53-.54-.53.57-.48.45-.82.45-.82-.34-.78-1.57-.05-1.57-.05-1.65.91-1.15,1.89-1.15,1.89.2.6,1.87,1.17,1.87,1.17a4.23,4.23,0,0,1-2.85.36,1.15,1.15,0,0,0-.85-1l-.11,0a1.06,1.06,0,0,0-1.07.44,1.19,1.19,0,0,0-.19.36l-1-.22c-.71-.11-1.11-2.14-1.32-3.91l-.85.1c.27,1.89.62,3.57.62,3.57a8.58,8.58,0,0,1-1.84-1,4.21,4.21,0,0,0-3.19-.75,2,2,0,1,0,2.35,2c.7.33,1.35.73,1.35.73a7.65,7.65,0,0,0,3.93,1.33,1.43,1.43,0,0,0,1.41,1.17,1.42,1.42,0,0,0,1.26-.76c3.82-.12,5.22-1.81,5.22-1.81.41-.53.49-.22.49-.22,1.41,2,4.12.79,4.12.79.52-.26.64.08.64.08a1,1,0,0,0,1.39.41c1.07-.55.44-1.23.44-1.23-.36-.38.08-.36.08-.36,1.27.19,1.52-.55,1.52-.55.26-.58-.65-1.08-.65-1.08-.25-.32.24-.58.24-.58.76-.44.64-.87.64-.87.95,0,.88-.42.88-.42,0-.38-1.17-.36-1.17-.36-.94-.1-.73-.58-.73-.58a18.54,18.54,0,0,0,3.5-.67,17.51,17.51,0,0,0,7.65,3.11,3.15,3.15,0,0,1-.1,1.16h-.08a.73.73,0,1,0,0,1.45l.2,0c1.47-.39,1.58-2.55,1.58-2.55a9.07,9.07,0,0,0,7-2.75c.42-.35.61-.24.7-.13h0a1.17,1.17,0,0,0,.92.44,1.19,1.19,0,0,0,1-.51,1.56,1.56,0,0,0,.22-.67v0h0a1.2,1.2,0,0,0-.24-.78" style="fill:#141000"/><path d="M85,106.21a1,1,0,0,0,.48-.65,1.84,1.84,0,0,0-.77-1.67l-1.49,0h0l-1.49,0a1.84,1.84,0,0,0-.77,1.67,1,1,0,0,0,.48.65s-1.06.45-1.07,1.18c0,0-.12.54.81,1.29A5.16,5.16,0,0,1,82,110s.06.81,1.18.81,1.17-.81,1.17-.81a5.33,5.33,0,0,1,.88-1.34c.93-.75.82-1.29.82-1.29,0-.73-1.07-1.18-1.07-1.18" style="fill:#141000"/><polygon points="92.79 101.58 93.33 101.53 92.98 100.89 92.79 101.58" style="fill:#141000"/><polygon points="74.34 101.61 74.89 101.67 74.68 100.97 74.34 101.61" style="fill:#141000"/><path d="M72.2,100.1l-.09,0-.11.85a1.46,1.46,0,0,0,.38,0l.17-.11a.48.48,0,0,0,.1-.25.42.42,0,0,0-.07-.34.6.6,0,0,0-.38-.14" style="fill:#141000"/><path d="M80.13,100.75a.47.47,0,0,0-.43.21,1.39,1.39,0,0,0-.17.7,1.46,1.46,0,0,0,.11.75.44.44,0,0,0,.4.24.5.5,0,0,0,.44-.19,1.38,1.38,0,0,0,.17-.73,1.52,1.52,0,0,0-.11-.72.48.48,0,0,0-.43-.26" style="fill:#141000"/><path d="M87,100.74a.46.46,0,0,0-.41.24,1.37,1.37,0,0,0-.11.7,1.44,1.44,0,0,0,.17.74.47.47,0,0,0,.42.22.53.53,0,0,0,.43-.23,1.34,1.34,0,0,0,.11-.74,1.51,1.51,0,0,0-.17-.71.46.46,0,0,0-.45-.22" style="fill:#141000"/><polygon points="68.16 100.71 68.7 100.81 68.54 100.1 68.16 100.71" style="fill:#141000"/><path d="M57.63,96.54l-.3.82.11,0a.39.39,0,0,0,.37,0,.54.54,0,0,0,.19-.26l0-.29-.11-.19a1,1,0,0,0-.28-.14" style="fill:#141000"/><path d="M60.28,97.45a.47.47,0,0,0-.47.09,1.4,1.4,0,0,0-.34.62,1.55,1.55,0,0,0-.09.76.5.5,0,0,0,.79.27,1.29,1.29,0,0,0,.36-.65,1.42,1.42,0,0,0,.08-.72.47.47,0,0,0-.34-.36" style="fill:#141000"/><path d="M62.83,98.21l-.09,0-.22.82a1.16,1.16,0,0,0,.38.07l.18-.08.13-.24a.41.41,0,0,0,0-.35.64.64,0,0,0-.35-.19" style="fill:#141000"/><path d="M104.15,98.25a.67.67,0,0,0-.4,0l-.08,0,.23.82a1.29,1.29,0,0,0,.36-.14l.11-.17,0-.27a.43.43,0,0,0-.2-.29" style="fill:#141000"/><polygon points="108.74 97.99 109.25 97.8 108.76 97.27 108.74 97.99" style="fill:#141000"/><path d="M109.51,98.55l-.07-.17.17-.09V98.2l-.06-.08,0,0-.12-.13-.64.24v.13l0,.17.09.1.18,0,.06.17-.69.26-.07-.17c.13-.05.2-.21.2-.47l0-1.87.19-.07L110,97.77c.12.14.22.22.29.23h.17l.07.17Zm-3.38,1.16,0-.14.61-2.21-.35.11a1,1,0,0,0-.41.21.53.53,0,0,0-.08.38l-.17.07-.15-.59,1.81-.58,0,.14-.61,2.21.48-.17a1,1,0,0,0,.29-.13l.13-.2a1,1,0,0,0,0-.32l.18-.05.17.64Zm-1.06.32a6.16,6.16,0,0,1-.5-.47l-.26-.24-.13-.05a1,1,0,0,0-.24,0l.15.51.1.19h.26l.05.18-1.17.32,0-.18h0l.2-.12V100l-.36-1.28-.11-.2h-.27l0-.18.86-.24.2-.05c.19,0,.33-.09.42-.1l.29,0,.27.14.14.24a.55.55,0,0,1-.29.65,2,2,0,0,1,.49.36,1.82,1.82,0,0,0,.38.29h.19l0,.18Zm-4.18,1.06,0-.18h0l.2-.11v-.23l-.3-1.3-.11-.2h-.26l0-.18,1.87-.44.17.56-.18,0-.16-.21-.16-.08-.2,0-.41.1.17.76.2,0,.19-.1v-.23l.18,0,.17.75-.18,0v0l-.08-.15s-.11-.06-.23,0l-.21,0,.13.54.07.19.11.06a.81.81,0,0,0,.25,0,1,1,0,0,0,.3-.13l.14-.23,0-.32.19,0,.15.73Zm-1-1.53.15.74a2.17,2.17,0,0,1,0,.39.76.76,0,0,1-.09.32.67.67,0,0,1-.27.28,1.1,1.1,0,0,1-.43.18,1.12,1.12,0,0,1-.47,0,.7.7,0,0,1-.36-.15l-.2-.25a1.44,1.44,0,0,1-.11-.34L98,99.84l-.1-.2a.35.35,0,0,0-.24,0l0-.18,1.17-.23,0,.19h0l-.2.1v.22l.17.88a1.32,1.32,0,0,0,.11.36l.22.2a.46.46,0,0,0,.33,0,.51.51,0,0,0,.32-.17l.14-.29a1.71,1.71,0,0,0,0-.42l-.14-.74a.31.31,0,0,0-.4-.27l0-.18.82-.16,0,.18-.14.07-.08.13Zm-2.61.55-.14-.23-.15-.1h-.22l-.36.05.12.77.18,0,.17-.08a.35.35,0,0,0,0-.23l.18,0,.13.76L97,101a.37.37,0,0,0-.1-.22l-.19,0-.17,0,.1.6.08.2a.28.28,0,0,0,.23,0h0l0,.18-1.2.2,0-.19h0l.2-.09,0-.22-.21-1.32-.08-.2-.22,0h0l0-.18,1.87-.3.11.59Zm-3.87,2.22,0-.18.18-.06,0-.07,0-.1,0-.05-.08-.15-.69.08,0,.11,0,.17.07.11h.17l0,.18-.74.09,0-.18c.14,0,.24-.15.3-.41l.49-1.81.19,0,.91,1.65c.09.16.15.26.22.29l.17,0,0,.18Zm-3.44.33v-.19h0a.31.31,0,0,0,.22-.07l0-.23-.11-1.33-.07-.21-.22,0h0l0-.18,1.21-.11,0,.19h0c-.11,0-.19,0-.21.08l0,.22.11,1.28,0,.19.09.07a.52.52,0,0,0,.25,0,.58.58,0,0,0,.42-.18.81.81,0,0,0,.17-.41l.18,0,.05.75ZM88,102.48a1.26,1.26,0,0,1-.9.38,1.45,1.45,0,0,1-.71-.14,1,1,0,0,1-.45-.43,1.4,1.4,0,0,1-.15-.56,1.18,1.18,0,0,1,.15-.6,1,1,0,0,1,.44-.44,1.31,1.31,0,0,1,.61-.17,1.26,1.26,0,0,1,.95.3,1.15,1.15,0,0,1,.36.83,1.1,1.1,0,0,1-.3.82m-3.75-1.65-.15,0L84,101l0,.22v1.72h-.21l-1.45-1.65v1c0,.17,0,.27.09.32l.23.07v.18H81.8v-.18l.18,0,.1-.12,0-.22v-1.15c0-.23-.11-.35-.32-.35v-.19h.76L83.79,102v-.82c0-.24-.11-.37-.31-.37v-.18h.8ZM81,102.57a1.25,1.25,0,0,1-.93.3,1.42,1.42,0,0,1-.7-.19,1,1,0,0,1-.41-.47,1.36,1.36,0,0,1-.11-.56,1.13,1.13,0,0,1,.19-.59.94.94,0,0,1,.48-.41,1.39,1.39,0,0,1,.62-.13,1.3,1.3,0,0,1,.92.38,1.19,1.19,0,0,1-.07,1.66m-2.68-1.93-1.41,1.81.52,0a1,1,0,0,0,.32,0l.19-.13a.85.85,0,0,0,.16-.28l.19,0-.09.67-2-.15v-.14l1.39-1.81-.36,0a.88.88,0,0,0-.47,0,.58.58,0,0,0-.22.31l-.17,0,.07-.59,1.89.14Zm-2.42,1.93-1.11-.11,0-.18H75l0-.07,0-.11,0,0,0-.17-.69-.07-.06.1-.06.17,0,.11.19,0,0,.19-.75-.07,0-.18c.14,0,.27-.09.39-.32l.87-1.67.2,0L75.6,102a.68.68,0,0,0,.16.33l.15.07Zm-2.47-.24-.7-.1a5.34,5.34,0,0,1-.28-.63,2.14,2.14,0,0,0-.14-.32l-.1-.1a.6.6,0,0,0-.23-.06l-.07.53,0,.21.21.1h0l0,.18-1.2-.15,0-.19h0a.3.3,0,0,0,.23,0l.08-.2.17-1.32,0-.22-.21-.09h0l0-.18.89.12.2,0a2.47,2.47,0,0,1,.44.08l.25.12.19.23,0,.29c0,.26-.21.42-.52.48a1.8,1.8,0,0,1,.31.52,2.34,2.34,0,0,0,.23.41l.18.08Zm-3.79-.54-1.1-.2,0-.18h.19l0-.07v-.16l0-.17-.68-.13L68,101l-.08.15,0,.12.17.06,0,.19-.73-.13,0-.18c.13,0,.27-.07.41-.3l1-1.59.2,0,.38,1.84a.68.68,0,0,0,.13.34l.15.08Zm-2.47-.45-2-.44,0-.17h0c.11,0,.19,0,.23,0l.09-.2.28-1.3V99l-.2-.11h0l0-.17L66.8,99l0,.17h0l-.23,0-.09.2-.27,1.26,0,.2.07.08a.56.56,0,0,0,.23.09.59.59,0,0,0,.47-.05.75.75,0,0,0,.28-.35l.17,0Zm-3.69-1.48a1.77,1.77,0,0,0,.17.44l.16.11,0,.18-.68-.19a4.53,4.53,0,0,1-.2-.65,2.66,2.66,0,0,0-.09-.34l-.08-.11a.62.62,0,0,0-.23-.08l-.14.51V100l.2.11h0l0,.18-1.17-.32,0-.18,0,0h.23l.1-.19.35-1.28v-.23l-.2-.11,0,0,0-.18.87.24.2,0a3.81,3.81,0,0,1,.42.13l.24.16.15.26v.29a.55.55,0,0,1-.58.42,2.07,2.07,0,0,1,.25.56m-2.28-1.12a1.1,1.1,0,0,1-.57.67,1.25,1.25,0,0,1-1,0A1.41,1.41,0,0,1,59,99.1a1,1,0,0,1-.28-.56,1.3,1.3,0,0,1,0-.57,1.16,1.16,0,0,1,.9-.79,1.45,1.45,0,0,1,.64.06,1.23,1.23,0,0,1,.78.6,1.19,1.19,0,0,1,.07.91m-2.6-1.38a.56.56,0,0,1-.26.31.66.66,0,0,1-.39.08,2.31,2.31,0,0,1-.52-.14l-.16-.05-.19.5,0,.22.18.13,0,0-.07.17-1.15-.42.07-.17h0l.23,0,.12-.19L57,96.6l0-.21-.18-.13-.05,0,.06-.17.86.29.49.2a.81.81,0,0,1,.29.21l.14.29Zm21.51,2.51.67,0-.79.5h-.14Zm30.75-4.73a1.31,1.31,0,0,0-.77-.23,1.47,1.47,0,0,0-.51.09c-1,.27-10.57,4.48-26.36,4.49S57.87,95.27,56.85,95a1.51,1.51,0,0,0-.52-.09,1.3,1.3,0,0,0-.77.23l-3.23,2.54h0a5.75,5.75,0,0,1,2,.51c8.41,3.69,18.06,5.2,28.84,5.3,10.79-.1,20.43-1.62,28.84-5.3a5.75,5.75,0,0,1,2-.51h0Z" style="fill:#141000"/><path d="M73.14,63.79A11.77,11.77,0,0,1,71.88,63l-1.18.75Z" style="fill:#141000"/><path d="M78.85,63.26c-.22.1-.65.28-1,.47l-.14.06H87.87l-.14-.06c-.36-.19-.8-.37-1-.47l-.13-.06a11.1,11.1,0,0,0-1.32-.45h-5A10.73,10.73,0,0,0,79,63.2Z" style="fill:#141000"/><path d="M94.14,63.05l0,0a8.27,8.27,0,0,1-1,.72h2.13c-.38-.26-.76-.52-1-.7Z" style="fill:#141000"/><path d="M70.53,83.37V78.1a6.53,6.53,0,0,0,0,5.26" style="fill:#141000"/><polygon points="82.78 74.54 73.03 71.4 80.64 71.4 82.78 74.54" style="fill:#141000"/><path d="M82.74,64.48h-13v0a.45.45,0,0,0,.14.34c.07.08.26.32.52.68h12Z" style="fill:#141000"/><path d="M82.21,66.22H70.88c.18.3.37.65.56,1H81.9Z" style="fill:#141000"/><path d="M81.69,68h-10c.13.33.25.67.36,1h9.28Z" style="fill:#141000"/><path d="M81.16,69.69h-8.9c.07.33.12.68.15,1h8.43Z" style="fill:#141000"/><path d="M75.48,73.15H72.4a8.4,8.4,0,0,1-.21,1h4.74Z" style="fill:#141000"/><path d="M74.52,72.47l-1.45-1h-.62v.1a5.53,5.53,0,0,1,0,1Z" style="fill:#141000"/><path d="M82.83,64.48l0-.15v10.2l9.75-3.13H84.92l-.2-.67H93.3a8.07,8.07,0,0,1,.19-1H84.4l-.21-.7h9.49c.11-.36.24-.71.38-1H83.88l-.21-.69H94.38q.29-.57.57-1H83.35l-.21-.69H95.4a10.56,10.56,0,0,1,.69-.91l.08-.13Z" style="fill:#141000"/><path d="M85.12,80.1v7.81a5.58,5.58,0,0,1,1-.54V80.89Z" style="fill:#141000"/><path d="M83.36,78.75V90l.39-.64.05-.09a3.77,3.77,0,0,1,.6-.82v-9Z" style="fill:#141000"/><path d="M81.62,79.2v9.08a3.81,3.81,0,0,1,.84,1l.05.08.15.24V78.41Z" style="fill:#141000"/><path d="M79.89,80.51v6.77a5.65,5.65,0,0,1,1,.49V79.73Z" style="fill:#141000"/><path d="M86.86,87.12a8.78,8.78,0,0,1,1-.24V82.2l-1-.79Z" style="fill:#141000"/><path d="M78.16,86.85c.31,0,.67.12,1,.22V81l-1,.79Z" style="fill:#141000"/><path d="M77.47,75.93h.69V79l-.69,2Zm5.31-1.4-3.56,1.31-1.33-1H72c-.11.33-.24.68-.39,1s-.24.52-.38.8v7.71a5.43,5.43,0,0,0,1,1V75.93H73v9.9a7.1,7.1,0,0,0,1,.46V75.93h.69V86.49a8.72,8.72,0,0,0,1,.18V75.93h.7v10.8l.44,0,.6,0V82.36l-.61.46Z" style="fill:#141000"/><path d="M88.58,82.46l-.68-2v-4.5h.68ZM94,75.93h0c-.16-.37-.29-.72-.4-1h-6l-1.33,1-2.6-1-1-.35,5.8,8.2v4.06c.41,0,.71,0,.81,0h.24V75.93h.69V86.7a8.86,8.86,0,0,0,1-.16V75.93h.69V86.36a6.81,6.81,0,0,0,1-.42v-10h.69v9.62a6.21,6.21,0,0,0,1-.79l.08-.11V77.52A15.59,15.59,0,0,1,94,75.93" style="fill:#141000"/><path d="M88.63,74.2h4.8a8.75,8.75,0,0,1-.2-1H90.09Z" style="fill:#141000"/><path d="M92.5,71.42l-1.46,1h2.14a4.79,4.79,0,0,1,0-.73v-.32Z" style="fill:#141000"/><path d="M97.75,46.75h0l0,0a4.64,4.64,0,0,1,0-.5,3.51,3.51,0,0,0-.06-1.26c-.5-2.12-2.24-2.87-3.51-1.62a3.7,3.7,0,0,1,4.43-1.62,3,3,0,0,1,1.75,1.79,2.56,2.56,0,0,1,0,2.14h0l0,0a3.8,3.8,0,0,0-.33-1.93,1.88,1.88,0,0,0-1-1.09,7.24,7.24,0,0,1,.67,1.14,2.08,2.08,0,0,1,.2.89A3.63,3.63,0,0,1,98.89,47h-.05v0A3.68,3.68,0,0,0,99,43.91l-.14-.28a2.24,2.24,0,0,0-1.9-1.36A3.21,3.21,0,0,1,98,43.61c.53,1.21.43,2.58-.23,3.14M86.66,36a2.88,2.88,0,0,1,2.26,2.12c.07,1.09-.54,1.42-.65,1.37l0-.13a2.7,2.7,0,0,0-.38-2.55A4.53,4.53,0,0,0,86.66,36M85.48,54.83c-.4-.72.67-1.61.92-2.32,1.31-.2-.35,2.12-.92,2.32m.26,2c-.29-.13-.3-.7-.26-1,.11-.7.92-1,1.29-1.4.09,0,0,1.11-1,2.36M86,48.72c.94.39-.48,2.3-.6,2.66.22-.1,1-.93,1.29-.67.49.41-1,2.37-1.4,2.5-2.11-2.76.59-3.57.7-4.49m-1.62,8.87c-.34-.1-.15-.7-.15-1a15.12,15.12,0,0,0-.41-4.16,24.43,24.43,0,0,0-2-5.08,15.56,15.56,0,0,1,2.77,6c.15,1.31.41,3-.23,4.2m-1.18-.88c-1,0-1.12-.68-1.3-1.43.44.35,1,.82,1,0-.36-.32-2.61-.9-2-1.88.37-.53,1.57,1.61,1.91.89.21-1.44-4.28-1.89-4.15-3.13,0-.67,3.54,1.71,4,1.66,0-.76-5.24-2.87-6.82-5.71-.11-.2-.18-.38-.14-.41l.05,0a12.2,12.2,0,0,0,6.69,4.47c1.08.3,1.61,3.77.73,5.49M72,49.53c.51-1.38.76-3.48-1.42-4-1.71-.42-3.23.85-4,1.56A3.65,3.65,0,0,1,71,44.83c-.46-1.31-2.15-1.86-4.1-.78a6.28,6.28,0,0,0-1.14.84,3.45,3.45,0,0,1,2.1-2.06,3.71,3.71,0,0,1,3.76.8c2.42,2.38,1.09,5.72.36,5.89m-4.25,1.19c1.2-.3,2.25-.94,1.94-2.08a.88.88,0,0,0-.82-.62,1.66,1.66,0,0,0-1.46.93,1.56,1.56,0,0,1,1.8-1.62,1.79,1.79,0,0,1,1.44,1.18c.33,1.66-1.19,2.35-2.9,2.2m30.44.15a4.8,4.8,0,0,0,.85,0c3.24-.84,3.37-4.84,2.83-5.09l0,0a4.34,4.34,0,0,1-.27.69c-.2.41-.45.67-.53.64v-.09a3.89,3.89,0,0,0,.32-3.43,3.69,3.69,0,0,0-1.25-1.74c-1.63-1.15-4.92-1.34-6.69,0a6.14,6.14,0,0,0-2.32-1.41,6.26,6.26,0,0,1-2.3,3,3.24,3.24,0,0,1-1,.5s-.23,0,0-.22a4.71,4.71,0,0,0,2.61-4v0a5.74,5.74,0,0,0-1.26-3.46c-1.59-1.72-5.85-2-7.8-.33a4.13,4.13,0,0,0-1,2,2.33,2.33,0,0,1,1.58-1.49c.86-.27,2.52-.08,2.77.92-1.47-1.5-4.13-.39-4.49,2.15v0c0,.17-.12.18-.12.18h0c-.08,0-.17,0-.14-1.15a7.16,7.16,0,0,1,.57-2.33c-3.27-.59-7.2,1-7.13,5.88a3.4,3.4,0,0,0,.92,2c.12.14,0,.2,0,.2s-.51-.23-.74-.55a4.72,4.72,0,0,1-.75-1.61,9.59,9.59,0,0,0-4.49-.64,5.92,5.92,0,0,0-3.35,1.91,7.9,7.9,0,0,0-.74,1.18,5.57,5.57,0,0,0,1.92,7.17,8.9,8.9,0,0,0,5.18.77,3.94,3.94,0,0,0,1.48-.62l.18-.14.09-.07a3.61,3.61,0,0,0,1.16-3l.07-.08c.08,0,.19.35.19.81A4.82,4.82,0,0,1,74.14,51v.26a1.13,1.13,0,0,0,.22.52,1.94,1.94,0,0,0,2,.25l.09,0a1.51,1.51,0,0,1-1.34.59,2.3,2.3,0,0,1-.53-.05,3.64,3.64,0,0,0,3.23,1.3l.07.05c0,.08-.35.2-.81.2a4.56,4.56,0,0,1-2-.45,5.62,5.62,0,0,0,3.76,1.8c.05.23-1.47,0-1.91-.1.9,3.53,2.79,3.13,2.83,3.37a1.11,1.11,0,0,0-.56,1.63,10.46,10.46,0,0,1,8,0,.94.94,0,0,0,.12-.92c-.31-.88-3-1.57-5.58-.82a1.71,1.71,0,0,0-.33.18h0l0-.07h0l.34-.22a6.23,6.23,0,0,1,4.7-.18h0a1.31,1.31,0,0,0,1.71-1.54,1.29,1.29,0,0,0,1.46-1.25,4.32,4.32,0,0,1-.42.2h0a.87.87,0,0,1-.58.12v0h0L89,55.7c1.5-.86,2.21-2.54,2.06-3.06a1.2,1.2,0,0,1-1,.56c-.24,0-.38,0-.38-.07l0,0a1.16,1.16,0,0,0,.5-.21,4.07,4.07,0,0,0,1.23-1.63,8.24,8.24,0,0,1-1.78-3.3,1.6,1.6,0,0,0-1.28-1.09h-.27l-.23,0h0c.71-.59,1.49,0,2,.31.07-1.31.54-1.65.59-1.63v.06a5.42,5.42,0,0,0,2.28,6.06,7.15,7.15,0,0,0,7.53-.76,4.7,4.7,0,0,1-1.22.2c-.46,0-.81-.1-.81-.18Z" style="fill:#141000"/><path d="M125.36,88.17a20.09,20.09,0,0,1-.74,3.19c2-18.41.91-23,.57-22.9s-.63,2.27-1.64,1.61,2.29-4.7,1-6.94c-.3-.36-.58.51-1.1.35-1.35-.45.74-3.95.35-4.32s-1.31-.47-1.35-1.78c0-.58.39-1.06-.09-1.56s-.3.35-.7.17c-.63-.67-.05-1.44-.36-1.94-.18-.13-.61.41-1,.14s.2-.89-.25-1.11a1.55,1.55,0,0,0-1.31,1.72c.1.51.69.85.65,1.42s-.64,1.09-.75,1.34c-.88,2,.6,2.4.39,3.1-.1.33-.72.53-1.13.37s-.66-2-.48-2.73,1.35-1.84,1.35-2.3-.56-1.09-.62-1.78a1.63,1.63,0,0,1,1.78-1.9,3,3,0,0,1,1.57,1.24c.17.2.41.37.54.54a19.41,19.41,0,0,1,2.81,6.41c1.77,6.41,2.59,16.51.49,27.66M116.27,62a4.6,4.6,0,0,1-1.53.76,2.1,2.1,0,0,1-2.25-.69c.71-.23,1.33.26,2.29.14a6.77,6.77,0,0,0,.91-.17c.29-.1.5-.38.8-.38.11.12-.12.25-.22.33M106.1,92.48h0l0,.15a5,5,0,0,1-1.66-.79,1.36,1.36,0,0,0-1.06-.23h0c-.45.2-.66.66-.91.88l-.07-.26v0l0-.21v-.08l0-.17,0-.08.1-.2.08-.11.07-.07.14-.1.05,0a1.62,1.62,0,0,1,.86-.15h0a2,2,0,0,1,1.17.45,2.91,2.91,0,0,0,1.59.45,3.37,3.37,0,0,0-.32.59M64.18,90.08l0,.11,0,0-.06,0a1,1,0,0,1-.4.07,4.4,4.4,0,0,1-.74-.08.4.4,0,0,0,.21.39h0l.2.11.32.15c0,.25-.42.41-.63.41-.44,0-.73-.49-.88-.78L62,90.47l-.1-.07a3.7,3.7,0,0,0-1.52-.32c.1-1,2.87-.32,2.94-.3a3.31,3.31,0,0,1,.88.23Zm42.94-6.9a4.35,4.35,0,0,1-3.73-1.9,7,7,0,0,0,1.6,1.11,3.76,3.76,0,0,0,3.35-.41h.17c.11.11,0,.92-1.39,1.21m-8.24-1.6h0l-.11.15h0l-.12.11h0l-.12.07h0l-.13,0h-.22l-.12,0-.07,0-.13-.07-.08,0-.16-.13-.07-.05s-.29-.5.16-.56l.17.17,0,0,.11.06h.16l.08-.06,0,0,0-.09,0,0,0-.17v-.07l0-.14v-.24a7.59,7.59,0,0,1,.24-2.23l.07-.08,0,0,.09,0h0l.12,0,0,0,0,.06,0,.07,0,.1v.32c0,.22,0,.48,0,.78v.14h0a4.94,4.94,0,0,0,0,.57,2.32,2.32,0,0,1-.28,1.39m-3.16,2.69c-.18.29-1.89,2.93-6.34,2.93-.41,0-4,.07-5.2,2.34l-.07.1c-.15.25-.6,1-.8,1.37l-.2.12-.2-.12c-.2-.4-.65-1.12-.79-1.37l-.07-.1c-1.22-2.27-4.8-2.34-5.2-2.34-4.46,0-6.16-2.64-6.34-2.94-2.22-3.26-.14-6.94-.11-7C72.24,74.12,72.06,72,72,71.56a10.6,10.6,0,0,0-2.43-6.41.88.88,0,0,1-.25-.7.72.72,0,0,1,.37-.54c.49-.34,1.55-1,2-1.28l.21-.13.16-.05c.14,0,.25.09.45.25a4,4,0,0,0,2.65,1,4.89,4.89,0,0,0,.76-.06,8.8,8.8,0,0,0,2-.73c.38-.2.83-.4,1-.49l.1,0a10,10,0,0,1,8.2,0l.11,0c.2.09.68.3,1.06.5a8.53,8.53,0,0,0,2,.73,4.84,4.84,0,0,0,.76.06,4,4,0,0,0,2.64-1c.2-.16.32-.25.46-.25l.19.08.22.13c.47.3,1.48.94,2,1.29a.77.77,0,0,1,.31.5.86.86,0,0,1-.25.7,10.6,10.6,0,0,0-2.43,6.36c-.06.45-.24,2.61,1.59,5.77.09.17,2,3.81-.12,7m-26.32-6-.05.15-.11.26-.06.11-.09.16-.07.1-.17.21,0,0-.16.14-.07.05-.22.13h0l-.23.08h0a1.39,1.39,0,0,1-.3,0l0-.2h0c0-.29.3-.54.43-.87s.1-.5.27-.72c.3,0,.54.07.63-.2a1.1,1.1,0,0,1,.1-1.66c.81-.83,0-2.58.15-2.8a2.6,2.6,0,0,1,.5,1.52l0,.18v1.47l0,.15,0,.3,0,.19,0,.2,0,.15,0,.19-.07.28-.05.16ZM97,74.67a2.07,2.07,0,0,1,.39,0h0a1.64,1.64,0,0,1,.41.05,2.17,2.17,0,0,1,.47,1,3.36,3.36,0,0,0,.51,1.13c.26.25.16.75-.47.67h0a1.77,1.77,0,0,1-1.1-2.18,1.38,1.38,0,0,0-.47,0h0l-.24.07-.07,0-.12.07-.1.06c-.15.14-.22.38-.44.39a1.22,1.22,0,0,1,.57-1h0a2,2,0,0,1,.69-.28M69,70.62c-.35.08-.42-1.5-2.33-1.12a2.81,2.81,0,0,1-2.45-.1c2.71-1.53,5,0,4.78,1.22M59.64,59.76c-1.26-.44-2.7-.64-3.24-1.66,1.82.14,3.63.17,4.78.81l.14.09a4.48,4.48,0,0,1,1.72,2.41,13.77,13.77,0,0,0-3.41-1.65m-4-6.14c-.46,0-.82-.34-1.25,0,0,0-.64.49-.51,1.07a.43.43,0,0,1-.7.33c-.42-1,1.13-2.3,1.51-2.42.88-.32,1.54.22,2.51.36.56.08,1.16,0,1.62,0,1,.09.76.85.58,1-.86.24-1.35-.42-2.09-.53-.53-.06-1.12.24-1.65.19m-1.47,1.2c1.16.44,1.26-1,1.55-.7.4.68-.71,1.71-1.55.7M47.12,97.7h0c.17.14.39.26.56.41l.14.16c-.1.21-.32.2-.59.08h0l-.06,0a4.67,4.67,0,0,1-.64-.38c-.22.32.18.64.38.91a.3.3,0,0,1-.26.17h0a.87.87,0,0,1-.44-.05h0c-.4-.19-.47-.76-.48-1.07a1.32,1.32,0,0,0-.66-1c.77-.5,2,.75,2.06.85m55.81-36a2.63,2.63,0,0,1-1.5,1.4,3,3,0,0,1-2.67-.92,8.53,8.53,0,0,0,2.18.46,3.63,3.63,0,0,0,1.95-1Zm-5-6.42-.17,0a4.08,4.08,0,0,0-3.32.19,8.13,8.13,0,0,0-1.52,1.25,5,5,0,0,1,3.58-2.3c1.38,0,1.53.71,1.43.83m29.49,18.18a61.81,61.81,0,0,0-1.93-13.79c-.75-2.56-2.2-7.82-5.6-8.54a2.42,2.42,0,0,0-2.77,2.48c0,1.15.82,1.7.48,2.84a9.59,9.59,0,0,0-1.06,2.37c-.2.82.53,1.16.3,2-1-.15-1.57.7-3.1.39a4.87,4.87,0,0,1-2.8.28l.07,0c1.52,0,2.89-.54,3.18-1.21a3.15,3.15,0,0,0-.63-3.11,8,8,0,0,1-4.34.75c-2.5-.15-3.12.32-3.46,1.83a1,1,0,0,1-.13-.72c.1-.83.93-1.34,1.94-1.45a1.83,1.83,0,0,0,.24-1,4.25,4.25,0,0,0-1.24,0c-1.19.18-2.83.86-3.24,2a2.45,2.45,0,0,0-.08.62,3.52,3.52,0,0,0,.09.53c0,.13.09.25.12.38.38.82,1.32,1.28,3.32,1.37l.08.07c0,.08-.41.16-.92.11a4,4,0,0,1-2.69-1l-.15.17A3.78,3.78,0,0,1,100.83,62a3,3,0,0,1-2.26-1c-1.2-1.62.35-4.42.33-5.46-.07-2.79-3.87-1.53-5.25-.81a13.65,13.65,0,0,0-4.09,3.64A12.47,12.47,0,0,0,88,60.79a8.8,8.8,0,0,0,3,.88H91l.39,0a3.89,3.89,0,0,0,2.45-.76,1.38,1.38,0,0,1,.88-.33,1.36,1.36,0,0,1,.95.4c.2.16,2.59,2.07,3.37,2.6a.9.9,0,0,1,.38.61,1,1,0,0,1-.3.83A13.54,13.54,0,0,0,97,68.57h0c-.11.28-.22.57-.31.86-.29,1-.49,2.64.93,3.14,0,0,1.57.41,1.45-2.19,0,0,.25,1.67,1.47,1.61.51,0,1-.54.9-1.66h0a13.93,13.93,0,0,1,.11-3.66l0-.14a2.71,2.71,0,0,1,.11.67c.08.67-.39,6.69,4.54,10.77a9.2,9.2,0,0,1-3.53-3.58,3.19,3.19,0,0,0-1.45,3.82,3.45,3.45,0,0,0,1.22,1.72l.05.11c0,.1-.26.3-.72-.15l-.21-.25a5.09,5.09,0,0,1-.4-.75c-.57-.49-1.09-1-1.6-1.56h0c-.4-.81-.18-3.22-2.54-3.22h-.22a2.3,2.3,0,0,0-.41.05h-.08a8.83,8.83,0,0,1-.41-3.65,13.18,13.18,0,0,1,2.87-5.85.53.53,0,0,0,.17-.4.31.31,0,0,0-.13-.21h0c-.81-.54-3.16-2.42-3.42-2.63l0,0a.86.86,0,0,0-.58-.25.84.84,0,0,0-.51.19,4.47,4.47,0,0,1-2.81.91,2.8,2.8,0,0,1-.45,0h0a9.63,9.63,0,0,1-3.39-1h0a12.19,12.19,0,0,0-4.46-1,12.24,12.24,0,0,0-4.47,1,9.62,9.62,0,0,1-3.39,1h0a4,4,0,0,1-.47,0,4.48,4.48,0,0,1-2.8-.89l0,0a.85.85,0,0,0-.51-.18.83.83,0,0,0-.57.25l0,0c-.26.22-2.61,2.09-3.42,2.63h0a.31.31,0,0,0-.13.21.57.57,0,0,0,.17.4,13.09,13.09,0,0,1,2.88,5.85,5.75,5.75,0,0,1,0,1.32c-.2-.64-.38-1.21-.54-1.62a2.56,2.56,0,0,0-.34-.88h0a3.68,3.68,0,0,0-1.34-1.19,12.94,12.94,0,0,1-1.29-.59,4.69,4.69,0,0,1-1.69-1.69,5.33,5.33,0,0,0-.83-2.73c.23-.11,1.18.58,1.25,2.27a9.77,9.77,0,0,0,2.08-4.77c.85-1.16,3.22-.7,4.12-.55a2.12,2.12,0,0,1,.81.26c.25.19.31.58.66.73a2.69,2.69,0,0,0,1.25,0,2.43,2.43,0,0,1,.33.6l.3,0h.07a9.31,9.31,0,0,0,3.19-.95l0,0,.2-.08a3.05,3.05,0,0,0-2-.92c-.88-.14-1.37-.89-2.21-1.07a3.37,3.37,0,0,0-1.2-.07c-1.87.24-3.2-.46-4.94-.59s-1.72,1-2.31,2a6.28,6.28,0,0,1-.77,1c-.46.45-1,.46-1.54.89l-.08-.05a6.31,6.31,0,0,0-.78-2.14l0,0-.12-.21a6,6,0,0,0-3.94-3,2.16,2.16,0,0,1-.7-.38.34.34,0,0,1,0-.59c.57-.33,1.56-.21,2.21-.51,1.59-.75,1-2.09.41-2.21a14.17,14.17,0,0,1-2.54-.7c-.39-.24-.62-.92-1.25-1.14a2.8,2.8,0,0,0-1.32-.08c-.39.05-.64.34-.92.29a2.35,2.35,0,0,1,1.8-.84c-.7-.19-.46-1.33-1.1-1.59a2.09,2.09,0,0,0-1.15.31c0-.36-.25-1.56-.92-2s-.73.17-.7.48.82.61,1,1.85l-.42.29a2.5,2.5,0,0,0-.86-1.6c-.54-.31-.73.16-.7.48s.72.57.92,1.62l-.53.46c-1.08-.29-1.32-1-1.58-1.1s-.8.09-.54.66a2.49,2.49,0,0,0,1.55,1l-.33.38c-1.25-.25-1.5-1.09-1.78-1.15s-.8.09-.55.65c.33.72,1.57,1,1.89,1.12a1.28,1.28,0,0,0-.26.88c-1-.11-2.68.41-2.36,1.55.32.23,1.47-.7,2.51-.18a3.82,3.82,0,0,0,2.06,1.32,2.76,2.76,0,0,1,.62,1.37,11.38,11.38,0,0,0,1.51,2.49c.6.91,1.22,1.86,1.84,2.65a1.61,1.61,0,0,1,.11.78c-.71,1.13-2.85,2.46-3.72,3.27s-9.22,7.17-10.27,9.93a5.86,5.86,0,0,0-.33,2.25,1.69,1.69,0,0,1-1.66-.18c-.55-.65.57-1.27.3-2.14a.73.73,0,0,0-.93-.33c-.61.22-.74,1.46-.44,2.21.09.21.42.48.17.64s-.51-.19-.51-.63a.71.71,0,0,0-.25.72c.16.61.9.62,1.15.78,0,.27-.45.39-.72.14-.46.67.05.93.16,1,.5.09,1-.36,1.37-.41.14.35-.11.45-.63.6.83,1,1.57-.73,2.51-.52.29.06,2.9,2.51,2.46,4.38l-.18.44c-.59.72-1.55,1.27-2.21,2-1.37.87,1.3,6.36,1.09,9.17-.17,1.1.94.89,1.58,2.68a2,2,0,0,0-1.67.68l-.11.15h0a1.31,1.31,0,0,0-.18.68,1.37,1.37,0,0,0,2.74,0l0-.2a2.71,2.71,0,0,1,1.1.24l1.21.66s-4.25,3.58-11.19,1.5c0,0-3.15-1-2.27-3.8a1.57,1.57,0,0,1,.59-.74,1.56,1.56,0,0,0,1.53,1.22,1.57,1.57,0,0,0,1.57-1.57,1.55,1.55,0,0,0-.44-1.09l-.22-.18,0,0,0,0a2.67,2.67,0,0,0-2.27-.24A3,3,0,0,0,34,100.38s-2-.47-2.82.47a1.16,1.16,0,0,0-.24.78h0v0a1.62,1.62,0,0,0,.21.67,1.21,1.21,0,0,0,1,.51,1.19,1.19,0,0,0,.92-.44h0c.09-.11.29-.22.71.13a9.06,9.06,0,0,0,7,2.75s.12,2.15,1.58,2.55l.21,0a.72.72,0,1,0,0-1.45h-.08a3.19,3.19,0,0,1-.09-1.16A17.5,17.5,0,0,0,50,102.12a18.66,18.66,0,0,0,3.5.67s.2.48-.73.58c0,0-1.2,0-1.18.36,0,0-.08.43.88.42,0,0-.12.44.64.87,0,0,.49.26.23.58,0,0-.91.5-.64,1.08,0,0,.25.73,1.52.55,0,0,.44,0,.08.36,0,0-.63.67.44,1.23a1,1,0,0,0,1.39-.41s.12-.34.63-.08c0,0,2.71,1.23,4.12-.79,0,0,.09-.31.49.22,0,0,1.4,1.69,5.21,1.81a1.44,1.44,0,0,0,2.68-.41,7.71,7.71,0,0,0,3.94-1.33s.64-.4,1.35-.73a2,2,0,1,0,2.34-2,4.21,4.21,0,0,0-3.18.75,8.49,8.49,0,0,1-1.85,1s.35-1.68.63-3.57l-.85-.1c-.21,1.77-.62,3.8-1.33,3.91l-1,.22a1.31,1.31,0,0,0-.19-.36,1.08,1.08,0,0,0-1.08-.44l-.11,0a1.14,1.14,0,0,0-.85,1,4.2,4.2,0,0,1-2.84-.36s1.67-.58,1.87-1.17c0,0,.49-1-1.15-1.89,0,0-1.23-.72-1.57.05,0,0-.12.35.44.82,0,0,.6.63-.54.53a2,2,0,0,1-1-.38,19.16,19.16,0,0,1,.7-3.57l-1.3-.35a15.55,15.55,0,0,0-.48,1.51s-.07,1.24-.52,1.56a3.46,3.46,0,0,1-.92-3.63l-1.5-.49a10.29,10.29,0,0,0,1.66,5.46s-1.31,1.75-2.68.84c0,0-1.92-1.24-.7-2.34,0,0,.84-.7,1.2.17a.82.82,0,0,0-.78.81.81.81,0,0,0,.81.81.8.8,0,0,0,.8-.76,2,2,0,0,0-.66-1.77,2,2,0,0,0-1.83-.49,6.32,6.32,0,0,0,1.17-2.58,1.94,1.94,0,0,1,.08-.45l-.93-.35c-.07,1.16-.42,3.29-2,2.7,0,0,1-1.71,1.68-2.83-.64-.25-1.27-.51-1.9-.78L54,98.51a2.88,2.88,0,0,1-.4,2.39s-.79.74-2.17-.33c0,0,1.83-1.53,2.39-2.13a4.58,4.58,0,0,0-1.51-.33h-.5l-.1.07a13.21,13.21,0,0,1-2,1.22.37.37,0,0,1-.48-.1,3.15,3.15,0,0,1-.33-3.58s.67-1.64,2.12-1.28c0,0,.42,0,.66.57,0,0-1.39.05-1.23,1,0,0,0,1,1.27,1,0,0,1.75-.17,1.33-2.28,0,0-.3-1.27-1.29-1.27,0,0,.56-.7.16-1,0,0-.42-.4-1.35.26,0,0-.24.46-1.38.22A1,1,0,0,0,48,93.2s-.2.08-.2.89c0,0,.09.32-.42,1.16a4,4,0,0,0-.33,1.49,2.62,2.62,0,0,0-1.16-.54c-.57-.6-.61-3.38-1.21-4.74-.14-.32.27-1.73.28-3.24a8.15,8.15,0,0,0,6.22-5.53,10.55,10.55,0,0,0-.32-5.32H51a7.4,7.4,0,0,1,.47,1.09,10,10,0,0,0,4.39-.52l.16-.06.2-.08.5-.23.17-.09A12.41,12.41,0,0,0,62,72.16,3.94,3.94,0,0,1,59.86,71c1.08.09,1.9.54,3,.55,1.59,0,2.66-.88,4.41-.67,0,.1.24.83,1.37,1.29A7.82,7.82,0,0,0,69,74.85a1.41,1.41,0,0,0,.15.33s-1.32,1-1,1.87l.26.66-.18,0c-.19-.09-.42.26-.72.72-.15.24-.85,1.68-.32,1.8a2,2,0,0,0,.33,0,6.84,6.84,0,0,0,1,5.23v0c.08.12,2,3.23,7.09,3.23h.08c.51,0,5,.09,6.6,3.08.09.17.45.67.84.67s.74-.5.84-.67c1.6-3,6.09-3.08,6.6-3.08h.08c5.11,0,7-3.11,7.09-3.23v0a6.31,6.31,0,0,0,1-2.77c1-.55.95-2.81,1-3.21a3.66,3.66,0,0,0,2.12,1.82c-.2,1.07-.14,2.83,1,3.06.35,0,.64-.48.55-.88,1,2.82.17,4.56.91,4.77,1,0,1-1.67,1.08-1.72a2.83,2.83,0,0,1,.41,1.42c0,.88-.11,1.75.29,1.9,1.32.22.69-3.64,1.71-3.25-.25,1.71,0,2.67.7,3,0,.78-.11,1.54-.43,1.54-1.9.42-3.63-1.07-5.28-.63l-.17-.11c-3-1.63-5-.39-5.15-.55-.85-.79-1.18.39-1.43.26-1.59-.9-2.47.63-2.89.7s-1-.8-1.78,1c-.33.79-2.11,1.13-2.25,1.18a.75.75,0,0,1-.88-.41,3.83,3.83,0,0,0-.21-.52,1.15,1.15,0,0,0-.26-.35.88.88,0,0,0-.72-.24,1,1,0,0,0-.94,1,1,1,0,0,0,.21.61c.05,0,.21-.18.44-.17a.72.72,0,0,1,.71.71h0c0,.81-1.18,1.62-1.18,1.62-.72.64-1.61-.25-1.61-.25a2,2,0,0,0-.85-.44,1,1,0,0,0-.76.57,1,1,0,0,0-.76-.57,2,2,0,0,0-.85.44s-.89.89-1.61.25c0,0-1.23-.81-1.18-1.62h0a.72.72,0,0,1,.71-.71c.23,0,.39.22.45.17a1,1,0,0,0,.2-.61,1,1,0,0,0-.94-1,.87.87,0,0,0-.71.24,1.22,1.22,0,0,0-.26.35,2.6,2.6,0,0,0-.21.52.75.75,0,0,1-.88.41c-.14,0-1.91-.38-2.25-1.18-.73-1.79-1.41-.94-1.78-1s-1.3-1.6-2.89-.7c-.25.14-.57-1-1.43-.26a6.87,6.87,0,0,0-4.1.09c-.14-.29-.91-.44-1.13-.52a6.29,6.29,0,0,1-1.25-.69,8.69,8.69,0,0,0-2.58-.22,3.18,3.18,0,0,1-1-.36,9.72,9.72,0,0,1-2.8-2.29l-.4-.55a4.07,4.07,0,0,1-.7-1.33c-.35-1.24.18-2.56.37-3.82.08-.6.1-.84.13-1.2a7.37,7.37,0,0,1-3.81-.16,9.43,9.43,0,0,1,.32,3.84,2.74,2.74,0,0,1,1,1.57c.07.63-.22,1.3.15,1.8a10.48,10.48,0,0,0,2.5,2c.25.16,3.68,2.81,4.12,2.9s.79-.26,1.22-.19a1.09,1.09,0,0,1,.38.23,3.74,3.74,0,0,0,.71.59c-1,.64-2.34,1.43-3.29,1.9,0,0-1.54.84-.81.86,0,0,1.08,0,1.17.2,0,0-.45.18-1.15.48q2.43.87,5,1.56a12,12,0,0,1,3.79-2.7s1.93.08,2.56-1.33c.19-.44,1,.81,2.7-.12.16-.08.41.37.89.5.16,0-.69.17-.52.91,0,.1-1.38,0-1.84.79-.13.23-3.13.16-5.78,2.41l1.51.35a4.77,4.77,0,0,1,3.18-1,2.83,2.83,0,0,1,2.31,2c1,.14,2.05.27,3.09.38h0c.29-.13,1.71-.82,1.07-1.67,0,0-.34-.43-.93.14,0,0-.38.34-.54-.2a1.67,1.67,0,0,0-.2-.55s-.29-.42.27-.22a2.76,2.76,0,0,0,1,.09,1,1,0,0,0,.91-1,1,1,0,0,0-.91-1l-.11.08a.35.35,0,0,1,.13.27c0,.2-.16.4-.35.35-.59-.16-.42-1.3.38-1.34a2,2,0,0,1,1.29.75s1.36,2,2.61,2.46c.09,0-.22.73.58,1,.09,0,0,.63.79.57A3.48,3.48,0,0,1,81,99c.71,0,1.43,0,2.15,0s1.44,0,2.15,0a3.34,3.34,0,0,1,.37-.7c.82.06.7-.55.8-.57.8-.24.48-.95.57-1,1.25-.43,2.61-2.46,2.61-2.46a2,2,0,0,1,1.3-.75c.81,0,1,1.18.38,1.34-.18,0-.34-.15-.34-.35a.35.35,0,0,1,.13-.27l-.1-.08a1,1,0,0,0-.93,1,1,1,0,0,0,.91,1,2.75,2.75,0,0,0,1-.09c.56-.2.27.22.27.22a1.65,1.65,0,0,0-.2.55c-.15.54-.54.2-.54.2-.6-.57-.94-.14-.94-.14-.64.85.79,1.54,1.07,1.67h0c1-.11,2.07-.23,3.09-.38a2.83,2.83,0,0,1,2.31-2,4.78,4.78,0,0,1,3.18,1l1.51-.35c-2.65-2.25-5.65-2.18-5.78-2.41-.46-.78-1.87-.7-1.85-.79.17-.75-.67-.87-.52-.91.48-.13.74-.59.9-.5,1.69.94,2.51-.31,2.7.12.63,1.41,2.56,1.33,2.56,1.33a12.13,12.13,0,0,1,3.79,2.7c1.54-.42,3-.89,4.53-1.41l0-.05-.09-.25,0-.08h0a3.29,3.29,0,0,0-.21-.39h0a11.45,11.45,0,0,0-1.15-1.51h0l-.06-.07s1.11-1.7,1.81-.54c.06.15-.07.56-.76.56a9.16,9.16,0,0,1,1,2.15h0l.71-.25.2,0c-.44-.86-1.08-1.34-.91-1.63.17-.07.78.23,1.13-.28a6.82,6.82,0,0,0,.25-1.41,2.66,2.66,0,0,0,1.1.26c1.15,0,1.58-1.76,1.26-2.33.17-.11.85-.66.91-.51.36.82,2.23,1.69,2.06-.15.3.89.52,1.92,1.56,1.83.75-.18.26-1.47.53-1.47.22.38.54,1.85,1.66,1.49a.89.89,0,0,0,.62-.88c.05-1.41-4-8.84-4.37-12.06l-.19-.07c-.39-.2-.43-.84-.36-1.31l0-.09c-.49-.09-1.25-.52-1.38-1.87s.53-1.82.65-1.82l0,.12c-.32,1-.54,2.1.16,2.74a1.36,1.36,0,0,0,.71.27c.21-.41.49-.61.56-.61l0,.1a1.89,1.89,0,0,0,0,2,1.19,1.19,0,0,0,.74.33c1.13-.41,1.71-2.57,2-3.24.75.16-1.22,4.52.3,5.45.62-.05,1-.78,1.21-1.41.49,1.28-1.6,4-.1,4.59.93.23,1.25-2.13,1.28-1.83.27,3.61-1.63,5.36-.42,5.92,1,.48,1.38-2.46,1.37-2.09,0,3.85-2,4.92-1.14,5.6,1,.38,1.63-1.94,1.62-1.4-.08,3.45-1.81,4.36-1,5.45.89,1.25,2.54-2.25,2.63-1.59s-1.88,4.8-.74,5.08c1,.23,1.29-1.13,1.37-1.42a73.23,73.23,0,0,0,2.88-22.82" style="fill:#141000"/><path d="M174.27,295.37c0-1.5-1.26-1.88-2.24-1.88s-2.27.39-2.27,1.88,1.21,2,2.27,2,2.24-.39,2.24-2m-2.73,7.89a1.85,1.85,0,0,0-1.93,1.86c0,1.11,1,1.91,2.37,1.91,1.52,0,2.53-.78,2.53-2.09,0-1.11-1-1.52-3-1.67m6.88-11.91-.05,2.5a9.33,9.33,0,0,1-2.37-.44,3.41,3.41,0,0,1,1.27,2c0,3.09-3.07,4.33-5.21,4.33a7.52,7.52,0,0,1-1.62-.23c-.39.13-.62.36-.62.7,0,1.36,8-.23,8,4.51,0,3-2.84,4.59-6,4.59-2.65,0-5.34-1.16-5.34-3.48,0-1.62,1.29-2.47,3.35-2.78-1.57-.18-3.15-.67-3.15-2.14,0-1.06,1-1.83,2.4-1.93a3.87,3.87,0,0,1-2.27-3.56c0-3.35,3.17-4.31,5.21-4.31,1.37,0,4.2.23,6.4.26" style="fill:#141000"/><path d="M188.51,297.64c0-3-.9-4.1-2.47-4.1s-2.45,1.09-2.45,4.1.8,4.13,2.45,4.13,2.47-1.11,2.47-4.13m3.45,0c0,4.31-2.17,6.6-5.93,6.6s-5.93-2.27-5.93-6.6c0-3.71,2.06-6.55,5.93-6.55s5.93,2.84,5.93,6.55" style="fill:#141000"/><path d="M197.84,300.48a3.05,3.05,0,0,0,2.29,1.29c1.47,0,2.55-1.08,2.55-4.13s-1-4.07-2.5-4.07a3.55,3.55,0,0,0-2.35,1Zm-.23-7.84a4.46,4.46,0,0,1,3.35-1.55c3,0,5.11,2.12,5.11,6.55s-2.58,6.6-5.52,6.6a4.15,4.15,0,0,1-3.66-1.78l-.62,1.52h-1.8V286.19h3.38v4.41Z" style="fill:#141000"/><rect x="208.21" y="300.35" width="3.4" height="3.63" style="fill:#141000"/><path d="M224.33,303.13a9.8,9.8,0,0,1-4.33,1.11c-3.76,0-6-2.14-6-6.58,0-4.13,2.27-6.57,6-6.57a8.54,8.54,0,0,1,4.33,1l-.88,2.29a6.31,6.31,0,0,0-3.17-.77c-1.75,0-2.86,1.19-2.86,4s1.06,4,2.89,4a7.4,7.4,0,0,0,3.43-1Z" style="fill:#141000"/><path d="M226.59,300.63V286.19h3.33v14.26c0,1.06.64,1.21,2,1.21V304a10.74,10.74,0,0,1-1.86.2c-2.58,0-3.51-1.36-3.51-3.61" style="fill:#141000"/></g></svg>