<svg id="daf3a68b-4393-4bb7-a2bc-66c703755a39" data-name="Layer 1" xmlns="http://www.w3.org/2000/svg" viewBox="0 0 775.07 302.59"><title>Logo Laboratorio de Gobierno</title><g style="opacity:0.5"><path d="M62.19,201.34c-8.63,0-12.72,6.36-12.72,14.08s4.09,14.08,12.72,14.08c7.72,0,12.72-6.35,12.72-14.08s-5-14.08-12.72-14.08m20.89,34.52-.91.91H75.81l-.91-.91L74,233.13l-.46-.45-.45.45a16.14,16.14,0,0,1-11.35,4.54c-11.81,0-21.35-9.08-21.35-22.25s9.53-22.25,21.35-22.25a16.31,16.31,0,0,1,11.35,4.54l.45.45.46-.45V168.64l.91-.91h7.27l.91.91Z"/><path d="M99.36,209.7h22.7c-.45-4.72-5-8.36-10.9-8.36-6.82,0-10.45,3.64-11.81,8.36m-.46,8c0,6.35,5,11.81,12.72,11.81,5.45,0,9.54-3.18,10.9-6.82h.91l6.27,4.09v.9c-3.91,5.91-9.9,10-18.08,10a21.9,21.9,0,0,1-21.8-22.25c0-13.16,9.54-22.25,21.35-22.25,10.9,0,20.89,8.62,20.44,21.8l-.91,2.72Z"/><polygon points="40.38 39.32 41.64 38.06 52.35 38.06 53.61 39.32 53.61 117.41 94.54 117.41 95.8 118.67 95.8 128.74 94.54 130 41.64 130 40.38 128.74 40.38 39.32"/><path d="M148.08,102.17s-1,.25-19.52,2c-7.43.76-11.21,3.15-11.21,8.19s4.53,7.94,10.58,7.94c9.44,0,18.89-5.42,20.15-14.23ZM107.78,89.7l-1.26-1.26c1.26-10.08,11.34-18.89,26.45-18.89,12.6,0,26.45,6.93,26.45,22.67v36.53L158.16,130h-8.82l-1.26-1.26-.63-4.41-.63-.63-.63.63a29.93,29.93,0,0,1-18.9,6.93c-12.09,0-22-6.3-22-18.89,0-11.34,8.57-17.13,22-18.26,19.65-1.64,20-1.89,20-1.89V91c0-7.56-6.8-10.7-14.36-10.7S119.74,84,119.11,88.44l-1.26,1.26Z"/><path d="M197.85,119.92c12,0,17.63-8.81,17.63-19.52s-5.67-19.52-17.63-19.52c-10.71,0-17.63,8.82-17.63,19.52s6.93,19.52,17.63,19.52m-29-84.39,1.26-1.26h10.07l1.26,1.26v40.3l.63.63.63-.63a22.59,22.59,0,0,1,15.74-6.3c16.38,0,29.6,12.6,29.6,30.86s-13.22,30.85-29.6,30.85a22.35,22.35,0,0,1-15.74-6.3l-.63-.63-.63.63-1.26,3.78L179,130h-8.81l-1.26-1.26Z"/><path d="M268.43,119.93c12,0,18.26-8.82,18.26-19.52s-6.29-19.52-18.26-19.52S250,89.7,250,100.41s6.42,19.52,18.39,19.52m0-50.38c16.37,0,30.86,12.6,30.86,30.86s-14.49,30.85-30.86,30.85-30.86-12.59-30.86-30.85,14.48-30.86,30.86-30.86"/><path d="M308.77,72.07,310,70.81h8.81l1.26,1.26,1.26,3.77.63.63.63-.63c3.15-3.77,9.45-6.29,14.48-6.29,15.11,0,23.3,8.82,23.3,22.67l-1.26,1.26-10.07,1.26-1.26-1.26c0-8.82-5-12.6-12.59-12.6a14,14,0,0,0-13.86,13.35v34.51L320.1,130H310l-1.26-1.26Z"/><path d="M412.69,102.17s-1,.25-19.52,2c-7.43.76-11.2,3.15-11.2,8.19s4.53,7.94,10.58,7.94c9.45,0,18.89-5.42,20.15-14.23ZM372.39,89.7l-1.26-1.26c1.26-10.08,11.34-18.89,26.45-18.89,12.6,0,26.45,6.93,26.45,22.67v36.53L422.77,130H414l-1.26-1.26-.63-4.41-.63-.63-.63.63a29.92,29.92,0,0,1-18.89,6.93c-12.09,0-22-6.3-22-18.89,0-11.34,8.57-17.13,22-18.26,19.65-1.64,20-1.89,20-1.89V91c0-7.56-6.8-10.7-14.36-10.7S384.36,84,383.73,88.44l-1.26,1.26Z"/><path d="M433.5,50.66l10.07-12.6h2.52V70.81h20.15l1.26,1.26v8.82l-1.26,1.26H446.09v30.23a6,6,0,0,0,6.3,6.3l7.56-1.26,1.26,1.26v8.82l-1.26,1.26L453,130c-12.6,0-19.52-7.56-19.52-18.89Z"/><path d="M507.84,119.93c12,0,18.26-8.82,18.26-19.52s-6.3-19.52-18.26-19.52-18.39,8.82-18.39,19.52,6.42,19.52,18.39,19.52m0-50.38c16.37,0,30.86,12.6,30.86,30.86s-14.49,30.85-30.86,30.85S477,118.67,477,100.41s14.49-30.86,30.86-30.86"/><path d="M548.17,72.07l1.26-1.26h8.82l1.26,1.26,1.26,3.77.63.63.62-.63c3.15-3.77,9.45-6.29,14.48-6.29,15.12,0,23.3,8.82,23.3,22.67l-1.26,1.26-10.07,1.26-1.26-1.26c0-8.82-5-12.6-12.6-12.6a14,14,0,0,0-13.85,13.35v34.51L559.51,130H549.43l-1.26-1.26Z"/><path d="M628.16,59.48l1.26,1.26h13.86l1.26-1.26V44.36l-1.26-1.26H629.42l-1.26,1.26Zm-18.89,60.45,1.26-1.26h18.89V82.14H615.57l-1.26-1.26V72.07l1.26-1.26h25.19L642,72.07v46.6h17.63l1.26,1.26v8.82L659.65,130H610.53l-1.26-1.26Z"/><path d="M701.25,119.93c12,0,18.26-8.82,18.26-19.52s-6.3-19.52-18.26-19.52-18.38,8.82-18.38,19.52,6.42,19.52,18.38,19.52m0-50.38c16.37,0,30.86,12.6,30.86,30.86s-14.48,30.85-30.86,30.85-30.85-12.59-30.85-30.85,14.48-30.86,30.85-30.86"/><path d="M308.14,252.11c12,0,18.26-8.82,18.26-19.52s-6.29-19.52-18.26-19.52-18.39,8.82-18.39,19.52,6.42,19.52,18.39,19.52m0-50.38c16.37,0,30.85,12.59,30.85,30.85s-14.48,30.86-30.85,30.86-30.86-12.6-30.86-30.86,14.49-30.85,30.86-30.85"/><path d="M377.46,252.11c12,0,17.63-8.82,17.63-19.52s-5.67-19.52-17.63-19.52c-10.71,0-17.63,8.81-17.63,19.52s6.93,19.52,17.63,19.52m-29-84.38,1.26-1.27h10.08l1.26,1.27V208l.63.63.63-.63a22.58,22.58,0,0,1,15.74-6.3c16.37,0,29.59,12.59,29.59,30.85s-13.22,30.86-29.59,30.86a22.36,22.36,0,0,1-15.74-6.3l-.63-.63-.63.63-1.26,3.78-1.26,1.26h-8.81l-1.26-1.26Z"/><path d="M436,191.66l1.26,1.26H451.1l1.26-1.26V176.55l-1.26-1.26H437.24L436,176.55Zm-18.89,60.46,1.26-1.26h18.89V214.33H423.39l-1.26-1.25v-8.82l1.26-1.26h25.19l1.26,1.26v46.6h17.63l1.26,1.26v8.82l-1.26,1.26H418.35l-1.26-1.26Z"/><path d="M491.42,224.65h31.49c-.63-6.54-6.93-11.58-15.11-11.58-9.44,0-14.48,5-16.37,11.58m-.63,11.09c0,8.82,6.93,16.37,17.63,16.37,7.56,0,13.22-4.41,15.11-9.44h1.26l8.69,5.66v1.27c-5.41,8.18-13.73,13.85-25.06,13.85a30.37,30.37,0,0,1-30.23-30.86c0-18.26,13.23-30.85,29.6-30.85,15.11,0,29,12,28.34,30.22l-1.26,3.78Z"/><path d="M545.65,204.25,546.9,203h8.82l1.26,1.26,1.26,3.78.63.63.62-.63c3.15-3.78,9.45-6.3,14.48-6.3,15.12,0,23.3,8.81,23.3,22.67L596,225.66,586,226.92l-1.26-1.26c0-8.81-5-12.59-12.6-12.59a14,14,0,0,0-13.85,13.35v34.51L557,262.19H546.9l-1.26-1.26Z"/><path d="M608,203h9.44l1.26,1.26.63,3.78.63.63.63-.63c3.15-3.78,9.44-6.3,15.11-6.3,15.11,0,25.19,8.18,25.19,25.18v34l-1.26,1.26H649.6l-1.26-1.26V228.18c0-10.07-5-15.11-13.85-15.11-8.06,0-14.87,6-15.12,13.35v34.51l-1.26,1.26H608l-1.26-1.26V204.26Z"/><path d="M701.25,252.11c12,0,18.26-8.82,18.26-19.52s-6.3-19.52-18.26-19.52-18.38,8.82-18.38,19.52,6.42,19.52,18.38,19.52m0-50.38c16.37,0,30.86,12.59,30.86,30.85s-14.48,30.86-30.86,30.86-30.85-12.6-30.85-30.86,14.48-30.85,30.85-30.85"/><polygon points="130.33 255.26 41.64 255.26 40.43 256.49 40.38 256.54 40.38 256.55 40.38 263.45 41.64 264.71 130.33 264.71 131.59 263.44 131.59 263.42 131.59 256.51 130.33 255.26"/><path d="M267,221.69l-11.14-11.14H209.31L208,211.82v10l1.26,1.26,45.57,0c-1.26,17-15.24,29-33.63,29-20.78,0-33.88-15.11-33.88-35.77,0-20.91,13.09-36,33.88-36,11.8,0,21.29,4.83,27.39,12.84l1.83.13,7.14-7.13,0-2a46.61,46.61,0,0,0-35.75-16.45c-27.71,0-47.86,21.41-47.86,48.49s20.15,48.49,47.23,48.49c24.89,0,44.87-19.06,46.55-41.39Z"/></g></svg>