<?xml version="1.0" encoding="UTF-8"?>
<svg width="200px" height="68px" viewBox="0 0 200 68" version="1.1" xmlns="http://www.w3.org/2000/svg" xmlns:xlink="http://www.w3.org/1999/xlink">
    <!-- Generator: Sketch 47.1 (45422) - http://www.bohemiancoding.com/sketch -->
    <title>Page 1</title>
    <desc>Created with Sketch.</desc>
    <defs>
        <polygon id="path-1" points="0 0.00626336792 0 20.1007566 12.2026114 20.1007566 12.2026114 0.00626336792"></polygon>
        <polygon id="path-3" points="17.2278026 0.16717022 0.141722533 0.16717022 0.141722533 28.360675 17.2278026 28.360675 17.2278026 0.16717022"></polygon>
        <polygon id="path-5" points="17.7954947 0.245341846 17.7954947 18.3047725 0.00175887547 18.3047725 0.00175887547 0.245341846 17.7954947 0.245341846"></polygon>
        <polygon id="path-7" points="17.7954947 0.00865020724 17.7954947 17.8032799 0.00175887547 17.8032799 0.00175887547 0.00865020724 17.7954947 0.00865020724"></polygon>
        <polygon id="path-9" points="0.000145737187 2.79329609 26.5840661 2.79329609 26.5840661 0.153659218 0.000145737187 0.153659218"></polygon>
        <polygon id="path-11" points="0.183695972 27.9329609 27.2061658 27.9329609 27.2061658 0.00639290445 0.183695972 0.00639290445"></polygon>
    </defs>
    <g id="0--Login" stroke="none" stroke-width="1" fill="none" fill-rule="evenodd">
        <g id="01-login-copy-6" transform="translate(-169.000000, -868.000000)">
            <g id="Page-1" transform="translate(169.000000, 868.000000)">
                <g id="Group-3" transform="translate(0.000000, 39.106145)">
                    <mask id="mask-2" fill="white">
                        <use xlink:href="#path-1"></use>
                    </mask>
                    <g id="Clip-2"></g>
                    <path d="M12.2026114,19.5790008 L11.9433675,19.8395914 L10.1266597,19.8395914 L9.86627257,19.5790008 L9.60645706,18.7966544 L9.47612057,18.6667901 L9.34664155,18.7966544 C8.56719501,19.5790008 7.39931142,20.1007566 6.10166299,20.1007566 C2.72520463,20.1007566 -0.000142912823,17.491403 -0.000142912823,13.7069497 C-0.000142912823,9.9250822 2.72520463,7.31371748 6.10166299,7.31371748 C7.37215798,7.31371748 8.56719501,7.83547326 9.34664155,8.61781963 L9.47612057,8.74768396 L9.60645706,8.61781963 L9.60645706,0.267428571 L9.86627257,0.00626336792 L11.9433675,0.00626336792 L12.2026114,0.267428571 L12.2026114,19.5790008 Z M6.231142,9.66190583 C3.76389502,9.66190583 2.59572561,11.4894876 2.59572561,13.7069497 C2.59572561,15.9272849 3.76389502,17.7528555 6.231142,17.7528555 C8.43743017,17.7528555 9.86627257,15.9272849 9.86627257,13.7069497 C9.86627257,11.4894876 8.43743017,9.66190583 6.231142,9.66190583 L6.231142,9.66190583 Z" id="Fill-1" fill="#1F1410" mask="url(#mask-2)"></path>
                </g>
                <path d="M17.1957917,53.449555 C17.1957917,55.2837884 18.6647532,56.8590407 20.9343516,56.8590407 C22.5379777,56.8590407 23.7399622,55.9412022 24.1386635,54.8905528 L24.4068166,54.8905528 L26.2503692,56.071992 L26.2503692,56.3329942 C25.1010156,58.0387476 23.3392027,59.2178771 20.9343516,59.2178771 C17.5971392,59.2178771 14.5251397,56.5963062 14.5251397,52.7930074 C14.5251397,48.9928845 17.3307503,46.3687151 20.8020392,46.3687151 C24.0060571,46.3687151 26.9430981,48.8577638 26.8113737,52.6633724 L26.5438087,53.449555 L17.1957917,53.449555 Z M17.3307503,51.1412445 L24.0060571,51.1412445 C23.8725686,49.7784896 22.5379777,48.7278402 20.8020392,48.7278402 C18.7982417,48.7278402 17.7306277,49.7784896 17.3307503,51.1412445 L17.3307503,51.1412445 Z" id="Fill-4" fill="#1F1410"></path>
                <polygon id="Fill-6" fill="#1F1410" points="0 1.48453614 0.367496246 1.11731844 3.49750007 1.11731844 3.86528868 1.48453614 3.86528868 24.2602005 15.832744 24.2602005 16.2011173 24.6277099 16.2011173 27.5666182 15.832744 27.9329609 0.367496246 27.9329609 0 27.5666182"></polygon>
                <path d="M19.7228294,16.4526651 L19.3589102,16.0879624 C19.7228294,13.1688924 22.6330273,10.6145251 26.9983241,10.6145251 C30.6369379,10.6145251 34.6368715,12.6219832 34.6368715,17.1814912 L34.6368715,27.7622147 L34.2732412,28.1263381 L31.7272513,28.1263381 L31.3633321,27.7622147 L31.1816614,26.4856104 L30.9999906,26.3025349 L30.8186087,26.4856104 C29.5440252,27.5797185 27.543914,28.4916201 25.3606879,28.4916201 C21.8696635,28.4916201 18.9944134,26.6669479 18.9944134,23.0193415 C18.9944134,19.7355688 21.4693524,18.0571832 25.3606879,17.7295591 C31.0358049,17.2556484 31.1455583,17.1814912 31.1455583,17.1814912 L31.1455583,16.8176575 C31.1455583,14.628862 29.1815502,13.7169604 26.9983241,13.7169604 C24.8162533,13.7169604 23.178906,14.8101994 22.9969464,16.0879624 L22.6330273,16.4526651 L19.7228294,16.4526651 Z M31.3633321,20.0643516 C31.3633321,20.0643516 31.0721968,20.1364811 25.7254735,20.6474704 C23.5786394,20.8667555 22.4880372,21.559372 22.4880372,23.0193415 C22.4880372,24.4787317 23.7972797,25.3182142 25.5438028,25.3182142 C28.2714635,25.3182142 30.9999906,23.7481676 31.3633321,21.1952487 L31.3633321,20.0643516 Z" id="Fill-8" fill="#1F1410"></path>
                <g id="Group-12" transform="translate(36.871508, 0.000000)">
                    <mask id="mask-4" fill="white">
                        <use xlink:href="#path-3"></use>
                    </mask>
                    <g id="Clip-11"></g>
                    <path d="M0.141722533,0.532502565 L0.505986965,0.167053928 L3.41375233,0.167053928 L3.77801676,0.532502565 L3.77801676,12.2498267 L3.96043762,12.43415 L4.14141527,12.2498267 C5.23189944,11.1517364 6.90428305,10.4193855 8.68490689,10.4193855 C13.4122626,10.4193855 17.2278026,14.0811401 17.2278026,19.390757 C17.2278026,24.6995018 13.4122626,28.360675 8.68490689,28.360675 C6.8676257,28.360675 5.23189944,27.6294869 4.14141527,26.5302337 L3.96043762,26.3479455 L3.77801676,26.5302337 L3.41375233,27.6294869 L3.05006518,27.9949356 L0.505986965,27.9949356 L0.141722533,27.6294869 L0.141722533,0.532502565 Z M8.5036406,25.0658226 C11.957514,25.0658226 13.5929516,22.5033212 13.5929516,19.390757 C13.5929516,16.2787744 11.957514,13.7154008 8.5036406,13.7154008 C5.41345438,13.7154008 3.41375233,16.2787744 3.41375233,19.390757 C3.41375233,22.5033212 5.41345438,25.0658226 8.5036406,25.0658226 L8.5036406,25.0658226 Z" id="Fill-10" fill="#1F1410" mask="url(#mask-4)"></path>
                </g>
                <path d="M65.9222222,10.6145251 C70.6641495,10.6145251 74.8603352,14.2638696 74.8603352,19.553652 C74.8603352,24.8437241 70.6641495,28.4916201 65.9222222,28.4916201 C61.1788465,28.4916201 56.9832402,24.8437241 56.9832402,19.553652 C56.9832402,14.2638696 61.1788465,10.6145251 65.9222222,10.6145251 M65.9222222,25.2087164 C69.3884349,25.2087164 71.2113396,22.6543491 71.2113396,19.553652 C71.2113396,16.4526651 69.3884349,13.8982978 65.9222222,13.8982978 C62.4554301,13.8982978 60.5945785,16.4526651 60.5945785,19.553652 C60.5945785,22.6543491 62.4554301,25.2087164 65.9222222,25.2087164" id="Fill-13" fill="#1F1410"></path>
                <path d="M77.6536313,11.336437 L78.0214006,10.9757675 L80.5960777,10.9757675 L80.9650155,11.336437 L81.3327847,12.4175859 L81.515647,12.5992097 L81.6999698,12.4175859 C82.6204154,11.336437 84.459554,10.6145251 85.9309232,10.6145251 C90.3456153,10.6145251 92.7374302,13.1400707 92.7374302,17.1091534 L92.3696609,17.4706823 L89.4266302,17.8304923 L89.0582767,17.4706823 C89.0582767,14.9454232 87.5866153,13.8625555 85.3808759,13.8625555 C83.2084373,13.8625555 81.4066891,15.593998 81.3327847,17.6863964 L81.3327847,27.5728644 L80.9650155,27.9329609 L78.0214006,27.9329609 L77.6536313,27.5728644 L77.6536313,11.336437 Z" id="Fill-15" fill="#1F1410"></path>
                <path d="M95.6996568,16.4526651 L95.3357175,16.0879624 C95.6996568,13.1688924 98.6100159,10.6145251 102.975555,10.6145251 C106.613792,10.6145251 110.614525,12.6219832 110.614525,17.1814912 L110.614525,27.7622147 L110.250875,28.1263381 L107.704744,28.1263381 L107.339938,27.7622147 L107.158257,26.4856104 L106.976576,26.3025349 L106.795473,26.4856104 C105.521397,27.5797185 103.520308,28.4916201 101.337828,28.4916201 C97.8457434,28.4916201 94.972067,26.6669479 94.972067,23.0193415 C94.972067,19.7355688 97.4462767,18.0571832 101.337828,17.7295591 C107.012393,17.2556484 107.122441,17.1814912 107.122441,17.1814912 L107.122441,16.8176575 C107.122441,14.628862 105.158902,13.7169604 102.975555,13.7169604 C100.792496,13.7169604 99.1559249,14.8101994 98.9730887,16.0879624 L98.6100159,16.4526651 L95.6996568,16.4526651 Z M107.339938,20.0643516 C107.339938,20.0643516 107.049653,20.1364811 101.7009,20.6474704 C99.5556804,20.8667555 98.4650179,21.559372 98.4650179,23.0193415 C98.4650179,24.4787317 99.7743329,25.3182142 101.520086,25.3182142 C104.248764,25.3182142 106.976576,23.7481676 107.339938,21.1952487 L107.339938,20.0643516 Z" id="Fill-17" fill="#1F1410"></path>
                <path d="M113.407821,4.79166898 L116.386757,1.11731844 L117.131712,1.11731844 L117.131712,10.6689382 L123.091949,10.6689382 L123.463687,11.0361399 L123.463687,13.6077187 L123.091949,13.9752121 L117.131712,13.9752121 L117.131712,22.7912618 C117.131712,23.8919919 117.877259,24.627562 118.993953,24.627562 L121.230003,24.2594853 L121.602037,24.627562 L121.602037,27.1994324 L121.230003,27.5663425 L119.180562,27.9329609 C115.454897,27.9329609 113.407821,25.7282922 113.407821,22.4228934 L113.407821,4.79166898 Z" id="Fill-19" fill="#1F1410"></path>
                <path d="M135.195965,10.6145251 C139.937024,10.6145251 144.134078,14.2638696 144.134078,19.553652 C144.134078,24.8437241 139.937024,28.4916201 135.195965,28.4916201 C130.453459,28.4916201 126.256983,24.8437241 126.256983,19.553652 C126.256983,14.2638696 130.453459,10.6145251 135.195965,10.6145251 M135.195965,25.2087164 C138.66044,25.2087164 140.485083,22.6543491 140.485083,19.553652 C140.485083,16.4526651 138.66044,13.8982978 135.195965,13.8982978 C131.729753,13.8982978 129.869191,16.4526651 129.869191,19.553652 C129.869191,22.6543491 131.729753,25.2087164 135.195965,25.2087164" id="Fill-21" fill="#1F1410"></path>
                <path d="M146.927374,11.336437 L147.294559,10.9757675 L149.869821,10.9757675 L150.238758,11.336437 L150.607404,12.4175859 L150.791143,12.5992097 L150.973713,12.4175859 C151.894158,11.336437 153.734173,10.6145251 155.20379,10.6145251 C159.620819,10.6145251 162.011173,13.1400707 162.011173,17.1091534 L161.64428,17.4706823 L158.70125,17.8304923 L158.332896,17.4706823 C158.332896,14.9454232 156.860066,13.8625555 154.653743,13.8625555 C152.48218,13.8625555 150.679556,15.593998 150.607404,17.6863964 L150.607404,27.5728644 L150.238758,27.9329609 L147.294559,27.9329609 L146.927374,27.5728644 L146.927374,11.336437 Z" id="Fill-23" fill="#1F1410"></path>
                <path d="M164.24581,25.018867 L164.612995,24.6546414 L170.130411,24.6546414 L170.130411,14.088339 L166.084072,14.088339 L165.717179,13.7241134 L165.717179,11.1733772 L166.084072,10.8091517 L173.443548,10.8091517 L173.810441,11.1733772 L173.810441,24.6546414 L178.960963,24.6546414 L179.329609,25.018867 L179.329609,27.5698925 L178.960963,27.9329609 L164.612995,27.9329609 L164.24581,27.5698925 L164.24581,25.018867 Z M169.763518,7.53054291 L170.130411,7.89476848 L174.178502,7.89476848 L174.545979,7.53054291 L174.545979,3.15781096 L174.178502,2.79329609 L170.130411,2.79329609 L169.763518,3.15781096 L169.763518,7.53054291 Z" id="Fill-25" fill="#1F1410"></path>
                <g id="Group-29" transform="translate(182.122905, 10.055866)">
                    <mask id="mask-6" fill="white">
                        <use xlink:href="#path-5"></use>
                    </mask>
                    <g id="Clip-28"></g>
                    <path d="M8.89849703,0.245341846 C13.6192035,0.245341846 17.7955235,3.93190742 17.7955235,9.27564246 C17.7955235,14.6196701 13.6192035,18.3047725 8.89849703,18.3047725 C4.17779059,18.3047725 0.00175887547,14.6196701 0.00175887547,9.27564246 C0.00175887547,3.93190742 4.17779059,0.245341846 8.89849703,0.245341846 M8.89849703,14.9883852 C12.3490647,14.9883852 14.1647432,12.4079649 14.1647432,9.27564246 C14.1647432,6.1430274 12.3490647,3.56260708 8.89849703,3.56260708 C5.4482177,3.56260708 3.59765003,6.1430274 3.59765003,9.27564246 C3.59765003,12.4079649 5.4482177,14.9883852 8.89849703,14.9883852" id="Fill-27" fill="#1F1410" mask="url(#mask-6)"></path>
                </g>
                <path d="M77.6542106,48.603352 C82.3967942,48.603352 86.5921788,52.250379 86.5921788,57.5413201 C86.5921788,62.8316818 82.3967942,66.4804469 77.6542106,66.4804469 C72.9116271,66.4804469 68.7150838,62.8316818 68.7150838,57.5413201 C68.7150838,52.250379 72.9116271,48.603352 77.6542106,48.603352 M77.6542106,63.1958052 C81.1204795,63.1958052 82.943993,60.6423069 82.943993,57.5413201 C82.943993,54.4406229 81.1204795,51.8862556 77.6542106,51.8862556 C74.1873624,51.8862556 72.3282187,54.4406229 72.3282187,57.5413201 C72.3282187,60.6423069 74.1873624,63.1958052 77.6542106,63.1958052" id="Fill-30" fill="#1F1410"></path>
                <path d="M88.8268156,38.9118303 L89.1951747,38.547486 L92.1435103,38.547486 L92.5118693,38.9118303 L92.5118693,50.5198659 L92.6967803,50.7024701 L92.880521,50.5198659 C93.9855982,49.4311535 95.6808107,48.7064974 97.4866187,48.7064974 C102.27675,48.7064974 106.145251,52.3320824 106.145251,57.5933281 C106.145251,62.8534218 102.27675,66.4804469 97.4866187,66.4804469 C95.643653,66.4804469 93.9855982,65.7552147 92.880521,64.6670784 L92.6967803,64.4864904 L92.5118693,64.6670784 L92.1435103,65.7552147 L91.7739809,66.1181188 L89.1951747,66.1181188 L88.8268156,65.7552147 L88.8268156,38.9118303 Z M97.3020003,63.2154619 C100.803313,63.2154619 102.461661,60.6762851 102.461661,57.5933281 C102.461661,54.5095071 100.803313,51.9709064 97.3020003,51.9709064 C94.1696315,51.9709064 92.1435103,54.5095071 92.1435103,57.5933281 C92.1435103,60.6762851 94.1696315,63.2154619 97.3020003,63.2154619 L97.3020003,63.2154619 Z" id="Fill-32" fill="#1F1410"></path>
                <path d="M108.938547,63.0070272 L109.305733,62.6434053 L114.824901,62.6434053 L114.824901,52.0758074 L110.778562,52.0758074 L110.409917,51.7130534 L110.409917,49.1624933 L110.778562,48.7988714 L118.136285,48.7988714 L118.504054,49.1624933 L118.504054,62.6434053 L123.655453,62.6434053 L124.022346,63.0070272 L124.022346,65.5578766 L123.655453,65.9217877 L109.305733,65.9217877 L108.938547,65.5578766 L108.938547,63.0070272 Z M114.457716,45.5181748 L114.824901,45.8826645 L118.871239,45.8826645 L119.238717,45.5181748 L119.238717,41.1474804 L118.871239,40.7821229 L114.824901,40.7821229 L114.457716,41.1474804 L114.457716,45.5181748 Z" id="Fill-34" fill="#1F1410"></path>
                <path d="M129.89969,58.4532217 C129.89969,61.007589 131.902918,63.1958052 134.997975,63.1958052 C137.182789,63.1958052 138.821689,61.9194906 139.368181,60.4601004 L139.732799,60.4601004 L142.244931,62.1008281 L142.244931,62.4675585 C140.679475,64.8382709 138.276353,66.4804469 134.997975,66.4804469 C130.446471,66.4804469 126.256983,62.8319715 126.256983,57.5413201 C126.256983,52.2506687 130.081565,48.603352 134.8161,48.603352 C139.186017,48.603352 143.191317,52.0681725 143.010888,57.3582445 L142.646848,58.4532217 L129.89969,58.4532217 Z M130.081565,55.2418681 L139.186017,55.2418681 C139.004142,53.3465148 137.182789,51.8865453 134.8161,51.8865453 C132.085082,51.8865453 130.628346,53.3465148 130.081565,55.2418681 L130.081565,55.2418681 Z" id="Fill-36" fill="#1F1410"></path>
                <path d="M145.810056,49.3241417 L146.177241,48.9640333 L148.752502,48.9640333 L149.12144,49.3241417 L149.490086,50.4070453 L149.673824,50.5883887 L149.856394,50.4070453 C150.77684,49.3241417 152.615979,48.603352 154.086471,48.603352 C158.502624,48.603352 160.893855,51.1278351 160.893855,55.0979086 L160.526962,55.4577305 L157.583931,55.8184119 L157.215578,55.4577305 C157.215578,52.9332474 155.742748,51.8503438 153.536424,51.8503438 C151.364862,51.8503438 149.562237,53.583276 149.490086,55.6743113 L149.490086,65.5611063 L149.12144,65.9217877 L146.177241,65.9217877 L145.810056,65.5611063 L145.810056,49.3241417 Z" id="Fill-38" fill="#1F1410"></path>
                <path d="M164.05021,48.9640393 L166.777921,48.9640393 L167.141847,49.3241537 L167.324388,50.4070752 L167.506351,50.5884215 L167.688891,50.4070752 C168.597262,49.3241537 170.416602,48.603352 172.053113,48.603352 C176.418491,48.603352 179.329609,50.9479629 179.329609,55.8182448 L179.329609,65.5613869 L178.965394,65.9217877 L176.053987,65.9217877 L175.690928,65.5613869 L175.690928,56.1792186 C175.690928,53.2940063 174.23638,51.8498245 171.691209,51.8498245 C169.362373,51.8498245 167.397173,53.5830719 167.324388,55.6744282 L167.324388,65.5613869 L166.959595,65.9217877 L164.05021,65.9217877 L163.687151,65.5613869 L163.687151,49.3241537 L164.05021,48.9640393 Z" id="Fill-40" fill="#1F1410"></path>
                <g id="Group-44" transform="translate(182.122905, 48.603352)">
                    <mask id="mask-8" fill="white">
                        <use xlink:href="#path-7"></use>
                    </mask>
                    <g id="Clip-43"></g>
                    <path d="M8.89849703,0.00865020724 C13.6192035,0.00865020724 17.7955235,3.63885385 17.7955235,8.90538836 C17.7955235,14.1713462 13.6192035,17.8032799 8.89849703,17.8032799 C4.17779059,17.8032799 0.00175887547,14.1713462 0.00175887547,8.90538836 C0.00175887547,3.63885385 4.17779059,0.00865020724 8.89849703,0.00865020724 M8.89849703,14.5337899 C12.3490647,14.5337899 14.1647432,11.9920706 14.1647432,8.90538836 C14.1647432,5.81899441 12.3490647,3.27641016 8.89849703,3.27641016 C5.4482177,3.27641016 3.59765003,5.81899441 3.59765003,8.90538836 C3.59765003,11.9920706 5.4482177,14.5337899 8.89849703,14.5337899" id="Fill-42" fill="#1F1410" mask="url(#mask-8)"></path>
                </g>
                <g id="Group-47" transform="translate(0.000000, 64.245810)">
                    <mask id="mask-10" fill="white">
                        <use xlink:href="#path-9"></use>
                    </mask>
                    <g id="Clip-46"></g>
                    <polygon id="Fill-45" fill="#1F1410" mask="url(#mask-10)" points="26.2170998 0.153659218 0.366529026 0.153659218 0.0144279815 0.498351955 0.000145737187 0.512039106 0.000145737187 0.513715084 0.000145737187 2.4422067 0.366529026 2.79332402 26.2170998 2.79332402 26.5840661 2.43829609 26.5840661 2.43326816 26.5840661 0.504776536"></polygon>
                </g>
                <g id="Group-50" transform="translate(38.547486, 39.106145)">
                    <mask id="mask-12" fill="white">
                        <use xlink:href="#path-11"></use>
                    </mask>
                    <g id="Clip-49"></g>
                    <path d="M26.9840018,15.5460462 L23.7731403,12.3372113 L10.3507998,12.3395151 L9.98859453,12.7014917 L9.98859453,15.5955768 L10.3507998,15.9569775 L23.4829727,15.9650406 C23.1190385,20.8613719 19.0912702,24.3060531 13.7921817,24.3060531 C7.80383711,24.3060531 4.03050573,19.9548465 4.03050573,14.0057018 C4.03050573,7.98485285 7.80383711,3.63364626 13.7921817,3.63364626 C17.1917818,3.63364626 19.9263305,5.02367102 21.6834725,7.330876 L22.2113643,7.36888787 L24.2673184,5.31538329 L24.2750985,4.7426136 C21.7485945,1.83528192 18.1833079,0.00639290445 13.9748692,0.00639290445 C5.98935313,0.00639290445 0.183695972,6.17151414 0.183695972,13.9699937 C0.183695972,21.7678973 5.98935313,27.9330185 13.7921817,27.9330185 C20.9656895,27.9330185 26.720344,22.4446236 27.2061658,16.0142832 L26.9840018,15.5460462 Z" id="Fill-48" fill="#1F1410" mask="url(#mask-12)"></path>
                </g>
            </g>
        </g>
    </g>
</svg>