<?xml version="1.0" encoding="UTF-8"?>
<svg width="359px" height="268px" viewBox="0 0 359 268" version="1.1" xmlns="http://www.w3.org/2000/svg" xmlns:xlink="http://www.w3.org/1999/xlink">
    <!-- Generator: Sketch 47.1 (45422) - http://www.bohemiancoding.com/sketch -->
    <title>Page 1</title>
    <desc>Created with Sketch.</desc>
    <defs></defs>
    <g id="0--Login" stroke="none" stroke-width="1" fill="none" fill-rule="evenodd" stroke-linejoin="round">
        <g id="Page-1" transform="translate(2.000000, 2.000000)" stroke="#000000" stroke-width="4">
            <path d="M0,259 C0,259 0.348564406,241.67912 5.98368897,233.179329 C10.4010725,226.512959 25.914423,221.666527 40,216" id="Stroke-1"></path>
            <path d="M128.995834,259 C128.995834,259 129.339584,241.67912 123.782287,233.179329 C119.421505,226.512959 103.89104,221.666527 90,216" id="Stroke-3"></path>
            <path d="M80.0206516,215 L80.0206516,197.105164 C80.0206516,197.105164 87.0010088,191.725529 87.0010088,180.442835 C89.7838828,180.442835 92.6528251,169.162378 87.0870771,166.341705 C87.0870771,164.666301 94.5838439,150.538328 92.6947558,140.95788 C89.9118818,126.85675 50.9781284,126.85675 48.1952544,138.137207 C31.5002173,138.137207 42.6405408,164.053403 42.6405408,166.341705 C37.0747928,169.162378 39.6921509,180.442835 42.472818,180.442835 C42.472818,191.725529 49.1243503,197.105164 49.1243503,197.105164 L49.1243503,215" id="Stroke-5"></path>
            <path d="M64,218.903216 C59.9608861,218.903216 53.0285372,218.903216 48.638196,214.451608 L48.638196,210 L46.7305927,210.069 C42.6234285,212.092256 38.1606466,217.338476 36.7184195,221.729987 L31,239 L64,218.903216 Z" id="Stroke-7"></path>
            <path d="M65,218.903216 C69.1037562,218.903216 76.1681114,218.903216 80.6335697,214.451608 L80.6335697,210 L82.9109535,210.069 C87.0906225,212.092256 91.7949829,217.338476 93.2663515,221.729987 L99,239 L65,218.903216 Z" id="Stroke-9"></path>
            <path d="M355,259 C355,259 355,250.533286 349.385045,239.246571 C347.111,230.117381 328.4665,224.942905 306,216.47619 L306,200.809524 C306,200.809524 312.875591,194.095238 312.875591,182.808524 C315.684182,182.808524 318.492773,171.519571 312.875591,171.519571 L312.875591,165" id="Stroke-11"></path>
            <path d="M268.124409,165 L268.124409,171.519571 C262.507227,171.519571 265.315818,182.808524 268.124409,182.808524 C268.124409,194.095238 275,200.809524 275,200.809524 L275,216.47619 C252.5335,224.942905 233.886773,230.117381 231.614955,239.246571 C228.808591,244.891048 226,259 226,259" id="Stroke-13"></path>
            <path d="M254,165 L327,165" id="Stroke-15" stroke-linecap="round"></path>
            <path d="M265,165 L276.968695,132 L283.775863,136.110727 C287.740966,138.508651 294.234572,138.508651 298.201899,136.110727 L305.009066,132 L317,165" id="Stroke-17" stroke-linecap="round"></path>
            <path d="M291,222 L275,216" id="Stroke-19"></path>
            <path d="M291,222 L307,216" id="Stroke-21"></path>
            <path d="M111,126 C111,126 113.804638,103.651484 125.020966,95.2295943 C136.239517,86.8054775 159.931034,96.663676 159.931034,77.0096305 L159.931034,60.8116328 C157.126397,69.2335227 141.848793,75.5755487 130.630241,61.5353542 C147.455845,61.5353542 130.630241,-22.3272511 175.5,5.75091115 C220.369759,-22.3272511 203.544155,61.5353542 220.369759,61.5353542 C211.955845,75.4597533 193.873603,71.6808144 191.068966,60.4508856 L191.068966,77.0096305 C191.068966,96.663676 214.760483,86.8054775 225.97681,95.2295943 C237.195362,103.651484 240,126 240,126" id="Stroke-23"></path>
            <path d="M161,61 C161,61 152.833333,57.6093527 155.555556,38" id="Stroke-25" stroke-linecap="round"></path>
            <path d="M158,31 C158,33.75 155.332628,42 150,42" id="Stroke-27" stroke-linecap="round"></path>
            <path d="M190,61 C190,61 198.166667,57.9815981 195.444444,38" id="Stroke-29" stroke-linecap="round"></path>
            <path d="M192,31 C192,33.75 194.667372,42 200,42" id="Stroke-31" stroke-linecap="round"></path>
            <path d="M168,93 C168,94.6582078 166.658208,96 165,96 C163.341792,96 162,94.6582078 162,93 C162,91.3441713 163.341792,90 165,90 C166.658208,90 168,91.3441713 168,93 Z" id="Stroke-33"></path>
            <path d="M190,93 C190,94.6582078 188.655829,96 187,96 C185.341792,96 184,94.6582078 184,93 C184,91.3441713 185.341792,90 187,90 C188.655829,90 190,91.3441713 190,93 Z" id="Stroke-35"></path>
            <path d="M179,95 C179,96.6582078 177.658208,98 176,98 C174.341792,98 173,96.6582078 173,95 C173,93.3441713 174.341792,92 176,92 C177.658208,92 179,93.3441713 179,95 Z" id="Stroke-37"></path>
            <path d="M228,182.782609 C228,155.841304 206.061364,134 179,134 C151.938636,134 130,155.841304 130,182.782609 C130,204.293522 143.993955,222.54487 163.409091,229.026304 L163.409091,236 L194.590909,236 L194.590909,229.026304 C214.006045,222.54487 228,204.293522 228,182.782609 Z" id="Stroke-39" stroke-linecap="round"></path>
            <path d="M163,246 L194,246" id="Stroke-41" stroke-linecap="round"></path>
            <path d="M163,255 L194,255" id="Stroke-43" stroke-linecap="round"></path>
            <path d="M178,255 L178,264" id="Stroke-45" stroke-linecap="round"></path>
        </g>
    </g>
</svg>