<?xml version="1.0" encoding="iso-8859-1"?>
<!-- Generator: Adobe Illustrator 19.0.0, SVG Export Plug-In . SVG Version: 6.00 Build 0)  -->
<svg version="1.1" id="Capa_1" xmlns="http://www.w3.org/2000/svg" xmlns:xlink="http://www.w3.org/1999/xlink" x="0px" y="0px"
	 viewBox="0 0 191.259 191.259" style="enable-background:new 0 0 191.259 191.259;" xml:space="preserve">
<g>
	<path style="fill:#020400;" d="M175.321,0H15.938C7.136,0,0,7.136,0,15.938v159.382c0,8.802,7.136,15.938,15.938,15.938h159.382
		c8.802,0,15.938-7.136,15.938-15.938V15.938C191.259,7.136,184.123,0,175.321,0z M183.29,175.321c0,4.403-3.566,7.969-7.969,7.969
		H15.938c-4.403,0-7.969-3.566-7.969-7.969V15.938c0-4.403,3.566-7.969,7.969-7.969h159.382c4.403,0,7.969,3.566,7.969,7.969
		V175.321z"/>
	<path style="fill:#020400;" d="M112.482,98.744c9.012-5.632,15.024-15.613,15.024-27.022c0-17.606-14.271-31.876-31.876-31.876
		c-17.606,0-31.876,14.271-31.876,31.876c0,11.409,6.012,21.39,15.024,27.022c-18.08,6.822-30.962,24.234-30.962,44.7v7.969h95.629
		v-7.969C143.444,122.979,130.562,105.566,112.482,98.744z M71.722,71.722c0-13.203,10.704-23.907,23.907-23.907
		c13.203,0,23.907,10.705,23.907,23.907c0,13.203-10.705,23.907-23.907,23.907C82.427,95.629,71.722,84.925,71.722,71.722z
		 M55.784,143.444c0-22.006,17.839-39.846,39.846-39.846s39.846,17.839,39.846,39.846H55.784z"/>
</g>
<g>
</g>
<g>
</g>
<g>
</g>
<g>
</g>
<g>
</g>
<g>
</g>
<g>
</g>
<g>
</g>
<g>
</g>
<g>
</g>
<g>
</g>
<g>
</g>
<g>
</g>
<g>
</g>
<g>
</g>
</svg>
