<?xml version="1.0" encoding="UTF-8"?>
<svg width="20px" height="20px" viewBox="0 0 20 20" version="1.1" xmlns="http://www.w3.org/2000/svg" xmlns:xlink="http://www.w3.org/1999/xlink">
    <!-- Generator: Sketch 44.1 (41455) - http://www.bohemiancoding.com/sketch -->
    <title>Shape</title>
    <desc>Created with Sketch.</desc>
    <defs></defs>
    <g id="Page-1" stroke="none" stroke-width="1" fill="none" fill-rule="evenodd">
        <g id="11-perfil-new" transform="translate(-368.000000, -161.000000)" fill-rule="nonzero" fill="#367DB7">
            <g id="Profile-Home" transform="translate(140.000000, 82.000000)">
                <path d="M247.018687,84.8111949 C246.896702,84.3765424 246.862706,84.3562315 246.418759,84.3277963 C245.748839,84.2851435 245.078919,84.2404596 244.418998,84.1856202 C244.049042,84.1551539 244.057041,84.1470296 244.099036,83.7794029 C244.197024,82.9385331 244.281014,82.0936011 244.377003,81.2222649 C244.366777,81.0787134 244.271862,80.9558004 244.137032,80.9115087 C243.045162,80.3698856 241.954626,79.8248774 240.865422,79.276484 C240.701417,79.1788629 240.492419,79.2119774 240.365482,79.3556964 C239.733557,79.981271 239.093634,80.5966903 238.461709,81.2222649 C238.421375,81.2843964 238.353004,81.3217882 238.279731,81.3217882 C238.206458,81.3217882 238.138087,81.2843964 238.097753,81.2222649 C237.413834,80.5357577 236.721917,79.8594058 236.033999,79.1769608 C235.834023,78.9738521 235.740034,78.9535412 235.492064,79.0754064 C234.398195,79.6075511 233.314324,80.1457891 232.224454,80.6718405 C232.052737,80.7412683 231.956713,80.9276935 231.998481,81.1105552 C232.09447,82.0062644 232.17846,82.9060357 232.276448,83.8017449 C232.30017,83.8721404 232.286786,83.9499689 232.240973,84.0080289 C232.19516,84.0660889 232.123288,84.0963093 232.050475,84.0881281 C231.078591,84.2140555 230.108707,84.3521693 229.136823,84.4943454 C228.960031,84.5016827 228.814049,84.6370957 228.790864,84.8152571 C228.536895,86.0014116 228.280925,87.1936595 228.026955,88.3899695 C227.964963,88.6865081 227.998959,88.7575961 228.244929,88.918052 L230.444667,90.3235639 C230.644643,90.4474602 230.644643,90.4860508 230.530656,90.6911905 L229.084829,93.2178622 C228.940846,93.4676859 228.948845,93.5509604 229.130824,93.7723489 L231.430549,96.5772794 C231.475465,96.6653541 231.554573,96.7303601 231.648755,96.7565888 C231.742937,96.7828175 231.843626,96.7678827 231.92649,96.7153933 L234.3522,95.8217152 C234.634166,95.7181298 234.650164,95.7242231 234.752152,96.0004508 C235.100111,96.8860046 235.452069,97.7715583 235.790028,98.6611743 C235.843956,98.8745854 236.041836,99.0171609 236.257972,98.9983346 C237.443831,98.9983346 238.627689,98.9983346 239.813548,98.9983346 C240.123511,98.9983346 240.183504,98.9455264 240.277492,98.6428945 C240.54946,97.7654651 240.823427,96.8880357 241.089396,96.0024819 C241.091899,95.9312294 241.131003,95.8665274 241.192425,95.8320081 C241.253847,95.7974887 241.328592,95.7982075 241.38936,95.8339017 C242.289252,96.1080984 243.189145,96.3701086 244.093037,96.6463364 C244.460993,96.756015 244.518986,96.7377353 244.740959,96.4290101 L246.824711,93.5428361 C246.982692,93.3234787 246.982692,93.2341109 246.824711,93.0025671 C246.336769,92.2652826 245.852827,91.5259671 245.358886,90.7907138 C245.306779,90.736496 245.28467,90.6594882 245.299916,90.5853223 C245.315162,90.5111564 245.365763,90.4495677 245.434877,90.421056 C246.218783,89.858445 246.99669,89.2856786 247.776597,88.7149433 C247.996571,88.5544875 248.032566,88.4610575 247.976573,88.2254514 C247.655278,87.0853348 247.335983,85.9472493 247.018687,84.8111949 Z M237.947771,92.7710232 C235.868115,92.7710232 234.18222,91.0587201 234.18222,88.9464872 C234.18222,86.8342543 235.868115,85.1219512 237.947771,85.1219512 C240.027427,85.1219512 241.713321,86.8342543 241.713321,88.9464872 C241.713321,91.0587201 240.027427,92.7710232 237.947771,92.7710232 Z" id="Shape"></path>
            </g>
        </g>
    </g>
</svg>