<?xml version="1.0" encoding="UTF-8"?>
<svg width="20px" height="20px" viewBox="0 0 20 20" version="1.1" xmlns="http://www.w3.org/2000/svg" xmlns:xlink="http://www.w3.org/1999/xlink">
    <!-- Generator: Sketch 44.1 (41455) - http://www.bohemiancoding.com/sketch -->
    <title>Shape</title>
    <desc>Created with Sketch.</desc>
    <defs></defs>
    <g id="Page-1" stroke="none" stroke-width="1" fill="none" fill-rule="evenodd">
        <g id="11-perfil-new" transform="translate(-332.000000, -160.000000)" fill-rule="nonzero" fill="#367DB7">
            <g id="Profile-Home" transform="translate(140.000000, 82.000000)">
                <path d="M210.125,80.5 L208.875,80.5 L208.875,79.5625 C208.875,78.6995551 208.175445,78 207.3125,78 C206.449555,78 205.75,78.6995551 205.75,79.5625 L205.75,80.5 L198.25,80.5 L198.25,79.5625 C198.25,78.6995551 197.550445,78 196.6875,78 C195.824555,78 195.125,78.6995551 195.125,79.5625 L195.125,80.5 L193.875,80.5 C192.839466,80.5 192,81.3394661 192,82.375 L192,96.125 C192,97.1605339 192.839466,98 193.875,98 L210.125,98 C211.160534,98 212,97.1605339 212,96.125 L212,82.375 C212,81.3394661 211.160534,80.5 210.125,80.5 Z M209.5,95.5 L194.5,95.5 L194.5,84.875 L209.5,84.875 L209.5,95.5 Z M196.375,88.625 L196.375,87.375 C196.375,87.029822 196.654822,86.75 197,86.75 L198.25,86.75 C198.595178,86.75 198.875,87.029822 198.875,87.375 L198.875,88.625 C198.875,88.970178 198.595178,89.25 198.25,89.25 L197,89.25 C196.654822,89.25 196.375,88.970178 196.375,88.625 Z M200.75,88.625 L200.75,87.375 C200.75,87.029822 201.029822,86.75 201.375,86.75 L202.625,86.75 C202.970178,86.75 203.25,87.029822 203.25,87.375 L203.25,88.625 C203.25,88.970178 202.970178,89.25 202.625,89.25 L201.375,89.25 C201.029822,89.25 200.75,88.970178 200.75,88.625 Z M205.125,88.625 L205.125,87.375 C205.125,87.029822 205.404822,86.75 205.75,86.75 L207,86.75 C207.345178,86.75 207.625,87.029822 207.625,87.375 L207.625,88.625 C207.625,88.970178 207.345178,89.25 207,89.25 L205.75,89.25 C205.404822,89.25 205.125,88.970178 205.125,88.625 Z M196.375,93 L196.375,91.75 C196.375,91.404822 196.654822,91.125 197,91.125 L198.25,91.125 C198.595178,91.125 198.875,91.404822 198.875,91.75 L198.875,93 C198.875,93.345178 198.595178,93.625 198.25,93.625 L197,93.625 C196.654822,93.625 196.375,93.345178 196.375,93 Z M200.75,93 L200.75,91.75 C200.75,91.404822 201.029822,91.125 201.375,91.125 L202.625,91.125 C202.970178,91.125 203.25,91.404822 203.25,91.75 L203.25,93 C203.25,93.345178 202.970178,93.625 202.625,93.625 L201.375,93.625 C201.029822,93.625 200.75,93.345178 200.75,93 Z" id="Shape"></path>
            </g>
        </g>
    </g>
</svg>