<?xml version="1.0" encoding="UTF-8"?>
<svg width="17px" height="20px" viewBox="0 0 17 20" version="1.1" xmlns="http://www.w3.org/2000/svg" xmlns:xlink="http://www.w3.org/1999/xlink">
    <!-- Generator: Sketch 44.1 (41455) - http://www.bohemiancoding.com/sketch -->
    <title>Shape</title>
    <desc>Created with Sketch.</desc>
    <defs></defs>
    <g id="Page-1" stroke="none" stroke-width="1" fill="none" fill-rule="evenodd">
        <g id="11-perfil-new" transform="translate(-299.000000, -162.000000)" fill-rule="nonzero" fill="#367DB7">
            <g id="Profile-Home" transform="translate(140.000000, 82.000000)">
                <path d="M174.937483,80 L162.142924,80 C161.252004,80 160.476898,80.2938736 159.901545,80.8497057 C159.35063,81.3820484 159.031079,82.1349878 159.009828,82.9272465 C159.006641,82.9586509 159,82.989034 159,83.0212043 L159,96.8084971 C159,96.8370929 159.006375,96.8644122 159.008766,96.8922421 C159.008235,96.9172635 159.005313,96.9417742 159.005313,96.9667956 C159.005313,98.4371848 160.105017,100 162.142924,100 L174.937483,100 C175.524258,100 176,99.5427215 176,98.9787191 L176,81.0212809 C176,80.4572785 175.524258,80 174.937483,80 Z M173.874967,97.9574381 L162.142924,97.9574381 C161.178956,97.9574381 161.130346,97.1322431 161.130346,96.9667956 C161.130346,96.7398159 161.203394,96.0001532 162.142924,96.0001532 L173.874967,96.0001532 L173.874967,97.9574381 Z M173.874967,93.9575913 L162.142924,93.9575913 C161.771043,93.9575913 161.432101,94.0084 161.124768,94.0982728 L161.124768,83.0707365 C161.12583,83.0520981 161.130346,83.0347363 161.130346,83.0158426 C161.128752,82.7268201 161.229957,82.4625637 161.408194,82.2902225 C161.578462,82.1257963 161.825497,82.0425619 162.14319,82.0425619 L173.874967,82.0425619 L173.874967,93.9575913 Z M163.869514,85.9576424 L170.908686,85.9576424 C171.495461,85.9576424 171.971203,85.5003638 171.971203,84.9363614 C171.971203,84.372359 171.495461,83.9150805 170.908686,83.9150805 L163.869514,83.9150805 C163.282739,83.9150805 162.806997,84.372359 162.806997,84.9363614 C162.806997,85.5003638 163.282739,85.9576424 163.869514,85.9576424 Z M163.869514,89.5321257 L170.908686,89.5321257 C171.495461,89.5321257 171.971203,89.0748471 171.971203,88.5108447 C171.971203,87.9468423 171.495461,87.4895638 170.908686,87.4895638 L163.869514,87.4895638 C163.282739,87.4895638 162.806997,87.9468423 162.806997,88.5108447 C162.806997,89.0748471 163.282739,89.5321257 163.869514,89.5321257 Z" id="Shape"></path>
            </g>
        </g>
    </g>
</svg>